SplineFontDB: 3.2
FontName: Estedad-Thin
FullName: Estedad Thin
FamilyName: Estedad Thin
Weight: Thin
Copyright: Copyright (c) 2020 by Amin Abedi (@aminabedi68)-www.fontamin.com,\nwith Reserved Font Name Estedad.\n\nThis Font Software is licensed under the SIL Open Font License, Version 1.1.
Version: 5.0
ItalicAngle: 0
UnderlinePosition: -750
UnderlineWidth: 150
Ascent: 1638
Descent: 410
InvalidEm: 1
LayerCount: 2
Layer: 0 0 "Back" 1
Layer: 1 0 "Estedad" 0
StyleMap: 0x0040
FSType: 0
OS2Version: 0
OS2_WeightWidthSlopeOnly: 0
OS2_UseTypoMetrics: 1
CreationTime: 1595063989
ModificationTime: 1606680884
PfmFamily: 17
TTFWeight: 100
TTFWidth: 5
LineGap: 0
VLineGap: 0
OS2TypoAscent: 2400
OS2TypoAOffset: 0
OS2TypoDescent: -1200
OS2TypoDOffset: 0
OS2TypoLinegap: 0
OS2WinAscent: 2400
OS2WinAOffset: 0
OS2WinDescent: 1200
OS2WinDOffset: 0
HheadAscent: 2400
HheadAOffset: 0
HheadDescent: -1200
HheadDOffset: 0
OS2CapHeight: 1500
OS2XHeight: 1090
OS2Vendor: 'amin'
Lookup: 4 0 0 "'ccmp' Glyph Composition Decomposition lookup 0" { "'ccmp' Glyph Composition Decomposition lookup 0 subtable"  } ['ccmp' ('DFLT' <'dflt' > 'arab' <'FAR ' 'MLY ' 'SND ' 'URD ' 'dflt' > ) ]
Lookup: 1 1 0 "'locl' Localized Forms in Arabic lookup 5" { "'locl' Localized Forms in Arabic lookup 5 subtable"  } ['locl' ('arab' <'URD ' > ) ]
Lookup: 1 1 0 "'locl' Localized Forms in Arabic lookup 6" { "'locl' Localized Forms in Arabic lookup 6 subtable"  } ['locl' ('arab' <'FAR ' > ) ]
Lookup: 1 0 0 "Single Substitution 1" { "Single Substitution 1 subtable"  } []
Lookup: 1 0 0 "Single Substitution 2" { "Single Substitution 2 subtable"  } []
Lookup: 1 9 0 "'isol' Isolated Forms in Arabic lookup 11" { "'isol' Isolated Forms in Arabic lookup 11 subtable"  } ['isol' ('DFLT' <'dflt' > 'arab' <'FAR ' 'MLY ' 'SND ' 'URD ' 'dflt' > ) ]
Lookup: 1 9 0 "'fina' Terminal Forms in Arabic lookup 12" { "'fina' Terminal Forms in Arabic lookup 12 subtable"  } ['fina' ('DFLT' <'dflt' > 'arab' <'FAR ' 'MLY ' 'SND ' 'URD ' 'dflt' > ) ]

StartChar: A
Encoding: 65 65 0
Width: 1146
GlyphClass: 2
Flags: HMW
LayerCount: 2
Fore
SplineSet
241 411 m 1
 85 0 l 1
 22 0 l 1
 530 1331 l 1
 618 1331 l 1
 1124 0 l 1
 1061 0 l 1
 906 411 l 1
 241 411 l 1
261 466 m 1
 885 466 l 1
 574 1292 l 1
 261 466 l 1
EndSplineSet
Substitution2: "'c2sc' Capitals to Small Capitals in Latin lookup 0 subtable" uni1D00
EndChar

StartChar: AE
Encoding: 198 198 1
Width: 1377
GlyphClass: 2
Flags: HMW
LayerCount: 2
Fore
SplineSet
655 1278 m 257
 583 1278 l 257
 267 466 l 257
 655 466 l 257
 655 1278 l 257
545 1331 m 257
 1293 1331 l 257
 1293 1278 l 257
 715 1278 l 257
 715 693 l 257
 1236 693 l 257
 1236 637 l 257
 715 637 l 257
 715 52 l 257
 1293 52 l 257
 1293 0 l 257
 655 0 l 257
 655 411 l 257
 245 411 l 257
 84 0 l 257
 22 0 l 257
 545 1331 l 257
EndSplineSet
EndChar

StartChar: B
Encoding: 66 66 8
Width: 1150
GlyphClass: 2
Flags: HMW
LayerCount: 2
Fore
SplineSet
169 1331 m 1
 609 1331 l 2
 829 1331 984 1204 984 989 c 0
 984 841 911 734 794 681 c 1
 947 640 1046 518 1046 346 c 0
 1046 131 891 0 671 0 c 2
 169 0 l 1
 169 1331 l 1
229 1278 m 1
 229 696 l 1
 609 696 l 2
 806 696 925 810 925 989 c 0
 925 1168 806 1278 609 1278 c 2
 229 1278 l 1
229 644 m 1
 229 52 l 1
 671 52 l 2
 868 52 987 167 987 346 c 0
 987 525 868 644 671 644 c 2
 229 644 l 1
EndSplineSet
Substitution2: "'c2sc' Capitals to Small Capitals in Latin lookup 0 subtable" uni0299
EndChar

StartChar: C
Encoding: 67 67 9
Width: 1307
GlyphClass: 2
Flags: HMW
LayerCount: 2
Fore
SplineSet
193 665 m 256
 193 300 355 42 694 42 c 256
 937 42 1071 201 1122 345 c 257
 1175 327 l 257
 1119 174 971 -11 696 -11 c 256
 336 -11 133 247 133 665 c 256
 133 1083 336 1342 696 1342 c 256
 971 1342 1119 1157 1175 1004 c 257
 1122 985 l 257
 1071 1129 937 1289 694 1289 c 256
 355 1289 193 1030 193 665 c 256
EndSplineSet
Substitution2: "'c2sc' Capitals to Small Capitals in Latin lookup 0 subtable" uni1D04
EndChar

StartChar: D
Encoding: 68 68 11
Width: 1332
GlyphClass: 2
Flags: HMW
LayerCount: 2
Fore
SplineSet
1175 665 m 256
 1175 272 971 0 594 0 c 258
 228 0 l 257
 228 1331 l 257
 594 1331 l 258
 971 1331 1175 1058 1175 665 c 256
1114 665 m 256
 1114 1006 949 1278 594 1278 c 258
 287 1278 l 257
 287 52 l 257
 594 52 l 258
 949 52 1114 325 1114 665 c 256
EndSplineSet
Substitution2: "'c2sc' Capitals to Small Capitals in Latin lookup 0 subtable" uni1D05
EndChar

StartChar: E
Encoding: 69 69 12
Width: 1054
GlyphClass: 2
Flags: HMW
LayerCount: 2
Fore
SplineSet
970 52 m 257
 970 0 l 257
 228 0 l 257
 228 1331 l 257
 970 1331 l 257
 970 1278 l 257
 287 1278 l 257
 287 693 l 257
 915 693 l 257
 915 637 l 257
 287 637 l 257
 287 52 l 257
 970 52 l 257
EndSplineSet
Substitution2: "'c2sc' Capitals to Small Capitals in Latin lookup 0 subtable" uni1D07
EndChar

StartChar: F
Encoding: 70 70 18
Width: 1043
GlyphClass: 2
Flags: HMW
LayerCount: 2
Fore
SplineSet
287 0 m 257
 228 0 l 257
 228 1331 l 257
 970 1331 l 257
 970 1278 l 257
 287 1278 l 257
 287 643 l 257
 932 643 l 257
 932 589 l 257
 287 589 l 257
 287 0 l 257
EndSplineSet
Substitution2: "'c2sc' Capitals to Small Capitals in Latin lookup 0 subtable" uniA730
EndChar

StartChar: G
Encoding: 71 71 19
Width: 1300
GlyphClass: 2
Flags: HMW
LayerCount: 2
Back
SplineSet
677 643 m 257
 1189 643 l 257
 1189 461 l 258
 1189 156 1024 -11 702 -11 c 256
 305 -11 111 241 111 659 c 256
 111 1077 316 1342 676 1342 c 256
 951 1342 1098 1157 1154 1004 c 257
 1102 985 l 257
 1051 1129 916 1289 673 1289 c 256
 334 1289 172 1024 172 659 c 256
 172 294 323 42 703 42 c 256
 977 42 1130 180 1130 462 c 258
 1130 589 l 257
 677 589 l 257
 677 643 l 257
EndSplineSet
Fore
SplineSet
677 643 m 1
 1189 643 l 1
 1189 166 l 1
 1100 57 887 -11 702 -11 c 0
 319 -11 111 225 111 659 c 0
 111 1086 323 1342 676 1342 c 0
 894 1342 1078 1212 1154 1004 c 1
 1102 985 l 1
 1036 1172 871 1289 673 1289 c 0
 358 1289 172 1055 172 659 c 0
 172 256 356 42 703 42 c 0
 852 42 1053 107 1130 180 c 1
 1130 589 l 1
 677 589 l 1
 677 643 l 1
EndSplineSet
Substitution2: "'c2sc' Capitals to Small Capitals in Latin lookup 0 subtable" uni0262
EndChar

StartChar: GAFbar
Encoding: 1114112 -1 20
Width: 1111
GlyphClass: 2
Flags: HMW
LayerCount: 2
Fore
SplineSet
847 1978 m 1
 858 1929 l 1
 589 1866 319 1757 90 1610 c 257
 62 1653 l 257
 295 1802 573 1913 847 1978 c 1
EndSplineSet
EndChar

StartChar: H
Encoding: 72 72 21
Width: 1382
GlyphClass: 2
Flags: HMW
LayerCount: 2
Fore
SplineSet
1094 1331 m 257
 1154 1331 l 257
 1154 0 l 257
 1094 0 l 257
 1094 636 l 257
 287 636 l 257
 287 0 l 257
 228 0 l 257
 228 1331 l 257
 287 1331 l 257
 287 695 l 257
 1094 695 l 257
 1094 1331 l 257
EndSplineSet
Substitution2: "'c2sc' Capitals to Small Capitals in Latin lookup 0 subtable" uni029C
EndChar

StartChar: I
Encoding: 73 73 24
Width: 610
GlyphClass: 2
Flags: HMW
LayerCount: 2
Fore
SplineSet
335 0 m 257
 275 0 l 257
 275 1331 l 257
 335 1331 l 257
 335 0 l 257
EndSplineSet
Substitution2: "'c2sc' Capitals to Small Capitals in Latin lookup 0 subtable" uni026A
EndChar

StartChar: J
Encoding: 74 74 29
Width: 692
GlyphClass: 2
Flags: HMW
LayerCount: 2
Fore
SplineSet
95 5 m 257
 107 54 l 257
 131 49 175 42 218 42 c 0
 342 42 406 100 406 227 c 258
 406 1331 l 257
 465 1331 l 257
 465 222 l 258
 465 58 363 -11 217 -11 c 0
 175 -11 133 -5 95 5 c 257
EndSplineSet
Substitution2: "'c2sc' Capitals to Small Capitals in Latin lookup 0 subtable" uni1D0A
EndChar

StartChar: K
Encoding: 75 75 30
Width: 1145
GlyphClass: 2
Flags: HMW
LayerCount: 2
Fore
SplineSet
1024 1331 m 257
 1104 1331 l 257
 520 666 l 257
 1104 0 l 257
 1024 0 l 257
 477 618 l 257
 287 404 l 257
 287 0 l 257
 228 0 l 257
 228 1331 l 257
 287 1331 l 257
 287 489 l 257
 1024 1331 l 257
EndSplineSet
Substitution2: "'c2sc' Capitals to Small Capitals in Latin lookup 0 subtable" uni1D0B
EndChar

StartChar: L
Encoding: 76 76 31
Width: 1010
GlyphClass: 2
Flags: HMW
LayerCount: 2
Fore
SplineSet
947 52 m 257
 947 0 l 257
 228 0 l 257
 228 1331 l 257
 287 1331 l 257
 287 52 l 257
 947 52 l 257
EndSplineSet
Substitution2: "'c2sc' Capitals to Small Capitals in Latin lookup 0 subtable" uni029F
EndChar

StartChar: M
Encoding: 77 77 32
Width: 1817
GlyphClass: 2
Flags: HMW
LayerCount: 2
Fore
SplineSet
287 0 m 257
 228 0 l 257
 228 1331 l 257
 341 1331 l 257
 876 30 l 257
 1478 1331 l 257
 1591 1331 l 257
 1591 0 l 257
 1531 0 l 257
 1531 1303 l 257
 930 0 l 257
 820 0 l 257
 287 1295 l 257
 287 0 l 257
EndSplineSet
Substitution2: "'c2sc' Capitals to Small Capitals in Latin lookup 0 subtable" uni1D0D
EndChar

StartChar: N
Encoding: 78 78 33
Width: 1397
GlyphClass: 2
Flags: HMW
LayerCount: 2
Fore
SplineSet
1109 1331 m 257
 1169 1331 l 257
 1169 0 l 257
 1074 0 l 257
 287 1282 l 257
 287 0 l 257
 228 0 l 257
 228 1331 l 257
 323 1331 l 257
 1109 48 l 257
 1109 1331 l 257
EndSplineSet
Substitution2: "'c2sc' Capitals to Small Capitals in Latin lookup 0 subtable" uni0274
EndChar

StartChar: O
Encoding: 79 79 35
Width: 1522
GlyphClass: 2
Flags: HMW
LayerCount: 2
Fore
SplineSet
761 1342 m 256
 1143 1342 1337 1061 1337 665 c 256
 1337 269 1143 -11 761 -11 c 256
 379 -11 185 269 185 665 c 256
 185 1061 379 1342 761 1342 c 256
761 1289 m 256
 397 1289 244 1008 244 665 c 256
 244 321 397 41 761 41 c 256
 1125 41 1278 322 1278 665 c 256
 1278 1009 1125 1289 761 1289 c 256
EndSplineSet
Substitution2: "'c2sc' Capitals to Small Capitals in Latin lookup 0 subtable" uni1D0F
EndChar

StartChar: OE
Encoding: 338 338 36
Width: 1589
GlyphClass: 2
Flags: HMW
LayerCount: 2
Fore
SplineSet
883 1278 m 257
 754 1278 l 258
 410 1278 254 1008 254 665 c 256
 254 321 410 52 754 52 c 258
 883 52 l 257
 883 1278 l 257
942 1278 m 257
 942 693 l 257
 1465 693 l 257
 1465 637 l 257
 942 637 l 257
 942 52 l 257
 1521 52 l 257
 1521 0 l 257
 754 0 l 258
 390 0 193 269 193 665 c 256
 193 1061 390 1331 754 1331 c 258
 1521 1331 l 257
 1521 1278 l 257
 942 1278 l 257
EndSplineSet
EndChar

StartChar: P
Encoding: 80 80 43
Width: 1099
GlyphClass: 2
Flags: HMW
LayerCount: 2
Fore
SplineSet
229 0 m 257
 169 0 l 257
 169 1331 l 257
 629 1331 l 258
 849 1331 984 1184 984 969 c 256
 984 754 850 604 629 604 c 258
 229 604 l 257
 229 0 l 257
229 1278 m 257
 229 656 l 257
 629 656 l 258
 826 656 925 790 925 969 c 256
 925 1148 826 1278 629 1278 c 258
 229 1278 l 257
EndSplineSet
Substitution2: "'c2sc' Capitals to Small Capitals in Latin lookup 0 subtable" uni1D18
EndChar

StartChar: R
Encoding: 82 82 45
Width: 1102
GlyphClass: 2
Flags: HMW
LayerCount: 2
Fore
SplineSet
704 640 m 257
 1060 0 l 257
 992 0 l 257
 645 640 l 257
 704 640 l 257
EndSplineSet
Refer: 43 80 N 1 0 0 1 0 0 2
Substitution2: "'c2sc' Capitals to Small Capitals in Latin lookup 0 subtable" uni0280
EndChar

StartChar: S
Encoding: 83 83 46
Width: 1140
GlyphClass: 2
Flags: HMW
LayerCount: 2
Fore
SplineSet
117 355 m 257
 178 355 l 257
 178 147 378 42 583 42 c 256
 784 42 963 133 963 329 c 256
 963 526 772 582 574 640 c 0
 363 702 146 767 146 1005 c 256
 146 1211 323 1341 557 1341 c 256
 786 1341 994 1198 994 977 c 257
 934 977 l 257
 934 1174 754 1291 557 1291 c 256
 360 1291 207 1189 207 1009 c 256
 207 817 399 757 598 695 c 0
 808 630 1024 561 1024 333 c 256
 1024 108 824 -10 583 -10 c 256
 347 -10 117 116 117 355 c 257
EndSplineSet
Substitution2: "'c2sc' Capitals to Small Capitals in Latin lookup 0 subtable" uniA731
EndChar

StartChar: T
Encoding: 84 84 47
Width: 1325
GlyphClass: 2
Flags: HMW
LayerCount: 2
Fore
SplineSet
693 0 m 257
 633 0 l 257
 633 1278 l 257
 127 1278 l 257
 127 1331 l 257
 1199 1331 l 257
 1199 1278 l 257
 693 1278 l 257
 693 0 l 257
EndSplineSet
Substitution2: "'c2sc' Capitals to Small Capitals in Latin lookup 0 subtable" uni1D1B
EndChar

StartChar: Thorn
Encoding: 222 222 54
Width: 1099
GlyphClass: 2
Flags: HMW
LayerCount: 2
Fore
SplineSet
232 332 m 1
 632 332 l 2
 829 332 928 466 928 645 c 0
 928 824 829 954 632 954 c 2
 232 954 l 1
 232 332 l 1
232 0 m 1
 173 0 l 1
 173 1331 l 1
 232 1331 l 1
 232 1007 l 1
 632 1007 l 2
 852 1007 988 860 988 645 c 0
 988 430 853 281 632 281 c 2
 232 281 l 1
 232 0 l 1
EndSplineSet
EndChar

StartChar: U
Encoding: 85 85 55
Width: 1314
GlyphClass: 2
Flags: HMW
LayerCount: 2
Fore
SplineSet
1078 1331 m 257
 1139 1331 l 257
 1139 458 l 258
 1139 161 946 -11 656 -11 c 256
 366 -11 175 161 175 458 c 258
 175 1331 l 257
 235 1331 l 257
 235 458 l 258
 235 190 405 39 656 39 c 256
 907 39 1078 190 1078 458 c 258
 1078 1331 l 257
EndSplineSet
Substitution2: "'c2sc' Capitals to Small Capitals in Latin lookup 0 subtable" uni1D1C
EndChar

StartChar: V
Encoding: 86 86 60
Width: 1146
GlyphClass: 2
Flags: HMW
LayerCount: 2
Fore
SplineSet
572 39 m 261
 1061 1331 l 261
 1124 1331 l 261
 616 0 l 261
 528 0 l 261
 22 1331 l 261
 85 1331 l 261
 572 39 l 261
EndSplineSet
Substitution2: "'c2sc' Capitals to Small Capitals in Latin lookup 0 subtable" uni1D20
EndChar

StartChar: W
Encoding: 87 87 61
Width: 1808
GlyphClass: 2
Flags: HMW
LayerCount: 2
Fore
SplineSet
1692 1331 m 257
 1755 1331 l 257
 1366 0 l 257
 1251 0 l 257
 904 1297 l 257
 550 0 l 257
 441 0 l 257
 53 1331 l 257
 115 1331 l 257
 501 27 l 257
 850 1331 l 257
 958 1331 l 257
 1307 27 l 257
 1692 1331 l 257
EndSplineSet
Substitution2: "'c2sc' Capitals to Small Capitals in Latin lookup 0 subtable" uni1D21
EndChar

StartChar: X
Encoding: 88 88 62
Width: 1250
GlyphClass: 2
Flags: HMW
LayerCount: 2
Fore
SplineSet
1208 0 m 257
 1133 0 l 257
 625 617 l 257
 117 0 l 257
 42 0 l 257
 582 666 l 257
 42 1331 l 257
 117 1331 l 257
 625 713 l 257
 1133 1331 l 257
 1208 1331 l 257
 666 666 l 257
 1208 0 l 257
EndSplineSet
Substitution2: "'c2sc' Capitals to Small Capitals in Latin lookup 0 subtable" uniA7EF
EndChar

StartChar: Y
Encoding: 89 89 63
Width: 1090
GlyphClass: 2
Flags: HMW
LayerCount: 2
Fore
SplineSet
1018 1331 m 257
 1085 1331 l 257
 574 572 l 257
 574 0 l 257
 514 0 l 257
 514 572 l 257
 5 1331 l 257
 73 1331 l 257
 544 629 l 257
 1018 1331 l 257
EndSplineSet
Substitution2: "'c2sc' Capitals to Small Capitals in Latin lookup 0 subtable" uni028F
EndChar

StartChar: Z
Encoding: 90 90 65
Width: 1206
GlyphClass: 2
Flags: HMW
LayerCount: 2
Fore
SplineSet
105 1281 m 257
 105 1331 l 257
 1101 1331 l 257
 1101 1253 l 257
 156 52 l 257
 1101 52 l 257
 1101 0 l 257
 105 0 l 257
 105 80 l 257
 1050 1281 l 257
 105 1281 l 257
EndSplineSet
Substitution2: "'c2sc' Capitals to Small Capitals in Latin lookup 0 subtable" uni1D22
EndChar

StartChar: a
Encoding: 97 97 66
Width: 1027
GlyphClass: 2
Flags: HMW
LayerCount: 2
Back
SplineSet
846 251 m 257
 809 177 688 -11 411 -11 c 0
 222 -11 117 87 117 253 c 256
 117 463 264 568 504 568 c 0
 624 568 728 558 829 530 c 1
 811 482 l 257
 720 507 633 514 504 514 c 0
 295 514 177 420 177 257 c 256
 177 121 247 42 428 42 c 0
 665 42 777 217 811 272 c 257
 846 251 l 257
853 715 m 9
 853 0 l 25
 793 0 l 17
 793 224 l 1
 793 715 l 1
 793 875 661 947 499 947 c 0
 371 947 275 894 200 817 c 1
 159 859 l 1
 237 941 348 999 499 999 c 0
 694 999 853 908 853 715 c 9
EndSplineSet
Fore
SplineSet
499 999 m 0
 694 999 853 908 853 715 c 2
 853 217 l 2
 853 110 885 53 999 53 c 1
 1000 0 l 1
 864 0 793 69 793 213 c 2
 793 715 l 2
 793 875 661 947 499 947 c 0
 337 947 204 875 204 715 c 1
 145 715 l 1
 145 908 304 999 499 999 c 0
EndSplineSet
Refer: 314 57355 N 1 0 0 1 0 0 2
Substitution2: "'smcp' Lowercase to Small Capitals in Latin lookup 0 subtable" uni1D00
EndChar

StartChar: acute
Encoding: 180 180 69
Width: 580
GlyphClass: 2
Flags: HMW
LayerCount: 2
Fore
SplineSet
347 1456 m 257
 430 1456 l 257
 223 1131 l 257
 150 1131 l 257
 347 1456 l 257
EndSplineSet
EndChar

StartChar: ae
Encoding: 230 230 71
Width: 1744
GlyphClass: 2
Flags: HMW
LayerCount: 2
Fore
SplineSet
793 249 m 25
 793 715 l 2
 793 875 661 947 499 947 c 0
 337 947 204 875 204 715 c 1
 145 715 l 1
 145 908 304 999 499 999 c 0
 694 999 853 908 853 715 c 2
 853 249 l 25
 793 249 l 25
117 258 m 256
 117 468 272 543 482 543 c 2
 852 543 l 1
 852 490 l 257
 482 491 l 2
 302 491 178 425 178 262 c 256
 178 126 244 42 422 42 c 0
 630 42 775 217 807 272 c 257
 840 251 l 257
 805 177 638 -11 405 -11 c 0
 232 -11 117 82 117 258 c 256
EndSplineSet
Refer: 102 101 N 1 0 0 1 702 0 2
Substitution2: "'c2sc' Capitals to Small Capitals in Latin lookup 0 subtable" uni1D01
Substitution2: "'smcp' Lowercase to Small Capitals in Latin lookup 0 subtable" uni1D01
EndChar

StartChar: ampersand
Encoding: 38 38 73
Width: 1291
GlyphClass: 2
Flags: HMW
LayerCount: 2
Fore
SplineSet
218 1050 m 0
 218 1193 323 1342 534 1342 c 0
 722 1342 845 1217 845 1060 c 0
 845 855 665 756 490 660 c 0
 326 570 167 470 167 312 c 0
 167 129 333 51 521 51 c 0
 837 51 1060 298 1060 541 c 1
 1117 541 l 1
 1117 285 891 -9 522 -9 c 0
 293 -9 107 96 107 304 c 0
 107 496 281 611 455 704 c 0
 624 794 783 879 783 1054 c 0
 783 1194 684 1289 533 1289 c 0
 367 1289 279 1174 279 1060 c 0
 279 954 333 878 407 804 c 0
 1192 30 l 1
 1151 -11 l 1
 360 769 l 0
 278 851 218 940 218 1050 c 0
EndSplineSet
EndChar

StartChar: asciicircum
Encoding: 94 94 75
Width: 788
GlyphClass: 2
Flags: HMW
LayerCount: 2
Fore
SplineSet
638 1131 m 257
 565 1131 l 257
 394 1399 l 257
 222 1131 l 257
 150 1131 l 257
 358 1456 l 257
 430 1456 l 257
 638 1131 l 257
EndSplineSet
Substitution2: "'tnum' Tabular Numbers lookup 22 subtable" asciicircum.tnum
EndChar

StartChar: asciitilde
Encoding: 126 126 76
Width: 1035
GlyphClass: 2
Flags: HMW
LayerCount: 2
Fore
SplineSet
150 1153 m 1
 203 1259 271 1312 351 1312 c 0
 397 1312 446 1295 533 1246 c 0
 609 1204 648 1188 683 1188 c 0
 740 1188 788 1229 833 1315 c 1
 885 1291 l 1
 832 1185 767 1132 688 1132 c 0
 640 1132 586 1151 504 1198 c 0
 433 1239 389 1256 352 1256 c 0
 294 1256 247 1216 202 1129 c 1
 150 1153 l 1
EndSplineSet
EndChar

StartChar: asterisk
Encoding: 42 42 77
Width: 1262
GlyphClass: 2
Flags: HMW
LayerCount: 2
Fore
SplineSet
222 1015 m 257
 240 1062 l 257
 604 945 l 257
 607 1331 l 257
 656 1331 l 257
 658 945 l 257
 1024 1062 l 257
 1040 1015 l 257
 677 893 l 257
 899 582 l 257
 861 553 l 257
 631 861 l 257
 403 553 l 257
 365 582 l 257
 586 893 l 257
 222 1015 l 257
EndSplineSet
Substitution2: "'tnum' Tabular Numbers lookup 22 subtable" asterisk.tnum
EndChar

StartChar: at
Encoding: 64 64 78
Width: 1906
GlyphClass: 2
Flags: HMW
LayerCount: 2
Fore
SplineSet
951 866 m 0
 761 866 569 727 569 396 c 0
 569 118 738 54 874 54 c 0
 1010 54 1170 146 1195 420 c 2
 1228 778 l 1
 1162 829 1090 866 951 866 c 0
951 918 m 0
 1125 918 1209 864 1290 801 c 1
 1241 274 l 2
 1240 259 1239 245 1239 234 c 0
 1239 117 1307 51 1416 51 c 0
 1592 51 1688 241 1688 468 c 0
 1688 845 1381 1214 970 1214 c 0
 580 1214 219 903 219 438 c 0
 219 -12 515 -281 1004 -281 c 0
 1075 -281 1144 -269 1210 -251 c 1
 1231 -303 l 1
 1158 -322 1083 -334 1003 -334 c 0
 470 -334 159 -34 159 441 c 0
 159 926 531 1267 958 1267 c 0
 1430 1267 1747 866 1747 468 c 0
 1747 237 1639 -5 1419 -5 c 0
 1293 -5 1203 55 1192 204 c 1
 1136 56 986 -5 874 -5 c 0
 692 -5 510 109 510 396 c 0
 510 738 712 918 951 918 c 0
EndSplineSet
EndChar

StartChar: b
Encoding: 98 98 80
Width: 1069
GlyphClass: 2
Flags: HMW
LayerCount: 2
Fore
SplineSet
235 0 m 257
 175 0 l 257
 175 1389 l 257
 235 1389 l 257
 235 0 l 257
EndSplineSet
Refer: 318 57359 N 1 0 0 1 -40 0 2
Substitution2: "'smcp' Lowercase to Small Capitals in Latin lookup 0 subtable" uni0299
EndChar

StartChar: backslash
Encoding: 92 92 81
Width: 1158
GlyphClass: 2
Flags: HMW
LayerCount: 2
Fore
SplineSet
934 0 m 257
 872 0 l 257
 214 1331 l 257
 277 1331 l 257
 934 0 l 257
EndSplineSet
Substitution2: "'tnum' Tabular Numbers lookup 22 subtable" backslash.tnum
EndChar

StartChar: bar
Encoding: 124 124 82
Width: 488
GlyphClass: 2
Flags: HMW
LayerCount: 2
Fore
SplineSet
215 1331 m 257
 274 1331 l 257
 274 -435 l 257
 215 -435 l 257
 215 1331 l 257
EndSplineSet
Substitution2: "'tnum' Tabular Numbers lookup 22 subtable" bar.tnum
EndChar

StartChar: braceleft
Encoding: 123 123 83
Width: 792
GlyphClass: 2
Flags: HMW
LayerCount: 2
Fore
SplineSet
147 638 m 257
 311 561 371 461 371 318 c 258
 371 87 l 258
 371 10 424 -57 509 -57 c 258
 686 -57 l 257
 686 -112 l 257
 521 -112 l 258
 391 -112 311 -25 311 87 c 258
 311 318 l 258
 311 468 209 572 88 608 c 258
 64 614 l 257
 64 663 l 257
 88 671 l 258
 209 707 311 810 311 960 c 258
 311 1188 l 258
 311 1300 391 1386 521 1386 c 258
 686 1386 l 257
 686 1333 l 257
 509 1333 l 258
 424 1333 371 1265 371 1188 c 258
 371 960 l 258
 371 816 309 714 147 638 c 257
EndSplineSet
Substitution2: "'tnum' Tabular Numbers lookup 22 subtable" braceleft.tnum
EndChar

StartChar: braceright
Encoding: 125 125 84
Width: 792
GlyphClass: 2
Flags: HMW
LayerCount: 2
Fore
SplineSet
645 636 m 257
 481 713 421 813 421 956 c 258
 421 1187 l 258
 421 1264 368 1331 283 1331 c 258
 106 1331 l 257
 106 1386 l 257
 271 1386 l 258
 401 1386 481 1299 481 1187 c 258
 481 956 l 258
 481 806 583 702 704 666 c 258
 728 660 l 257
 728 611 l 257
 704 603 l 258
 583 567 481 464 481 314 c 258
 481 86 l 258
 481 -26 401 -112 271 -112 c 258
 106 -112 l 257
 106 -59 l 257
 283 -59 l 258
 368 -59 421 9 421 86 c 258
 421 314 l 258
 421 458 483 560 645 636 c 257
EndSplineSet
Substitution2: "'tnum' Tabular Numbers lookup 22 subtable" braceright.tnum
EndChar

StartChar: bracketleft
Encoding: 91 91 85
Width: 714
GlyphClass: 2
Flags: HMW
LayerCount: 2
Fore
SplineSet
587 -57 m 257
 587 -112 l 257
 212 -112 l 257
 212 1387 l 257
 587 1387 l 257
 587 1333 l 257
 272 1333 l 257
 272 -57 l 257
 587 -57 l 257
EndSplineSet
Substitution2: "'tnum' Tabular Numbers lookup 22 subtable" bracketleft.tnum
EndChar

StartChar: bracketright
Encoding: 93 93 86
Width: 715
GlyphClass: 2
Flags: HMW
LayerCount: 2
Fore
SplineSet
127 1331 m 257
 127 1386 l 257
 504 1386 l 257
 504 -112 l 257
 127 -112 l 257
 127 -59 l 257
 444 -59 l 257
 444 1331 l 257
 127 1331 l 257
EndSplineSet
Substitution2: "'tnum' Tabular Numbers lookup 22 subtable" bracketright.tnum
EndChar

StartChar: brokenbar
Encoding: 166 166 87
Width: 484
GlyphClass: 2
Flags: HMW
LayerCount: 2
Fore
SplineSet
272 863 m 257
 212 863 l 257
 212 1331 l 257
 272 1331 l 257
 272 863 l 257
272 0 m 257
 212 0 l 257
 212 467 l 257
 272 467 l 257
 272 0 l 257
EndSplineSet
EndChar

StartChar: c
Encoding: 99 99 88
Width: 1083
GlyphClass: 2
Flags: HMW
LayerCount: 2
Fore
SplineSet
564 999 m 0
 764 999 905 902 967 730 c 1
 914 709 l 1
 863 856 742 947 564 947 c 0
 339 947 182 804 182 495 c 0
 182 186 339 42 564 42 c 0
 742 42 863 135 914 282 c 1
 967 261 l 1
 905 84 764 -11 564 -11 c 0
 304 -11 122 157 122 495 c 0
 122 833 304 999 564 999 c 0
EndSplineSet
Substitution2: "'smcp' Lowercase to Small Capitals in Latin lookup 0 subtable" uni1D04
EndChar

StartChar: cedilla
Encoding: 184 184 90
Width: 673
GlyphClass: 2
Flags: HMW
LayerCount: 2
Fore
SplineSet
523 -279 m 0
 523 -378 446 -439 322 -439 c 0
 263 -439 204 -425 150 -398 c 1
 170 -353 l 1
 209 -375 267 -388 324 -388 c 0
 418 -388 470 -351 470 -284 c 0
 470 -208 404 -161 303 -161 c 0
 292 -161 280 -162 268 -163 c 1
 268 1 l 1
 328 1 l 1
 328 -117 l 1
 450 -117 523 -179 523 -279 c 0
EndSplineSet
EndChar

StartChar: comma
Encoding: 44 44 93
Width: 522
GlyphClass: 2
Flags: HMW
LayerCount: 2
Back
SplineSet
305 -2 m 1
 213 -26 150 4 150 92 c 0
 150 160 187 203 254 203 c 0
 330 203 372 144 372 27 c 0
 372 -136 316 -257 202 -370 c 1
 158 -322 l 1
 255 -229 305 -122 305 -2 c 1
EndSplineSet
Fore
SplineSet
214 193 m 1
 297 193 l 1
 169 -220 l 1
 123 -204 l 1
 214 193 l 1
EndSplineSet
Substitution2: "'tnum' Tabular Numbers lookup 22 subtable" comma.tnum
EndChar

StartChar: copyright
Encoding: 169 169 94
Width: 1967
GlyphClass: 2
Flags: HMW
LayerCount: 2
Fore
SplineSet
218 775 m 256
 218 350 525 13 984 13 c 256
 1443 13 1750 350 1750 775 c 256
 1750 1200 1443 1538 984 1538 c 256
 525 1538 218 1200 218 775 c 256
159 775 m 256
 159 1221 472 1591 984 1591 c 256
 1496 1591 1809 1221 1809 775 c 256
 1809 328 1496 -40 984 -40 c 256
 472 -40 159 328 159 775 c 256
1269 1013 m 257
 1228 979 l 257
 1155 1052 1088 1090 980 1090 c 256
 798 1090 687 937 687 779 c 256
 687 621 798 470 980 470 c 256
 1088 470 1155 507 1228 580 c 257
 1269 544 l 257
 1183 458 1105 414 978 414 c 256
 764 414 633 593 633 779 c 256
 633 965 764 1145 978 1145 c 256
 1105 1145 1183 1099 1269 1013 c 257
EndSplineSet
EndChar

StartChar: currency
Encoding: 164 164 95
Width: 1296
GlyphClass: 2
Flags: HMW
LayerCount: 2
Fore
SplineSet
895 100 m 257
 946 140 l 257
 1191 -142 l 257
 1141 -181 l 257
 895 100 l 257
352 140 m 257
 402 100 l 257
 157 -181 l 257
 106 -142 l 257
 352 140 l 257
946 850 m 257
 895 889 l 257
 1141 1172 l 257
 1191 1132 l 257
 946 850 l 257
402 889 m 257
 352 850 l 257
 106 1132 l 257
 157 1172 l 257
 402 889 l 257
EndSplineSet
Refer: 142 111 N 1 0 0 1 120 0 2
EndChar

StartChar: d
Encoding: 100 100 96
Width: 1070
GlyphClass: 2
Flags: HMW
LayerCount: 2
Fore
SplineSet
897 0 m 257
 836 0 l 257
 836 1331 l 257
 897 1331 l 257
 897 0 l 257
EndSplineSet
Refer: 318 57359 N -1 0 0 -1 1111 990 2
Substitution2: "'smcp' Lowercase to Small Capitals in Latin lookup 0 subtable" uni1D05
EndChar

StartChar: degree
Encoding: 176 176 97
Width: 729
GlyphClass: 2
Flags: HMW
LayerCount: 2
Fore
SplineSet
526 1345 m 256
 526 1436 455 1509 364 1509 c 256
 273 1509 202 1436 202 1345 c 256
 202 1254 273 1183 364 1183 c 256
 455 1183 526 1254 526 1345 c 256
579 1345 m 256
 579 1226 483 1131 364 1131 c 256
 245 1131 150 1226 150 1345 c 256
 150 1464 245 1560 364 1560 c 256
 483 1560 579 1464 579 1345 c 256
EndSplineSet
EndChar

StartChar: dieresis
Encoding: 168 168 98
Width: 770
GlyphClass: 2
Flags: HMW
LayerCount: 2
Fore
SplineSet
150 1202 m 128
 150 1241 178 1272 220 1272 c 128
 262 1272 291 1241 291 1202 c 128
 291 1163 262 1131 220 1131 c 128
 178 1131 150 1163 150 1202 c 128
479 1202 m 128
 479 1241 507 1272 549 1272 c 128
 591 1272 620 1241 620 1202 c 128
 620 1163 591 1131 549 1131 c 128
 507 1131 479 1163 479 1202 c 128
EndSplineSet
EndChar

StartChar: dotlessi
Encoding: 305 305 101
Width: 463
GlyphClass: 2
Flags: HMW
LayerCount: 2
Fore
SplineSet
202 990 m 257
 262 990 l 257
 262 0 l 257
 202 0 l 257
 202 990 l 257
EndSplineSet
EndChar

StartChar: e
Encoding: 101 101 102
Width: 1042
GlyphClass: 2
Flags: HMW
LayerCount: 2
Fore
SplineSet
151 490 m 1
 152 228 282 42 536 42 c 0
 716 42 832 134 881 268 c 1
 936 247 l 1
 874 83 734 -11 537 -11 c 0
 261 -11 95 175 95 495 c 0
 95 818 267 999 527 999 c 0
 840 999 964 784 958 490 c 1
 151 490 l 1
153 543 m 1
 898 543 l 1
 882 769 796 947 527 947 c 0
 298 947 167 780 153 543 c 1
EndSplineSet
Substitution2: "'smcp' Lowercase to Small Capitals in Latin lookup 0 subtable" uni1D07
EndChar

StartChar: eight
Encoding: 56 56 107
Width: 1051
GlyphClass: 2
Flags: HMW
LayerCount: 2
Fore
SplineSet
527 1342 m 4
 735 1342 875 1208 875 1012 c 4
 875 870 802 747 683 692 c 5
 844 621 940 485 940 331 c 4
 940 126 773 -12 527 -12 c 4
 280 -12 111 128 111 335 c 4
 111 490 207 626 366 693 c 5
 248 748 175 870 175 1011 c 4
 175 1207 318 1342 527 1342 c 4
527 1289 m 4
 351 1289 235 1175 235 1003 c 4
 235 828 351 713 526 713 c 4
 701 713 815 828 815 1003 c 4
 815 1176 701 1289 527 1289 c 4
522 661 m 4
 319 661 173 521 173 329 c 4
 173 148 304 40 526 40 c 4
 748 40 880 148 880 327 c 4
 880 518 727 661 522 661 c 4
EndSplineSet
Substitution2: "'onum' Oldstyle Figures lookup 23 subtable" eight.onum
Substitution2: "'tnum' Tabular Numbers lookup 22 subtable" eight.tnum
Substitution2: "'sinf' Scientific Inferiors lookup 20 subtable" uni2088
Substitution2: "'sups' Superscript lookup 0 subtable" uni2078
Substitution2: "'subs' Subscript lookup 0 subtable" uni2088
Substitution2: "'smcp' Lowercase to Small Capitals in Latin lookup 0 subtable" eight.SC
EndChar

StartChar: eth
Encoding: 240 240 109
Width: 1073
GlyphClass: 2
Flags: HMW
LayerCount: 2
Fore
SplineSet
537 947 m 256
 270 947 155 750 155 495 c 256
 155 240 270 42 537 42 c 256
 804 42 918 240 918 495 c 256
 918 750 804 947 537 947 c 256
537 999 m 256
 688 999 817 946 897 785 c 257
 823 978 689 1162 559 1273 c 257
 355 1104 l 257
 322 1145 l 257
 520 1305 l 257
 464 1353 390 1390 329 1418 c 257
 352 1465 l 257
 408 1439 487 1399 565 1339 c 257
 741 1482 l 257
 772 1443 l 257
 597 1308 l 257
 828 1108 978 779 978 502 c 256
 978 186 820 -11 537 -11 c 256
 254 -11 95 184 95 495 c 256
 95 806 254 999 537 999 c 256
EndSplineSet
EndChar

StartChar: exclam
Encoding: 33 33 110
Width: 642
GlyphClass: 2
Flags: HMW
LayerCount: 2
Fore
SplineSet
352 378 m 257
 290 378 l 257
 290 1331 l 257
 352 1331 l 257
 352 378 l 257
EndSplineSet
Refer: 160 46 N 1 0 0 1 33 0 2
Substitution2: "'tnum' Tabular Numbers lookup 22 subtable" exclam.tnum
EndChar

StartChar: f
Encoding: 102 102 112
Width: 718
GlyphClass: 2
Flags: HMW
LayerCount: 2
Back
SplineSet
665 1394 m 257
 653 1346 l 257
 629 1351 585 1357 542 1357 c 0
 418 1357 345 1300 345 1173 c 258
 345 0 l 257
 285 0 l 257
 285 1176 l 258
 285 1340 397 1411 543 1411 c 0
 585 1411 627 1404 665 1394 c 257
EndSplineSet
Fore
SplineSet
708 1360 m 1
 678 1318 l 1
 655 1340 606 1357 542 1357 c 0
 418 1357 345 1300 345 1173 c 258
 345 0 l 257
 285 0 l 257
 285 1176 l 258
 285 1340 396 1411 542 1411 c 0
 616 1411 675 1389 708 1360 c 1
EndSplineSet
Refer: 313 57354 N 1 0 0 1 -24 441 2
Substitution2: "'smcp' Lowercase to Small Capitals in Latin lookup 0 subtable" uniA730
EndChar

StartChar: five
Encoding: 53 53 114
Width: 1017
GlyphClass: 2
Flags: HMW
LayerCount: 2
Fore
SplineSet
117 348 m 261
 178 348 l 261
 178 158 301 42 508 42 c 260
 708 42 841 167 841 427 c 260
 841 671 739 828 508 828 c 260
 386 828 294 783 188 689 c 261
 137 715 l 261
 187 1331 l 261
 912 1331 l 261
 912 1278 l 261
 243 1278 l 261
 201 758 l 261
 283 828 384 882 509 882 c 260
 773 882 901 701 901 427 c 260
 901 141 739 -11 504 -11 c 260
 277 -11 117 130 117 348 c 261
EndSplineSet
Substitution2: "'onum' Oldstyle Figures lookup 23 subtable" five.onum
Substitution2: "'tnum' Tabular Numbers lookup 22 subtable" five.tnum
Substitution2: "'sinf' Scientific Inferiors lookup 20 subtable" uni2085
Substitution2: "'sups' Superscript lookup 0 subtable" uni2075
Substitution2: "'subs' Subscript lookup 0 subtable" uni2085
Substitution2: "'smcp' Lowercase to Small Capitals in Latin lookup 0 subtable" five.SC
EndChar

StartChar: four
Encoding: 52 52 115
Width: 1135
GlyphClass: 2
Flags: HMW
LayerCount: 2
Fore
SplineSet
778 374 m 257
 778 1257 l 257
 165 374 l 257
 778 374 l 257
778 318 m 257
 106 318 l 257
 106 376 l 257
 770 1331 l 257
 837 1331 l 257
 837 374 l 257
 1083 374 l 257
 1083 318 l 257
 837 318 l 257
 837 0 l 257
 778 0 l 257
 778 318 l 257
EndSplineSet
Substitution2: "'onum' Oldstyle Figures lookup 23 subtable" four.onum
Substitution2: "'tnum' Tabular Numbers lookup 22 subtable" four.tnum
Substitution2: "'sinf' Scientific Inferiors lookup 20 subtable" uni2084
Substitution2: "'sups' Superscript lookup 0 subtable" uni2074
Substitution2: "'subs' Subscript lookup 0 subtable" uni2084
Substitution2: "'smcp' Lowercase to Small Capitals in Latin lookup 0 subtable" four.SC
EndChar

StartChar: g
Encoding: 103 103 116
Width: 1069
GlyphClass: 2
Flags: HMW
LayerCount: 2
Back
SplineSet
95 496 m 0
 95 805 263 1001 495 1001 c 0
 632 1001 771 932 868 794 c 1
 836 765 l 1
 752 884 622 948 500 948 c 0
 297 948 156 778 156 496 c 0
 156 213 297 43 500 43 c 0
 622 43 752 107 836 226 c 1
 868 197 l 1
 771 59 632 -9 495 -9 c 0
 263 -9 95 186 95 496 c 0
896 -176 m 17
 896 -386 723 -487 510 -487 c 0
 297 -487 126 -386 126 -176 c 1
 186 -176 l 1
 186 -353 329 -435 510 -435 c 0
 691 -435 836 -353 836 -176 c 9
 836 777 l 2
 836 921 907 990 1043 990 c 1
 1042 937 l 1
 928 937 896 880 896 773 c 2
 896 -176 l 17
EndSplineSet
Fore
SplineSet
510 -487 m 0
 297 -487 126 -386 126 -176 c 1
 186 -176 l 1
 186 -353 329 -435 510 -435 c 0
 691 -435 836 -353 836 -176 c 2
 836 990 l 25
 896 990 l 25
 896 -176 l 2
 896 -386 723 -487 510 -487 c 0
EndSplineSet
Refer: 318 57359 N -1 0 0 -1 1111 990 2
Substitution2: "'smcp' Lowercase to Small Capitals in Latin lookup 0 subtable" uni0262
EndChar

StartChar: germandbls
Encoding: 223 223 117
Width: 1217
GlyphClass: 2
Flags: HMW
LayerCount: 2
Fore
SplineSet
474 0 m 257
 482 52 l 257
 538 46 597 42 651 42 c 0
 877 42 1029 124 1029 248 c 256
 1029 369 948 434 860 492 c 256
 769 552 672 634 672 751 c 256
 672 836 715 902 768 962 c 256
 831 1033 869 1108 869 1230 c 256
 869 1384 780 1524 568 1524 c 256
 352 1524 262 1387 262 1190 c 258
 262 0 l 257
 203 0 l 257
 203 1190 l 258
 203 1396 298 1578 568 1578 c 256
 831 1578 934 1398 934 1235 c 256
 934 1112 897 1027 829 950 c 256
 764 879 724 831 724 757 c 256
 724 653 810 592 904 530 c 256
 995 471 1089 387 1089 248 c 256
 1089 71 871 -11 628 -11 c 0
 577 -11 525 -8 474 0 c 257
EndSplineSet
EndChar

StartChar: grave
Encoding: 96 96 118
Width: 580
GlyphClass: 2
Flags: HMW
LayerCount: 2
Fore
SplineSet
430 1131 m 257
 357 1131 l 257
 150 1456 l 257
 233 1456 l 257
 430 1131 l 257
EndSplineSet
EndChar

StartChar: greater
Encoding: 62 62 119
Width: 717
GlyphClass: 2
Flags: HMW
LayerCount: 2
Back
SplineSet
488 623 m 4
 488 462 336 299 140 144 c 261
 106 179 l 261
 270 310 433 462 433 623 c 4
 433 784 270 934 106 1065 c 261
 140 1102 l 261
 336 947 488 784 488 623 c 4
EndSplineSet
Fore
SplineSet
140 178 m 257
 100 217 l 257
 545 622 l 257
 100 1027 l 257
 140 1066 l 257
 617 622 l 257
 140 178 l 257
EndSplineSet
EndChar

StartChar: h
Encoding: 104 104 122
Width: 1096
GlyphClass: 2
Flags: HMW
LayerCount: 2
Fore
SplineSet
234 0 m 257
 175 0 l 257
 175 1394 l 257
 234 1394 l 257
 234 0 l 257
EndSplineSet
Refer: 316 57357 N 1 0 0 1 -19 0 2
Substitution2: "'smcp' Lowercase to Small Capitals in Latin lookup 0 subtable" uni029C
EndChar

StartChar: hyphen
Encoding: 45 45 123
Width: 1122
GlyphClass: 2
Flags: HMW
LayerCount: 2
Fore
SplineSet
972 588 m 257
 972 528 l 257
 150 528 l 257
 150 588 l 257
 972 588 l 257
EndSplineSet
Substitution2: "'tnum' Tabular Numbers lookup 22 subtable" hyphen.tnum
EndChar

StartChar: k
Encoding: 107 107 130
Width: 947
GlyphClass: 2
Flags: HMW
LayerCount: 2
Fore
SplineSet
792 990 m 257
 873 990 l 257
 456 586 l 257
 916 0 l 257
 837 0 l 257
 410 540 l 257
 235 371 l 257
 235 0 l 257
 175 0 l 257
 175 1394 l 257
 235 1394 l 257
 235 459 l 257
 792 990 l 257
EndSplineSet
Substitution2: "'smcp' Lowercase to Small Capitals in Latin lookup 0 subtable" uni1D0B
EndChar

StartChar: l
Encoding: 108 108 131
Width: 410
GlyphClass: 2
Flags: HMW
LayerCount: 2
Fore
SplineSet
235 0 m 257
 175 0 l 257
 175 1394 l 257
 235 1394 l 257
 235 0 l 257
EndSplineSet
Substitution2: "'smcp' Lowercase to Small Capitals in Latin lookup 0 subtable" uni029F
EndChar

StartChar: less
Encoding: 60 60 132
Width: 717
GlyphClass: 2
Flags: HMW
LayerCount: 2
Back
SplineSet
106 623 m 4
 106 784 257 947 453 1102 c 261
 488 1065 l 261
 324 934 161 784 161 623 c 4
 161 462 324 310 488 179 c 261
 453 144 l 261
 257 299 106 462 106 623 c 4
EndSplineSet
Fore
SplineSet
577 1066 m 257
 617 1027 l 257
 172 622 l 257
 617 217 l 257
 577 178 l 257
 100 622 l 257
 577 1066 l 257
EndSplineSet
EndChar

StartChar: logicalnot
Encoding: 172 172 133
Width: 1204
GlyphClass: 2
Flags: HMW
LayerCount: 2
Fore
SplineSet
122 528 m 257
 122 587 l 257
 1013 587 l 257
 1013 274 l 257
 954 274 l 257
 954 528 l 257
 122 528 l 257
EndSplineSet
EndChar

StartChar: m
Encoding: 109 109 134
Width: 1611
GlyphClass: 2
Flags: HMW
LayerCount: 2
Fore
SplineSet
149 990 m 257
 208 990 l 257
 208 680 l 1
 208 0 l 257
 149 0 l 257
 149 990 l 257
EndSplineSet
Refer: 315 57356 N 1 0 0 1 -687 2 2
Refer: 315 57356 N 1 0 0 1 -49 2 2
Substitution2: "'smcp' Lowercase to Small Capitals in Latin lookup 0 subtable" uni1D0D
EndChar

StartChar: macron
Encoding: 175 175 135
Width: 1000
GlyphClass: 2
Flags: HMW
LayerCount: 2
Fore
SplineSet
850 1191 m 257
 850 1131 l 257
 150 1131 l 257
 150 1191 l 257
 850 1191 l 257
EndSplineSet
EndChar

StartChar: mu
Encoding: 181 181 136
Width: 1096
GlyphClass: 2
Flags: HMW
LayerCount: 2
Fore
SplineSet
159 990 m 257
 219 990 l 257
 219 -435 l 257
 159 -435 l 257
 159 990 l 257
EndSplineSet
Refer: 188 117 N 1 0 0 1 0 0 2
EndChar

StartChar: multiply
Encoding: 215 215 137
Width: 936
GlyphClass: 2
Flags: HMW
LayerCount: 2
Fore
SplineSet
763 909 m 257
 805 867 l 257
 512 574 l 257
 805 281 l 257
 762 239 l 257
 470 531 l 257
 176 237 l 257
 133 280 l 257
 427 574 l 257
 133 870 l 257
 174 912 l 257
 470 616 l 257
 763 909 l 257
EndSplineSet
Substitution2: "'tnum' Tabular Numbers lookup 22 subtable" multiply.tnum
EndChar

StartChar: n
Encoding: 110 110 138
Width: 1096
GlyphClass: 2
Flags: HMW
LayerCount: 2
Fore
SplineSet
234 0 m 257
 175 0 l 257
 175 990 l 257
 234 990 l 257
 234 680 l 1
 234 0 l 257
EndSplineSet
Refer: 316 57357 N 1 0 0 1 -19 0 2
Substitution2: "'smcp' Lowercase to Small Capitals in Latin lookup 0 subtable" uni0274
EndChar

StartChar: nine
Encoding: 57 57 139
Width: 1057
GlyphClass: 2
Flags: HMW
LayerCount: 2
Fore
SplineSet
505 539 m 4
 680 539 817 653 873 829 c 5
 864 1102 766 1289 511 1289 c 4
 296 1289 187 1156 187 916 c 4
 187 695 295 539 505 539 c 4
498 -11 m 4
 278 -11 155 145 155 297 c 5
 210 297 l 5
 210 183 291 42 499 42 c 4
 806 42 888 396 878 744 c 5
 821 588 678 486 503 486 c 4
 257 486 127 668 127 908 c 4
 127 1184 263 1342 508 1342 c 4
 774 1342 931 1170 931 729 c 4
 931 280 815 -11 498 -11 c 4
EndSplineSet
Substitution2: "'onum' Oldstyle Figures lookup 23 subtable" nine.onum
Substitution2: "'tnum' Tabular Numbers lookup 22 subtable" nine.tnum
Substitution2: "'sinf' Scientific Inferiors lookup 20 subtable" uni2089
Substitution2: "'sups' Superscript lookup 0 subtable" uni2079
Substitution2: "'subs' Subscript lookup 0 subtable" uni2089
Substitution2: "'smcp' Lowercase to Small Capitals in Latin lookup 0 subtable" nine.SC
EndChar

StartChar: numbersign
Encoding: 35 35 141
Width: 1630
GlyphClass: 2
Flags: HMW
LayerCount: 2
Fore
SplineSet
1100 902 m 257
 670 902 l 257
 546 450 l 257
 975 450 l 257
 1100 902 l 257
418 -16 m 257
 358 -16 l 257
 472 395 l 257
 167 395 l 257
 167 450 l 257
 487 450 l 257
 611 902 l 257
 286 902 l 257
 286 955 l 257
 626 955 l 257
 734 1347 l 257
 794 1347 l 257
 687 955 l 257
 1114 955 l 257
 1223 1347 l 257
 1281 1347 l 257
 1174 955 l 257
 1465 955 l 257
 1465 902 l 257
 1158 902 l 257
 1035 450 l 257
 1345 450 l 257
 1345 395 l 257
 1020 395 l 257
 907 -16 l 257
 845 -16 l 257
 958 395 l 257
 531 395 l 257
 418 -16 l 257
EndSplineSet
Substitution2: "'tnum' Tabular Numbers lookup 22 subtable" numbersign.tnum
EndChar

StartChar: o
Encoding: 111 111 142
Width: 1074
GlyphClass: 2
Flags: HMW
LayerCount: 2
Fore
SplineSet
537 947 m 0
 312 947 155 804 155 495 c 0
 155 186 312 42 537 42 c 0
 762 42 919 186 919 495 c 0
 919 804 762 947 537 947 c 0
537 999 m 0
 797 999 979 833 979 495 c 0
 979 156 797 -11 537 -11 c 0
 277 -11 95 156 95 495 c 0
 95 833 277 999 537 999 c 0
EndSplineSet
Substitution2: "'smcp' Lowercase to Small Capitals in Latin lookup 0 subtable" uni1D0F
EndChar

StartChar: one
Encoding: 49 49 148
Width: 651
GlyphClass: 2
Flags: HMW
LayerCount: 2
Fore
SplineSet
412 1118 m 1
 353 1023 252 999 50 999 c 1
 50 1053 l 1
 313 1053 412 1097 412 1331 c 1
 471 1331 l 1
 471 0 l 1
 412 0 l 1
 412 1118 l 1
EndSplineSet
Substitution2: "'onum' Oldstyle Figures lookup 23 subtable" one.onum
Substitution2: "'tnum' Tabular Numbers lookup 22 subtable" one.tnum
Substitution2: "'sinf' Scientific Inferiors lookup 20 subtable" uni2081
Substitution2: "'sups' Superscript lookup 0 subtable" uni00B9
Substitution2: "'subs' Subscript lookup 0 subtable" uni2081
Substitution2: "'smcp' Lowercase to Small Capitals in Latin lookup 0 subtable" one.SC
EndChar

StartChar: ordfeminine
Encoding: 170 170 151
Width: 894
GlyphClass: 2
Flags: HMW
LayerCount: 2
Fore
SplineSet
592 1488 m 1
 592 1590 l 2
 592 1687 509 1732 406 1732 c 0
 298 1732 224 1691 224 1588 c 1
 168 1588 l 1
 168 1725 273 1782 406 1782 c 0
 534 1782 648 1722 648 1590 c 2
 648 1277 l 2
 648 1206 669 1183 744 1183 c 1
 744 1131 l 1
 661 1131 613 1160 598 1228 c 1
 552 1176 470 1121 349 1121 c 0
 228 1121 150 1185 150 1301 c 0
 150 1438 257 1504 409 1504 c 0
 474 1504 536 1500 592 1488 c 1
592 1436 m 1
 540 1448 484 1452 409 1452 c 0
 277 1452 206 1394 206 1303 c 0
 206 1209 260 1173 360 1173 c 0
 487 1173 561 1253 592 1298 c 1
 592 1436 l 1
EndSplineSet
EndChar

StartChar: p
Encoding: 112 112 155
Width: 1069
GlyphClass: 2
Flags: HMW
LayerCount: 2
Fore
SplineSet
175 990 m 261
 235 990 l 261
 235 -477 l 261
 175 -477 l 261
 175 990 l 261
EndSplineSet
Refer: 318 57359 N 1 0 0 1 -40 0 2
Substitution2: "'smcp' Lowercase to Small Capitals in Latin lookup 0 subtable" uni1D18
EndChar

StartChar: paragraph
Encoding: 182 182 156
Width: 1322
GlyphClass: 2
Flags: HMW
LayerCount: 2
Fore
SplineSet
1111 -477 m 257
 1050 -477 l 257
 1050 1278 l 257
 844 1278 l 257
 844 -477 l 257
 784 -477 l 257
 784 406 l 257
 544 406 l 258
 297 406 106 587 106 869 c 256
 106 1151 297 1331 544 1331 c 258
 1111 1331 l 257
 1111 -477 l 257
EndSplineSet
EndChar

StartChar: parenleft
Encoding: 40 40 157
Width: 656
GlyphClass: 2
Flags: HMW
LayerCount: 2
Fore
SplineSet
476 1442 m 1
 526 1411 l 1
 333 1149 239 833 239 444 c 0
 239 56 332 -257 526 -520 c 1
 476 -552 l 1
 275 -280 180 41 180 444 c 0
 180 847 276 1171 476 1442 c 1
EndSplineSet
Substitution2: "'tnum' Tabular Numbers lookup 22 subtable" parenleft.tnum
EndChar

StartChar: parenright
Encoding: 41 41 158
Width: 656
GlyphClass: 2
Flags: HMW
LayerCount: 2
Fore
SplineSet
180 -552 m 1
 130 -521 l 1
 323 -259 417 57 417 446 c 0
 417 834 324 1147 130 1410 c 1
 180 1442 l 1
 381 1170 476 849 476 446 c 0
 476 43 380 -281 180 -552 c 1
EndSplineSet
Substitution2: "'tnum' Tabular Numbers lookup 22 subtable" parenright.tnum
EndChar

StartChar: period
Encoding: 46 46 160
Width: 576
GlyphClass: 2
Flags: HMW
LayerCount: 2
Fore
SplineSet
200 78 m 0
 200 127 235 165 288 165 c 0
 341 165 376 127 376 78 c 0
 376 29 341 -11 288 -11 c 0
 235 -11 200 29 200 78 c 0
EndSplineSet
Substitution2: "'tnum' Tabular Numbers lookup 22 subtable" period.tnum
EndChar

StartChar: periodcentered
Encoding: 183 183 161
Width: 500
GlyphClass: 2
Flags: HMW
LayerCount: 2
Fore
SplineSet
163 666 m 128
 163 715 198 753 251 753 c 128
 304 753 339 715 339 666 c 128
 339 617 304 577 251 577 c 128
 198 577 163 617 163 666 c 128
EndSplineSet
EndChar

StartChar: plus
Encoding: 43 43 162
Width: 1122
GlyphClass: 2
Flags: HMW
LayerCount: 2
Fore
SplineSet
972 593 m 257
 972 532 l 257
 591 532 l 257
 591 151 l 257
 531 151 l 257
 531 532 l 257
 150 532 l 257
 150 593 l 257
 531 593 l 257
 531 974 l 257
 591 974 l 257
 591 593 l 257
 972 593 l 257
EndSplineSet
Substitution2: "'tnum' Tabular Numbers lookup 22 subtable" plus.tnum
EndChar

StartChar: q
Encoding: 113 113 164
Width: 1070
GlyphClass: 2
Flags: HMW
LayerCount: 2
Fore
SplineSet
836 990 m 257
 897 990 l 257
 897 -477 l 257
 836 -477 l 257
 836 990 l 257
EndSplineSet
Refer: 318 57359 N -1 0 0 -1 1111 990 2
Substitution2: "'smcp' Lowercase to Small Capitals in Latin lookup 0 subtable" uniA7EE
EndChar

StartChar: question
Encoding: 63 63 165
Width: 1055
GlyphClass: 2
Flags: HMW
LayerCount: 2
Fore
SplineSet
472 -11 m 0
 419 -11 384 29 384 78 c 0
 384 127 419 165 472 165 c 0
 525 165 560 127 560 78 c 0
 560 29 525 -11 472 -11 c 0
251 877 m 1
 199 866 l 1
 187 905 180 944 180 983 c 0
 180 1159 304 1299 512 1299 c 256
 749 1299 875 1138 875 966 c 256
 875 812 786 725 685 646 c 256
 587 569 509 501 509 378 c 257
 444 378 l 257
 444 538 552 621 659 703 c 256
 753 774 809 843 809 956 c 256
 809 1124 696 1244 515 1244 c 256
 354 1244 241 1144 241 993 c 0
 241 956 242 910 251 877 c 1
EndSplineSet
Substitution2: "'tnum' Tabular Numbers lookup 22 subtable" question.tnum
EndChar

StartChar: quoteleft
Encoding: 8216 8216 170
Width: 534
GlyphClass: 2
Flags: HMW
LayerCount: 2
Back
SplineSet
366 1420 m 256
 366 1349 297 1299 219 1340 c 257
 220 1233 272 1153 334 1091 c 257
 292 1052 l 257
 228 1116 168 1217 168 1363 c 256
 168 1471 199 1520 273 1520 c 256
 327 1520 366 1477 366 1420 c 256
EndSplineSet
Fore
SplineSet
263 1510 m 1
 354 1113 l 1
 308 1097 l 1
 180 1510 l 1
 263 1510 l 1
EndSplineSet
EndChar

StartChar: quoteright
Encoding: 8217 8217 171
Width: 534
GlyphClass: 2
Flags: HMW
LayerCount: 2
Back
SplineSet
168 1477 m 256
 168 1534 207 1577 261 1577 c 256
 335 1577 366 1528 366 1420 c 256
 366 1274 307 1173 243 1109 c 257
 202 1148 l 257
 264 1210 316 1290 317 1397 c 257
 239 1356 168 1406 168 1477 c 256
EndSplineSet
Fore
SplineSet
271 1510 m 1
 354 1510 l 1
 226 1097 l 1
 180 1113 l 1
 271 1510 l 1
EndSplineSet
EndChar

StartChar: quotesingle
Encoding: 39 39 172
Width: 444
GlyphClass: 2
Flags: HMW
LayerCount: 2
Fore
SplineSet
180 1331 m 257
 264 1331 l 257
 254 920 l 257
 190 920 l 257
 180 1331 l 257
EndSplineSet
EndChar

StartChar: r
Encoding: 114 114 173
Width: 755
GlyphClass: 2
Flags: HMW
LayerCount: 2
Fore
SplineSet
175 990 m 257
 235 990 l 257
 235 540 l 1
 235 0 l 257
 175 0 l 257
 175 990 l 257
EndSplineSet
Refer: 317 57358 N 1 0 0 1 0 0 2
Substitution2: "'smcp' Lowercase to Small Capitals in Latin lookup 0 subtable" uni0280
EndChar

StartChar: registered
Encoding: 174 174 174
Width: 1967
GlyphClass: 2
Flags: HMW
LayerCount: 2
Fore
SplineSet
218 775 m 256
 218 350 525 13 984 13 c 256
 1443 13 1750 350 1750 775 c 256
 1750 1200 1443 1538 984 1538 c 256
 525 1538 218 1200 218 775 c 256
159 775 m 256
 159 1221 472 1591 984 1591 c 256
 1496 1591 1809 1221 1809 775 c 256
 1809 328 1496 -40 984 -40 c 256
 472 -40 159 328 159 775 c 256
1291 419 m 1
 1230 419 l 1
 1061 628 l 1
 1043 626 1025 625 1006 625 c 2
 811 625 l 1
 811 417 l 1
 756 417 l 1
 756 1127 l 1
 1006 1127 l 2
 1170 1127 1279 1020 1279 875 c 0
 1279 765 1215 677 1111 641 c 1
 1291 419 l 1
811 675 m 1
 1006 675 l 2
 1129 675 1227 755 1227 875 c 0
 1227 996 1130 1079 1006 1079 c 2
 811 1079 l 1
 811 675 l 1
EndSplineSet
EndChar

StartChar: s
Encoding: 115 115 175
Width: 932
GlyphClass: 2
Flags: HMW
LayerCount: 2
Back
SplineSet
807 898 m 1
 773 850 l 1
 707 902 624 947 494 947 c 0
 332 947 199 875 199 722 c 0
 199 583 337 552 496 522 c 0
 678 488 824 442 824 266 c 0
 824 71 676 -11 457 -11 c 0
 310 -11 188 30 108 77 c 1
 135 126 l 1
 207 84 321 42 458 42 c 0
 638 42 769 100 769 261 c 0
 769 403 625 433 465 466 c 0
 282 504 142 546 142 717 c 0
 142 899 295 999 490 999 c 0
 631 999 741 951 807 898 c 1
EndSplineSet
Fore
SplineSet
480 999 m 0
 693 999 824 891 824 715 c 1
 764 715 l 1
 764 860 658 947 481 947 c 0
 310 947 203 865 203 732 c 0
 203 625 272 574 482 523 c 0
 733 462 826 391 826 257 c 0
 826 94 690 -10 476 -10 c 0
 256 -10 118 100 118 274 c 1
 178 274 l 1
 178 131 293 42 477 42 c 0
 656 42 769 125 769 258 c 0
 769 361 701 411 493 460 c 0
 238 520 146 593 146 733 c 0
 146 897 274 999 480 999 c 0
EndSplineSet
Substitution2: "'smcp' Lowercase to Small Capitals in Latin lookup 0 subtable" uniA731
EndChar

StartChar: section
Encoding: 167 167 176
Width: 922
GlyphClass: 2
Flags: HMW
LayerCount: 2
Fore
SplineSet
785 195 m 0
 785 6 626 -74 444 -74 c 0
 319 -74 198 -34 122 14 c 1
 150 63 l 1
 216 22 329 -22 444 -22 c 0
 592 -22 726 43 726 194 c 0
 726 331 600 365 460 402 c 0
 288 447 152 494 152 659 c 0
 152 795 242 880 350 916 c 1
 243 956 169 1013 169 1135 c 0
 169 1320 337 1413 488 1413 c 0
 608 1413 712 1368 785 1306 c 1
 749 1263 l 1
 684 1318 608 1359 487 1359 c 0
 361 1359 228 1287 228 1139 c 0
 228 1014 331 974 491 935 c 0
 646 897 802 857 802 671 c 0
 802 535 718 455 605 422 c 1
 705 386 785 327 785 195 c 0
488 455 m 1
 624 463 744 529 744 670 c 0
 744 807 615 844 458 883 c 1
 335 879 211 807 211 663 c 0
 211 532 324 495 488 455 c 1
EndSplineSet
EndChar

StartChar: seven
Encoding: 55 55 178
Width: 1124
GlyphClass: 2
Flags: HMW
LayerCount: 2
Fore
SplineSet
1019 1281 m 261
 782 973 541 491 541 0 c 261
 480 0 l 261
 480 486 730 1001 957 1278 c 5
 122 1278 l 261
 122 1331 l 261
 1004 1331 l 261
 1019 1281 l 261
EndSplineSet
Substitution2: "'onum' Oldstyle Figures lookup 23 subtable" seven.onum
Substitution2: "'tnum' Tabular Numbers lookup 22 subtable" seven.tnum
Substitution2: "'sinf' Scientific Inferiors lookup 20 subtable" uni2087
Substitution2: "'sups' Superscript lookup 0 subtable" uni2077
Substitution2: "'subs' Subscript lookup 0 subtable" uni2087
Substitution2: "'smcp' Lowercase to Small Capitals in Latin lookup 0 subtable" seven.SC
EndChar

StartChar: six
Encoding: 54 54 179
Width: 1057
GlyphClass: 2
Flags: HMW
LayerCount: 2
Back
SplineSet
572 792 m 0
 376 792 271 700 183 588 c 1
 183 262 266 42 543 42 c 0
 760 42 871 190 871 426 c 0
 871 636 784 792 572 792 c 0
574 845 m 0
 821 845 931 662 931 427 c 0
 931 162 792 -11 535 -11 c 0
 230 -11 127 230 127 608 c 0
 127 1019 216 1343 573 1343 c 0
 714 1343 828 1275 895 1197 c 1
 858 1155 l 1
 800 1231 702 1289 571 1289 c 0
 279 1289 196 1024 180 662 c 1
 245 750 394 845 574 845 c 0
EndSplineSet
Fore
SplineSet
553 792 m 0
 378 792 241 678 185 502 c 1
 194 229 292 42 547 42 c 0
 762 42 871 175 871 415 c 0
 871 636 763 792 553 792 c 0
560 1342 m 0
 780 1342 903 1186 903 1034 c 1
 848 1034 l 1
 848 1148 767 1289 559 1289 c 0
 252 1289 170 935 180 587 c 1
 237 743 380 845 555 845 c 0
 801 845 931 663 931 423 c 0
 931 147 795 -11 550 -11 c 0
 284 -11 127 161 127 602 c 0
 127 1051 243 1342 560 1342 c 0
EndSplineSet
Substitution2: "'onum' Oldstyle Figures lookup 23 subtable" six.onum
Substitution2: "'tnum' Tabular Numbers lookup 22 subtable" six.tnum
Substitution2: "'sinf' Scientific Inferiors lookup 20 subtable" uni2086
Substitution2: "'sups' Superscript lookup 0 subtable" uni2076
Substitution2: "'subs' Subscript lookup 0 subtable" uni2086
Substitution2: "'smcp' Lowercase to Small Capitals in Latin lookup 0 subtable" six.SC
EndChar

StartChar: slash
Encoding: 47 47 180
Width: 1181
GlyphClass: 2
Flags: HMW
LayerCount: 2
Fore
SplineSet
914 1331 m 257
 970 1331 l 257
 270 0 l 257
 212 0 l 257
 914 1331 l 257
EndSplineSet
Substitution2: "'tnum' Tabular Numbers lookup 22 subtable" slash.tnum
Substitution2: "'smcp' Lowercase to Small Capitals in Latin lookup 0 subtable" slash.sc
EndChar

StartChar: sterling
Encoding: 163 163 182
Width: 1226
GlyphClass: 2
Flags: HMW
LayerCount: 2
Fore
SplineSet
647 1289 m 256
 524 1289 419 1232 419 1049 c 258
 419 271 l 258
 419 188 396 110 340 53 c 257
 1089 53 l 257
 1089 0 l 257
 139 0 l 257
 139 52 l 257
 284 52 358 122 358 271 c 258
 358 1054 l 258
 358 1249 478 1342 647 1342 c 256
 853 1342 931 1203 931 1085 c 257
 873 1085 l 257
 873 1188 803 1289 647 1289 c 256
EndSplineSet
Refer: 313 57354 N 1 0 0 1 19 8 2
EndChar

StartChar: t
Encoding: 116 116 183
Width: 742
GlyphClass: 2
Flags: HMW
LayerCount: 2
Fore
SplineSet
637 55 m 257
 648 6 l 257
 610 -4 568 -10 526 -10 c 0
 380 -10 269 59 269 223 c 258
 269 1278 l 257
 329 1278 l 257
 329 227 l 258
 329 100 401 43 525 43 c 0
 568 43 613 50 637 55 c 257
EndSplineSet
Refer: 313 57354 N 1 0 0 1 -24 441 2
Substitution2: "'smcp' Lowercase to Small Capitals in Latin lookup 0 subtable" uni1D1B
EndChar

StartChar: three
Encoding: 51 51 185
Width: 1120
GlyphClass: 2
Flags: HMW
LayerCount: 2
Fore
SplineSet
122 357 m 1
 182 357 l 1
 182 163 330 42 568 42 c 0
 803 42 935 160 935 369 c 0
 935 578 803 685 548 685 c 2
 484 685 l 1
 484 741 l 1
 548 741 l 2
 775 741 892 830 892 1004 c 0
 892 1182 770 1289 567 1289 c 0
 369 1289 247 1187 247 1020 c 1
 186 1020 l 1
 186 1216 335 1342 564 1342 c 0
 800 1342 955 1208 955 1006 c 0
 955 869 884 772 743 713 c 1
 918 642 998 532 998 366 c 0
 998 131 837 -11 570 -11 c 0
 299 -11 122 135 122 357 c 1
EndSplineSet
Substitution2: "'onum' Oldstyle Figures lookup 23 subtable" three.onum
Substitution2: "'tnum' Tabular Numbers lookup 22 subtable" three.tnum
Substitution2: "'sinf' Scientific Inferiors lookup 20 subtable" uni2083
Substitution2: "'sups' Superscript lookup 0 subtable" uni00B3
Substitution2: "'subs' Subscript lookup 0 subtable" uni2083
Substitution2: "'smcp' Lowercase to Small Capitals in Latin lookup 0 subtable" three.SC
EndChar

StartChar: two
Encoding: 50 50 187
Width: 1054
GlyphClass: 2
Flags: HMW
LayerCount: 2
Fore
SplineSet
149 974 m 257
 149 1217 325 1342 545 1342 c 256
 772 1342 949 1200 949 949 c 256
 949 744 815 641 593 503 c 0
 391 377 173 208 172 53 c 257
 969 53 l 257
 969 0 l 257
 117 0 l 257
 116 10 116 19 116 28 c 0
 116 265 412 450 571 549 c 0
 784 681 899 773 899 956 c 256
 899 1167 746 1289 543 1289 c 256
 356 1289 199 1187 199 974 c 257
 149 974 l 257
EndSplineSet
Substitution2: "'onum' Oldstyle Figures lookup 23 subtable" two.onum
Substitution2: "'tnum' Tabular Numbers lookup 22 subtable" two.tnum
Substitution2: "'sinf' Scientific Inferiors lookup 20 subtable" uni2082
Substitution2: "'sups' Superscript lookup 0 subtable" uni00B2
Substitution2: "'subs' Subscript lookup 0 subtable" uni2082
Substitution2: "'smcp' Lowercase to Small Capitals in Latin lookup 0 subtable" two.SC
EndChar

StartChar: u
Encoding: 117 117 188
Width: 1096
GlyphClass: 2
Flags: HMW
LayerCount: 2
Fore
SplineSet
862 990 m 257
 921 990 l 257
 921 0 l 257
 862 0 l 257
 862 310 l 1
 862 990 l 257
EndSplineSet
Refer: 316 57357 N -1 0 0 -1 1115 990 2
Substitution2: "'smcp' Lowercase to Small Capitals in Latin lookup 0 subtable" uni1D1C
EndChar

StartChar: underscore
Encoding: 95 95 193
Width: 800
GlyphClass: 2
Flags: HMW
LayerCount: 2
Fore
SplineSet
700 0 m 257
 700 -59 l 257
 100 -59 l 257
 100 0 l 257
 700 0 l 257
EndSplineSet
EndChar

StartChar: uni00AD
Encoding: 173 173 195
Width: 1120
GlyphClass: 2
Flags: HMW
LayerCount: 2
Fore
SplineSet
972 587 m 257
 972 528 l 257
 149 528 l 257
 149 587 l 257
 972 587 l 257
EndSplineSet
EndChar

StartChar: uni00B2
Encoding: 178 178 196
Width: 720
GlyphClass: 2
Flags: HMW
LayerCount: 2
Fore
SplineSet
150 1131 m 257
 150 1184 l 257
 451 1468 l 258
 485 1500 504 1526 504 1588 c 256
 504 1685 432 1731 353 1731 c 256
 276 1731 202 1685 202 1590 c 257
 150 1590 l 257
 150 1720 255 1782 353 1782 c 256
 452 1782 556 1720 556 1588 c 256
 556 1510 525 1467 487 1432 c 258
 220 1183 l 257
 570 1183 l 257
 570 1131 l 257
 150 1131 l 257
EndSplineSet
EndChar

StartChar: uni00B3
Encoding: 179 179 197
Width: 734
GlyphClass: 2
Flags: HMW
LayerCount: 2
Fore
SplineSet
234 1619 m 1
 179 1619 l 1
 179 1722 261 1782 370 1782 c 0
 483 1782 565 1712 565 1610 c 0
 565 1551 520 1488 452 1466 c 1
 519 1446 584 1383 584 1301 c 0
 584 1181 496 1121 371 1121 c 0
 240 1121 150 1194 150 1306 c 1
 204 1306 l 1
 204 1216 275 1172 371 1172 c 0
 468 1172 529 1210 529 1303 c 0
 529 1402 454 1440 351 1440 c 2
 308 1440 l 1
 308 1492 l 1
 351 1492 l 2
 439 1492 510 1527 510 1609 c 0
 510 1688 453 1731 370 1731 c 0
 290 1731 234 1695 234 1619 c 1
EndSplineSet
EndChar

StartChar: uni00B9
Encoding: 185 185 198
Width: 568
GlyphClass: 2
Flags: HMW
LayerCount: 2
Fore
SplineSet
150 1555 m 257
 150 1606 l 257
 366 1606 l 257
 366 1772 l 257
 418 1772 l 257
 418 1131 l 257
 366 1131 l 257
 366 1555 l 257
 150 1555 l 257
EndSplineSet
EndChar

StartChar: uni0237
Encoding: 567 567 199
Width: 432
GlyphClass: 2
Flags: HMW
LayerCount: 2
Fore
SplineSet
-137 -471 m 257
 -125 -422 l 257
 -101 -427 -57 -433 -14 -433 c 0
 110 -433 182 -376 182 -249 c 258
 182 990 l 257
 243 990 l 257
 243 -253 l 258
 243 -417 131 -487 -15 -487 c 0
 -57 -487 -99 -481 -137 -471 c 257
EndSplineSet
EndChar

StartChar: uni060C
Encoding: 1548 1548 200
Width: 622
GlyphClass: 2
Flags: HMW
LayerCount: 2
Back
SplineSet
272 256.749023438 m 0
 272 202.308958212 308.882958763 186 432 186 c 1
 407 -11 l 1
 363 -11 l 2
 243.27115262 -11 191 49.6762404729 191 188.657226562 c 0
 191 327.485637446 243.156492765 436.269155109 370 562 c 1
 414 514 l 1
 332.363510823 435.729963985 272 326.37382238 272 256.749023438 c 0
EndSplineSet
Fore
SplineSet
267 194 m 1
 359 218 422 188 422 100 c 0
 422 32 385 -11 318 -11 c 0
 242 -11 200 48 200 165 c 0
 200 328 256 449 370 562 c 1
 414 514 l 1
 317 421 267 314 267 194 c 1
EndSplineSet
EndChar

StartChar: uni061F
Encoding: 1567 1567 203
Width: 1055
GlyphClass: 2
Flags: HMW
LayerCount: 2
Fore
SplineSet
562 -11 m 0
 509 -11 474 29 474 78 c 0
 474 127 509 165 562 165 c 0
 615 165 650 127 650 78 c 0
 650 29 615 -11 562 -11 c 0
805 877 m 1
 814 910 815 956 815 993 c 0
 815 1144 702 1244 541 1244 c 256
 360 1244 247 1124 247 956 c 256
 247 843 301 774 396 703 c 256
 504 622 613 538 613 378 c 257
 547 378 l 257
 547 501 469 569 371 646 c 256
 270 725 180 812 180 966 c 256
 180 1138 308 1299 545 1299 c 256
 753 1299 875 1159 875 983 c 0
 875 944 870 905 858 866 c 1
 805 877 l 1
EndSplineSet
Substitution2: "'tnum' Tabular Numbers lookup 22 subtable" uni061F.tnum
EndChar

StartChar: uni0660
Encoding: 1632 1632 255
Width: 622
VWidth: 1728
GlyphClass: 2
Flags: HMW
LayerCount: 2
Fore
SplineSet
310 610 m 256
 150 449 l 256
 310 287 l 256
 472 449 l 256
 310 610 l 256
EndSplineSet
PairPos2: "'kern' Horizontal Kerning in Arabic lookup 7 subtable" uni0662 dx=-111 dy=0 dh=-111 dv=0 dx=0 dy=0 dh=0 dv=0
PairPos2: "'kern' Horizontal Kerning in Arabic lookup 7 subtable" uni0667 dx=-89 dy=0 dh=-89 dv=0 dx=0 dy=0 dh=0 dv=0
PairPos2: "'kern' Horizontal Kerning in Arabic lookup 7 subtable" uni0661 dx=45 dy=0 dh=45 dv=0 dx=0 dy=0 dh=0 dv=0
Substitution2: "'tnum' Tabular Numbers lookup 22 subtable" uni0660.tnum
EndChar

StartChar: uni0661
Encoding: 1633 1633 256
Width: 617
GlyphClass: 2
Flags: HMW
LayerCount: 2
Fore
SplineSet
438 0 m 257
 378 0 l 257
 378 499 327 866 138 1311 c 257
 199 1342 l 257
 384 892 438 505 438 0 c 257
EndSplineSet
PairPos2: "'kern' Horizontal Kerning in Arabic lookup 7 subtable" uni0665 dx=-56 dy=0 dh=-56 dv=0 dx=0 dy=0 dh=0 dv=0
Substitution2: "'tnum' Tabular Numbers lookup 22 subtable" uni0661.tnum
EndChar

StartChar: uni0662
Encoding: 1634 1634 257
Width: 1104
GlyphClass: 2
Flags: HMW
LayerCount: 2
Fore
SplineSet
581 839 m 0
 799 839 860 988 879 1234 c 2
 886 1326 l 1
 945 1322 l 1
 926 1053 901 779 577 779 c 0
 482 779 403 816 346 886 c 1
 414 608 438 329 438 0 c 1
 378 0 l 1
 378 499 327 866 138 1311 c 1
 199 1342 l 1
 241 1233 l 2
 351 951 416 839 581 839 c 0
EndSplineSet
Substitution2: "'tnum' Tabular Numbers lookup 22 subtable" uni0662.tnum
EndChar

StartChar: uni0663
Encoding: 1635 1635 258
Width: 1474
GlyphClass: 2
Flags: HMW
LayerCount: 2
Fore
SplineSet
558 839 m 0
 680 839 739 933 760 1090 c 0
 769 1156 776 1228 780 1319 c 257
 844 1314 l 257
 834 1234 825 1147 825 1085 c 256
 825 933 882 839 1036 839 c 256
 1188 839 1230 945 1230 1089 c 0
 1230 1165 1224 1250 1211 1335 c 257
 1266 1344 l 257
 1277 1258 1284 1181 1284 1113 c 0
 1284 900 1219 779 1026 779 c 256
 895 779 788 869 788 1011 c 257
 764 875 685 779 556 779 c 256
 455 779 401 815 346 886 c 1
 414 608 438 329 438 0 c 1
 378 0 l 1
 378 499 327 866 138 1311 c 1
 199 1342 l 1
 240 1235 l 2
 350 951 416 839 558 839 c 0
EndSplineSet
PairPos2: "'kern' Horizontal Kerning in Arabic lookup 7 subtable" uni0668 dx=-56 dy=0 dh=-56 dv=0 dx=0 dy=0 dh=0 dv=0
Substitution2: "'tnum' Tabular Numbers lookup 22 subtable" uni0663.tnum
EndChar

StartChar: uni0664
Encoding: 1636 1636 259
Width: 1051
GlyphClass: 2
Flags: HMW
LayerCount: 2
Fore
SplineSet
544 691 m 257
 361 729 228 789 228 947 c 256
 228 1127 442 1312 713 1342 c 257
 724 1284 l 257
 453 1253 287 1089 287 947 c 256
 287 796 474 731 721 731 c 257
 721 669 l 257
 438 669 219 441 219 265 c 256
 219 80 396 63 582 63 c 258
 861 63 l 257
 861 0 l 257
 548 0 l 258
 374 0 159 32 159 264 c 256
 159 424 295 618 544 691 c 257
EndSplineSet
PairPos2: "'kern' Horizontal Kerning in Arabic lookup 7 subtable" uni0666 dx=56 dy=0 dh=56 dv=0 dx=0 dy=0 dh=0 dv=0
Substitution2: "'tnum' Tabular Numbers lookup 22 subtable" uni0664.tnum
EndChar

StartChar: uni0665
Encoding: 1637 1637 260
Width: 1295
GlyphClass: 2
Flags: HMW
LayerCount: 2
Fore
SplineSet
536 1342 m 257
 793 1125 1105 711 1105 357 c 256
 1105 81 939 -23 658 -23 c 256
 386 -23 191 81 191 354 c 256
 191 630 330 918 613 1192 c 257
 572 1232 537 1265 499 1295 c 257
 536 1342 l 257
653 1155 m 257
 372 891 250 603 250 350 c 256
 250 116 394 38 658 38 c 256
 932 38 1046 112 1046 354 c 256
 1046 615 865 935 653 1155 c 257
EndSplineSet
PairPos2: "'kern' Horizontal Kerning in Arabic lookup 7 subtable" uni0667 dx=-111 dy=0 dh=-111 dv=0 dx=0 dy=0 dh=0 dv=0
PairPos2: "'kern' Horizontal Kerning in Arabic lookup 7 subtable" uni0661 dx=56 dy=0 dh=56 dv=0 dx=0 dy=0 dh=0 dv=0
Substitution2: "'tnum' Tabular Numbers lookup 22 subtable" uni0665.tnum
EndChar

StartChar: uni0666
Encoding: 1638 1638 261
Width: 1146
GlyphClass: 2
Flags: HMW
LayerCount: 2
Fore
SplineSet
159 1269 m 257
 159 1331 l 257
 861 1331 l 257
 904 1291 l 257
 900 1190 897 1092 897 1002 c 256
 897 600 926 337 1020 24 c 257
 962 10 l 257
 868 325 838 599 838 1002 c 256
 838 1087 839 1175 843 1269 c 257
 159 1269 l 257
EndSplineSet
PairPos2: "'kern' Horizontal Kerning in Arabic lookup 7 subtable" uni0668 dx=-222 dy=0 dh=-222 dv=0 dx=0 dy=0 dh=0 dv=0
PairPos2: "'kern' Horizontal Kerning in Arabic lookup 7 subtable" uni066B dx=-167 dy=0 dh=-167 dv=0 dx=0 dy=0 dh=0 dv=0
PairPos2: "'kern' Horizontal Kerning in Arabic lookup 7 subtable" uni0660 dx=-222 dy=0 dh=-222 dv=0 dx=0 dy=0 dh=0 dv=0
PairPos2: "'kern' Horizontal Kerning in Arabic lookup 7 subtable" uni0665 dx=-195 dy=0 dh=-195 dv=0 dx=0 dy=0 dh=0 dv=0
PairPos2: "'kern' Horizontal Kerning in Arabic lookup 7 subtable" uni0664 dx=-56 dy=0 dh=-56 dv=0 dx=0 dy=0 dh=0 dv=0
Substitution2: "'tnum' Tabular Numbers lookup 22 subtable" uni0666.tnum
EndChar

StartChar: uni0667
Encoding: 1639 1639 262
Width: 1363
GlyphClass: 2
Flags: HMW
LayerCount: 2
Fore
SplineSet
1156 1342 m 257
 1204 1302 l 257
 957 981 787 544 711 0 c 257
 652 0 l 257
 576 544 406 981 159 1302 c 257
 208 1342 l 257
 443 1035 649 532 682 88 c 257
 715 532 921 1035 1156 1342 c 257
EndSplineSet
PairPos2: "'kern' Horizontal Kerning in Arabic lookup 7 subtable" uni066B dx=-139 dy=0 dh=-139 dv=0 dx=0 dy=0 dh=0 dv=0
PairPos2: "'kern' Horizontal Kerning in Arabic lookup 7 subtable" uni0668 dx=-167 dy=0 dh=-167 dv=0 dx=0 dy=0 dh=0 dv=0
PairPos2: "'kern' Horizontal Kerning in Arabic lookup 7 subtable" uni0665 dx=-111 dy=0 dh=-111 dv=0 dx=0 dy=0 dh=0 dv=0
PairPos2: "'kern' Horizontal Kerning in Arabic lookup 7 subtable" uni0660 dx=-111 dy=0 dh=-111 dv=0 dx=0 dy=0 dh=0 dv=0
Substitution2: "'tnum' Tabular Numbers lookup 22 subtable" uni0667.tnum
Substitution2: "'locl' Localized Forms in Arabic lookup 5 subtable" uni0667.urdu
EndChar

StartChar: uni0668
Encoding: 1640 1640 263
Width: 1363
GlyphClass: 2
Flags: HMW
LayerCount: 2
Fore
SplineSet
208 -11 m 257
 159 29 l 257
 406 350 576 787 652 1331 c 257
 711 1331 l 257
 787 787 957 350 1204 29 c 257
 1156 -11 l 257
 921 296 715 798 682 1242 c 257
 649 798 443 296 208 -11 c 257
EndSplineSet
PairPos2: "'kern' Horizontal Kerning in Arabic lookup 7 subtable" uni0667 dx=-167 dy=0 dh=-167 dv=0 dx=0 dy=0 dh=0 dv=0
PairPos2: "'kern' Horizontal Kerning in Arabic lookup 7 subtable" uni0662 dx=-195 dy=0 dh=-195 dv=0 dx=0 dy=0 dh=0 dv=0
PairPos2: "'kern' Horizontal Kerning in Arabic lookup 7 subtable" uni0663 dx=-222 dy=0 dh=-222 dv=0 dx=0 dy=0 dh=0 dv=0
Substitution2: "'tnum' Tabular Numbers lookup 22 subtable" uni0668.tnum
EndChar

StartChar: uni0669
Encoding: 1641 1641 264
Width: 1066
GlyphClass: 2
Flags: HMW
LayerCount: 2
Fore
SplineSet
766 676 m 257
 690 653 621 639 528 639 c 256
 332 639 169 694 169 931 c 256
 169 1139 288 1342 502 1342 c 256
 769 1342 820 1125 820 781 c 257
 820 388 857 218 939 29 c 257
 885 5 l 257
 805 174 766 420 766 676 c 257
762 741 m 257
 762 777 l 258
 762 1095 715 1281 501 1281 c 256
 340 1281 230 1121 230 927 c 256
 230 763 327 698 516 698 c 256
 613 698 681 713 762 741 c 257
EndSplineSet
PairPos2: "'kern' Horizontal Kerning in Arabic lookup 7 subtable" uni0665 dx=-56 dy=0 dh=-56 dv=0 dx=0 dy=0 dh=0 dv=0
PairPos2: "'kern' Horizontal Kerning in Arabic lookup 7 subtable" uni0668 dx=-167 dy=0 dh=-167 dv=0 dx=0 dy=0 dh=0 dv=0
Substitution2: "'tnum' Tabular Numbers lookup 22 subtable" uni0669.tnum
EndChar

StartChar: uni066B
Encoding: 1643 1643 266
Width: 875
GlyphClass: 2
Flags: HMW
LayerCount: 2
Fore
SplineSet
227 -667 m 257
 161 -667 l 257
 651 583 l 257
 717 583 l 257
 227 -667 l 257
EndSplineSet
PairPos2: "'kern' Horizontal Kerning in Arabic lookup 7 subtable" uni0667 dx=-111 dy=0 dh=-111 dv=0 dx=0 dy=0 dh=0 dv=0
PairPos2: "'kern' Horizontal Kerning in Arabic lookup 7 subtable" uni0662 dx=-111 dy=0 dh=-111 dv=0 dx=0 dy=0 dh=0 dv=0
PairPos2: "'kern' Horizontal Kerning in Arabic lookup 7 subtable" uni0663 dx=-167 dy=0 dh=-167 dv=0 dx=0 dy=0 dh=0 dv=0
PairPos2: "'kern' Horizontal Kerning in Arabic lookup 7 subtable" uni066B dx=-56 dy=0 dh=-56 dv=0 dx=0 dy=0 dh=0 dv=0
PairPos2: "'kern' Horizontal Kerning in Arabic lookup 7 subtable" uni06F2 dx=-111 dy=0 dh=-111 dv=0 dx=0 dy=0 dh=0 dv=0
PairPos2: "'kern' Horizontal Kerning in Arabic lookup 7 subtable" uni06F3 dx=-84 dy=0 dh=-84 dv=0 dx=0 dy=0 dh=0 dv=0
PairPos2: "'kern' Horizontal Kerning in Arabic lookup 7 subtable" uni06F0 dx=-56 dy=0 dh=-56 dv=0 dx=0 dy=0 dh=0 dv=0
PairPos2: "'kern' Horizontal Kerning in Arabic lookup 7 subtable" uni06F7 dx=-111 dy=0 dh=-111 dv=0 dx=0 dy=0 dh=0 dv=0
Substitution2: "'tnum' Tabular Numbers lookup 22 subtable" uni066B.tnum
EndChar

StartChar: uni066C
Encoding: 1644 1644 267
Width: 652
GlyphClass: 2
Flags: HMW
LayerCount: 2
Fore
SplineSet
358 0 m 1
 301 -26 236 -1 236 64 c 0
 236 110 267 145 323 145 c 0
 390 145 416 94 416 16 c 0
 416 -110 358 -200 279 -269 c 1
 240 -226 l 1
 306 -170 358 -92 358 0 c 1
EndSplineSet
Substitution2: "'tnum' Tabular Numbers lookup 22 subtable" uni066C.tnum
EndChar

StartChar: uni066D
Encoding: 1645 1645 268
Width: 1012
GlyphClass: 2
Flags: HMW
LayerCount: 2
Fore
SplineSet
531 613 m 257
 482 613 l 257
 486 1018 l 257
 136 815 l 257
 111 856 l 257
 463 1057 l 257
 111 1258 l 257
 136 1298 l 257
 486 1097 l 257
 482 1500 l 257
 531 1500 l 257
 528 1097 l 257
 877 1298 l 257
 901 1258 l 257
 552 1057 l 257
 901 856 l 257
 877 815 l 257
 528 1018 l 257
 531 613 l 257
EndSplineSet
Substitution2: "'tnum' Tabular Numbers lookup 22 subtable" uni066D.tnum
EndChar

StartChar: uni06F0
Encoding: 1776 1776 290
Width: 848
GlyphClass: 2
Flags: HMW
LayerCount: 2
Fore
SplineSet
423 640 m 256
 295 640 233 556 233 449 c 256
 233 342 296 257 423 257 c 256
 550 257 615 342 615 449 c 256
 615 555 551 640 423 640 c 256
423 699 m 256
 583 699 675 591 675 449 c 256
 675 308 584 198 423 198 c 256
 262 198 173 308 173 449 c 256
 173 590 263 699 423 699 c 256
EndSplineSet
PairPos2: "'kern' Horizontal Kerning in Arabic lookup 7 subtable" uni06F7 dx=-167 dy=0 dh=-167 dv=0 dx=0 dy=0 dh=0 dv=0
PairPos2: "'kern' Horizontal Kerning in Arabic lookup 7 subtable" uni06F3 dx=-111 dy=0 dh=-111 dv=0 dx=0 dy=0 dh=0 dv=0
PairPos2: "'kern' Horizontal Kerning in Arabic lookup 7 subtable" uni06F2 dx=-111 dy=0 dh=-111 dv=0 dx=0 dy=0 dh=0 dv=0
PairPos2: "'kern' Horizontal Kerning in Arabic lookup 7 subtable" uni06F1 dx=56 dy=0 dh=56 dv=0 dx=0 dy=0 dh=0 dv=0
Substitution2: "'tnum' Tabular Numbers lookup 22 subtable" uni06F0.tnum
EndChar

StartChar: uni06F4
Encoding: 1780 1780 294
Width: 1164
GlyphClass: 2
Flags: HMW
LayerCount: 2
Fore
SplineSet
765 1340 m 0
 821 1340 888 1325 953 1299 c 1
 932 1243 l 1
 874 1266 815 1277 766 1277 c 0
 556 1277 461 1106 455 835 c 1
 529 750 643 706 757 706 c 0
 841 706 925 730 996 780 c 1
 1025 730 l 1
 935 675 839 648 746 648 c 0
 560 648 391 754 315 949 c 1
 405 709 438 331 438 0 c 1
 378 0 l 1
 378 499 327 866 138 1311 c 1
 199 1342 l 1
 259 1181 342 992 407 888 c 1
 416 1159 540 1340 765 1340 c 0
EndSplineSet
PairPos2: "'kern' Horizontal Kerning in Arabic lookup 7 subtable" uni06F8 dx=-56 dy=0 dh=-56 dv=0 dx=0 dy=0 dh=0 dv=0
Substitution2: "'tnum' Tabular Numbers lookup 22 subtable" uni06F4.tnum
Substitution2: "'locl' Localized Forms in Arabic lookup 5 subtable" uni0664.urdu
EndChar

StartChar: uni06F5
Encoding: 1781 1781 295
Width: 1412
GlyphClass: 2
Flags: HMW
LayerCount: 2
Fore
SplineSet
707 202 m 257
 684 85 599 0 474 0 c 256
 308 0 191 115 191 355 c 256
 191 573 277 877 629 1196 c 257
 587 1230 549 1259 504 1290 c 257
 536 1342 l 257
 594 1302 648 1256 698 1213 c 256
 1060 902 1223 625 1223 328 c 256
 1223 109 1100 0 952 0 c 256
 822 0 733 84 707 202 c 257
678 348 m 257
 739 348 l 257
 740 310 l 2
 745 151 807 59 957 59 c 256
 1063 59 1162 117 1162 326 c 256
 1162 590 1014 861 676 1163 c 257
 363 902 251 577 251 355 c 256
 251 137 351 59 468 59 c 256
 609 59 671 153 677 308 c 2
 678 348 l 257
EndSplineSet
PairPos2: "'kern' Horizontal Kerning in Arabic lookup 7 subtable" uni06F7 dx=-111 dy=0 dh=-111 dv=0 dx=0 dy=0 dh=0 dv=0
PairPos2: "'kern' Horizontal Kerning in Arabic lookup 7 subtable" uni06F3 dx=-56 dy=0 dh=-56 dv=0 dx=0 dy=0 dh=0 dv=0
PairPos2: "'kern' Horizontal Kerning in Arabic lookup 7 subtable" uni06F2 dx=-56 dy=0 dh=-56 dv=0 dx=0 dy=0 dh=0 dv=0
PairPos2: "'kern' Horizontal Kerning in Arabic lookup 7 subtable" uni06F1 dx=56 dy=0 dh=56 dv=0 dx=0 dy=0 dh=0 dv=0
Substitution2: "'tnum' Tabular Numbers lookup 22 subtable" uni06F5.tnum
EndChar

StartChar: uni06F6
Encoding: 1782 1782 296
Width: 1128
GlyphClass: 2
Flags: HMW
LayerCount: 2
Fore
SplineSet
759 644 m 1
 462 577 215 705 215 956 c 0
 215 1200 413 1342 608 1342 c 0
 714 1342 815 1303 886 1212 c 1
 841 1175 l 1
 781 1247 689 1282 597 1282 c 0
 437 1282 275 1169 275 958 c 0
 275 777 407 682 628 682 c 0
 731 682 834 705 959 737 c 2
 986 744 l 1
 1002 685 l 1
 976 679 l 2
 642 595 375 285 214 -12 c 1
 159 16 l 1
 291 267 541 563 759 644 c 1
EndSplineSet
Substitution2: "'tnum' Tabular Numbers lookup 22 subtable" uni0666.tnum
Substitution2: "'locl' Localized Forms in Arabic lookup 5 subtable" uni0666
EndChar

StartChar: uni200C
Encoding: 8204 8204 301
Width: 0
GlyphClass: 2
Flags: HMW
LayerCount: 2
Fore
SplineSet
30 1366 m 1
 30 -291 l 1
 -30 -291 l 1
 -30 1366 l 1
 30 1366 l 1
EndSplineSet
EndChar

StartChar: uni200D
Encoding: 8205 8205 302
Width: 0
GlyphClass: 2
Flags: HMW
LayerCount: 2
Fore
SplineSet
184 -281 m 1
 45 -142 l 1
 89 -98 l 1
 228 -237 l 1
 184 -281 l 1
-89 -8 m 1
 -228 131 l 1
 -184 175 l 1
 -45 36 l 1
 -89 -8 l 1
228 131 m 1
 -184 -281 l 1
 -228 -237 l 1
 184 175 l 1
 228 131 l 1
184 1032 m 1
 45 1171 l 1
 89 1215 l 1
 228 1076 l 1
 184 1032 l 1
-89 1305 m 1
 -228 1444 l 1
 -184 1488 l 1
 -45 1349 l 1
 -89 1305 l 1
228 1444 m 1
 -184 1032 l 1
 -228 1076 l 1
 184 1488 l 1
 228 1444 l 1
-30 1068 m 1
 30 1068 l 1
 30 139 l 1
 -30 139 l 1
 -30 1068 l 1
EndSplineSet
EndChar

StartChar: uniE000
Encoding: 57344 57344 303
Width: 137
GlyphClass: 2
Flags: HMW
LayerCount: 2
Fore
SplineSet
0 60 m 258
 139 60 l 257
 139 0 l 257
 0 0 l 258
 -17 0 -30 13 -30 30 c 256
 -30 47 -17 60 0 60 c 258
EndSplineSet
EndChar

StartChar: uniE001
Encoding: 57345 57345 304
Width: 360
GlyphClass: 2
Flags: HMW
LayerCount: 2
Fore
SplineSet
0 60 m 258
 362 60 l 257
 362 0 l 257
 0 0 l 258
 -17 0 -30 13 -30 30 c 256
 -30 47 -17 60 0 60 c 258
EndSplineSet
EndChar

StartChar: uniE002
Encoding: 57346 57346 305
Width: 507
GlyphClass: 2
Flags: HMW
LayerCount: 2
Fore
SplineSet
0 60 m 258
 509 60 l 257
 509 0 l 257
 0 0 l 258
 -17 0 -30 13 -30 30 c 256
 -30 47 -17 60 0 60 c 258
EndSplineSet
EndChar

StartChar: uniE003
Encoding: 57347 57347 306
Width: 1961
GlyphClass: 2
Flags: HMW
LayerCount: 2
Fore
SplineSet
1248 1357 m 257
 1286 1324 l 257
 194 -63 l 257
 154 -30 l 257
 1248 1357 l 257
EndSplineSet
EndChar

StartChar: uniE004
Encoding: 57348 57348 307
Width: 1073
GlyphClass: 2
Flags: HMW
LayerCount: 2
Fore
SplineSet
166 -33 m 257
 121 1 l 257
 908 1022 l 257
 953 990 l 257
 166 -33 l 257
EndSplineSet
EndChar

StartChar: uniE005
Encoding: 57349 57349 308
Width: 1525
GlyphClass: 2
Flags: HMW
LayerCount: 2
Fore
SplineSet
1204 -176 m 257
 1133 -176 l 257
 854 303 l 257
 908 335 l 257
 1204 -176 l 257
EndSplineSet
EndChar

StartChar: uniE006
Encoding: 57350 57350 309
Width: 1091
GlyphClass: 2
Flags: HMW
LayerCount: 2
Fore
SplineSet
178 162 m 257
 178 222 l 257
 913 222 l 257
 913 162 l 257
 178 162 l 257
178 442 m 257
 178 503 l 257
 913 503 l 257
 913 442 l 257
 178 442 l 257
EndSplineSet
EndChar

StartChar: uniE007
Encoding: 57351 57351 310
Width: 976
GlyphClass: 2
Flags: HMW
LayerCount: 2
Fore
SplineSet
367 1175 m 0
 333 1175 297 1178 267 1182 c 1
 275 1228 l 1
 303 1223 337 1221 368 1221 c 0
 457 1221 575 1247 575 1339 c 0
 575 1385 513 1404 460 1418 c 0
 389 1437 316 1457 316 1550 c 0
 316 1658 404 1733 512 1733 c 0
 550 1733 582 1723 611 1712 c 1
 592 1667 l 1
 568 1677 542 1685 512 1685 c 0
 432 1685 361 1635 361 1554 c 0
 361 1493 414 1479 481 1462 c 0
 550 1444 620 1424 620 1342 c 0
 620 1222 494 1175 367 1175 c 0
EndSplineSet
EndChar

StartChar: uniE008
Encoding: 57352 57352 311
Width: 1618
GlyphClass: 2
Flags: HMW
LayerCount: 2
Fore
SplineSet
621 1214 m 256
 621 1314 543 1405 437 1405 c 256
 331 1405 253 1315 253 1214 c 256
 253 1111 334 1025 437 1025 c 256
 540 1025 621 1111 621 1214 c 256
672 1213 m 256
 672 1081 570 974 437 974 c 256
 304 974 197 1081 197 1213 c 256
 197 1340 298 1460 437 1460 c 256
 576 1460 672 1340 672 1213 c 256
EndSplineSet
EndChar

StartChar: uniE009
Encoding: 57353 57353 312
Width: 1274
GlyphClass: 2
Flags: HMW
LayerCount: 2
Fore
SplineSet
608 1553 m 257
 668 1553 l 257
 668 -234 l 257
 608 -234 l 257
 608 1553 l 257
EndSplineSet
EndChar

StartChar: uniE00A
Encoding: 57354 57354 313
Width: 1351
GlyphClass: 2
Flags: HMW
LayerCount: 2
Fore
SplineSet
119 496 m 257
 119 549 l 257
 648 549 l 1
 648 496 l 1
 119 496 l 257
EndSplineSet
EndChar

StartChar: uniE00B
Encoding: 57355 57355 314
Width: 1232
GlyphClass: 2
Flags: HMW
LayerCount: 2
Fore
SplineSet
846 251 m 257
 809 177 688 -11 411 -11 c 0
 222 -11 117 87 117 253 c 256
 117 463 264 568 504 568 c 0
 624 568 728 558 829 530 c 1
 811 482 l 257
 720 507 633 514 504 514 c 0
 295 514 177 420 177 257 c 256
 177 121 247 42 428 42 c 0
 665 42 777 217 811 272 c 257
 846 251 l 257
EndSplineSet
EndChar

StartChar: uniE00C
Encoding: 57356 57356 315
Width: 1729
GlyphClass: 2
Flags: HMW
LayerCount: 2
Fore
SplineSet
1533 639 m 2
 1533 0 l 1
 1473 0 l 1
 1473 641 l 2
 1473 825 1390 948 1246 948 c 0
 1027 948 927 745 895 506 c 1
 865 555 l 1
 899 795 1022 999 1257 999 c 0
 1430 999 1533 856 1533 639 c 2
EndSplineSet
EndChar

StartChar: uniE00D
Encoding: 57357 57357 316
Width: 1212
GlyphClass: 2
Flags: HMW
LayerCount: 2
Fore
SplineSet
955 633 m 2
 955 0 l 1
 895 0 l 1
 895 635 l 2
 895 830 793 948 625 948 c 0
 429 948 294 788 253 506 c 1
 226 555 l 1
 270 834 424 999 633 999 c 0
 837 999 955 862 955 633 c 2
EndSplineSet
EndChar

StartChar: uniE00E
Encoding: 57358 57358 317
Width: 838
GlyphClass: 2
Flags: HMW
LayerCount: 2
Fore
SplineSet
707 935 m 1
 694 941 661 947 625 947 c 0
 382 947 270 725 235 486 c 1
 203 535 l 1
 241 775 376 999 637 999 c 0
 668 999 697 995 723 988 c 1
 707 935 l 1
EndSplineSet
EndChar

StartChar: uniE00F
Encoding: 57359 57359 318
Width: 1298
GlyphClass: 2
Flags: HMW
LayerCount: 2
Fore
SplineSet
1016 494 m 0
 1016 185 848 -11 616 -11 c 0
 479 -11 340 58 243 196 c 1
 275 225 l 1
 359 106 489 42 611 42 c 0
 814 42 955 212 955 494 c 0
 955 777 814 947 611 947 c 0
 489 947 359 883 275 764 c 1
 243 793 l 1
 340 931 479 999 616 999 c 0
 848 999 1016 804 1016 494 c 0
EndSplineSet
EndChar

StartChar: uniE020
Encoding: 57376 57376 319
Width: 917
GlyphClass: 2
Flags: HMW
LayerCount: 2
Fore
SplineSet
160 392 m 0
 160 573 304 704 461 704 c 0
 553 704 627 671 703 600 c 1
 669 567 l 1
 604 627 541 654 462 654 c 0
 328 654 212 543 212 395 c 0
 212 256 328 179 493 179 c 0
 576 179 660 197 768 236 c 1
 784 190 l 1
 146 -11 l 1
 133 37 l 1
 464 140 l 1
 288 140 160 237 160 392 c 0
EndSplineSet
Colour: ff00ff
EndChar

StartChar: uniE021
Encoding: 57377 57377 320
Width: 484
GlyphClass: 2
Flags: HMW
LayerCount: 2
Fore
SplineSet
574 1714 m 1
 621 1691 l 1
 564 1573 490 1533 403 1533 c 0
 339 1533 276 1559 221 1586 c 0
 172 1610 124 1630 78 1630 c 0
 -2 1630 -54 1549 -93 1486 c 1
 -135 1512 l 1
 -62 1643 15 1685 79 1685 c 0
 132 1685 188 1661 244 1636 c 0
 301 1611 359 1586 413 1586 c 0
 477 1586 528 1618 574 1714 c 1
272 1298 m 1
 272 0 l 1
 212 0 l 1
 212 1298 l 1
 272 1298 l 1
EndSplineSet
Colour: ff00ff
EndChar

StartChar: uniE022
Encoding: 57378 57378 321
Width: 484
GlyphClass: 2
Flags: HMW
LayerCount: 2
Fore
SplineSet
272 0 m 257
 212 0 l 257
 212 1298 l 257
 272 1298 l 257
 272 0 l 257
EndSplineSet
Colour: ff00ff
EndChar

StartChar: uniE023
Encoding: 57379 57379 322
Width: 1308
GlyphClass: 2
Flags: HMW
LayerCount: 2
Back
SplineSet
457 715 m 0
 520 715 588 696 659 665 c 2
 1143 451 l 1
 1127 366 l 1
 749 262 192 61 192 -341 c 0
 192 -596 450 -710 727 -710 c 0
 883 -710 1031 -673 1151 -626 c 1
 1175 -685 l 1
 1044 -736 889 -774 729 -774 c 0
 411 -774 133 -636 133 -341 c 0
 133 71 607 278 1073 417 c 1
 633 610 l 2
 566 640 507 655 457 655 c 0
 326 655 273 556 245 431 c 2
 240 406 l 1
 180 419 l 1
 186 444 l 2
 218 593 298 715 457 715 c 0
EndSplineSet
Fore
SplineSet
460 715 m 0
 543 715 632 674 737 624 c 0
 848 571 977 512 1133 485 c 1
 1130 393 l 1
 731 284 192 61 192 -341 c 0
 192 -596 450 -710 727 -710 c 0
 883 -710 1031 -673 1151 -626 c 1
 1175 -685 l 1
 1044 -736 889 -774 729 -774 c 0
 411 -774 133 -636 133 -341 c 0
 133 71 603 301 1069 440 c 1
 920 466 799 524 696 574 c 0
 604 619 528 655 460 655 c 0
 328 655 273 556 245 431 c 2
 240 406 l 1
 180 419 l 1
 186 444 l 2
 218 593 299 715 460 715 c 0
EndSplineSet
Colour: ff00ff
EndChar

StartChar: uniE024
Encoding: 57380 57380 323
Width: 994
GlyphClass: 2
Flags: HMW
LayerCount: 2
Fore
SplineSet
861 331 m 256
 861 67 603 -10 372 -10 c 256
 291 -10 209 0 123 23 c 257
 137 81 l 257
 223 58 299 50 375 50 c 256
 639 50 801 143 801 328 c 256
 801 486 691 652 457 866 c 257
 499 915 l 257
 735 701 861 508 861 331 c 256
EndSplineSet
Colour: ff00ff
EndChar

StartChar: uniE025
Encoding: 57381 57381 324
Width: 720
GlyphClass: 2
Flags: HMW
LayerCount: 2
Back
SplineSet
523 530 m 257
 584 552 l 257
 628 421 677 243 677 76 c 0
 677 -290 427 -461 127 -573 c 257
 105 -516 l 257
 481 -371 616 -183 616 76 c 0
 616 209 582 358 523 530 c 257
EndSplineSet
Fore
SplineSet
430 533 m 1
 489 549 l 1
 552 323 577 182 577 59 c 0
 577 -240 419 -418 27 -573 c 1
 5 -516 l 1
 376 -369 516 -210 516 55 c 0
 516 175 491 316 430 533 c 1
EndSplineSet
Colour: ff00ff
EndChar

StartChar: uniE026
Encoding: 57382 57382 325
Width: 2484
GlyphClass: 2
Flags: HMW
LayerCount: 2
Fore
SplineSet
1532 0 m 0
 1392 0 1323 62 1275 163 c 1
 1341 -289 1184 -513 723 -513 c 0
 312 -513 133 -335 133 30 c 0
 133 184 165 375 194 486 c 1
 249 471 l 1
 221 365 193 190 193 44 c 0
 193 -324 370 -452 718 -452 c 0
 1097 -452 1235 -300 1235 -3 c 0
 1235 135 1205 323 1160 502 c 1
 1219 518 l 1
 1248 380 l 2
 1289 186 1357 60 1544 60 c 0
 1690 60 1764 142 1782 342 c 2
 1797 511 l 1
 1859 504 l 1
 1846 351 l 2
 1830 150 1917 60 2077 60 c 0
 2219 60 2291 149 2291 320 c 0
 2291 391 2278 510 2264 576 c 1
 2324 591 l 1
 2339 517 2351 396 2351 319 c 0
 2351 108 2256 0 2076 0 c 0
 1929 0 1834 72 1809 200 c 1
 1774 67 1673 0 1532 0 c 0
EndSplineSet
Colour: ff00ff
EndChar

StartChar: uniE027
Encoding: 57383 57383 326
Width: 2388
GlyphClass: 2
Flags: HMW
LayerCount: 2
Fore
SplineSet
1937 600 m 0
 1790 600 1597 494 1339 107 c 1
 1427 71 1542 60 1673 60 c 0
 1926 60 2193 99 2193 349 c 0
 2193 495 2097 600 1937 600 c 0
1937 661 m 0
 2141 661 2255 524 2255 350 c 0
 2255 68 1979 0 1672 0 c 0
 1511 0 1382 20 1288 62 c 1
 1306 -328 1147 -513 720 -513 c 0
 312 -513 133 -335 133 23 c 0
 133 184 165 375 194 486 c 1
 249 471 l 1
 221 365 193 190 193 24 c 0
 193 -324 370 -452 719 -452 c 0
 1097 -452 1235 -300 1235 0 c 0
 1235 135 1208 299 1160 491 c 1
 1219 508 l 1
 1248 397 1270 265 1282 132 c 1
 1545 530 1764 661 1937 661 c 0
EndSplineSet
Colour: ff00ff
EndChar

StartChar: uniE028
Encoding: 57384 57384 327
Width: 1604
GlyphClass: 2
Flags: HMW
LayerCount: 2
Fore
SplineSet
518 60 m 1
 889 60 l 2
 1142 60 1410 99 1410 349 c 0
 1410 495 1314 600 1154 600 c 0
 1003 600 792 495 518 60 c 1
450 60 m 1
 477 103 502 142 528 182 c 1
 528 1298 l 1
 587 1298 l 1
 587 520 l 2
 587 420 586 342 577 250 c 1
 775 521 971 661 1154 661 c 0
 1358 661 1471 524 1471 350 c 0
 1471 168 1359 0 888 0 c 2
 133 0 l 1
 133 60 l 1
 450 60 l 1
EndSplineSet
Colour: ff00ff
EndChar

StartChar: uniE029
Encoding: 57385 57385 328
Width: 1367
GlyphClass: 2
Flags: HMW
LayerCount: 2
Fore
SplineSet
941 988 m 257
 889 943 l 257
 833 1010 759 1072 624 1072 c 256
 456 1072 273 930 273 705 c 256
 273 494 461 413 724 413 c 256
 814 413 949 431 1016 441 c 257
 1023 376 l 257
 624 346 192 147 192 -273 c 256
 192 -565 488 -678 786 -678 c 0
 939 -678 1095 -647 1210 -594 c 257
 1234 -650 l 257
 1104 -706 941 -738 781 -738 c 0
 452 -738 133 -606 133 -263 c 256
 133 13 351 265 664 356 c 257
 419 356 214 475 214 705 c 256
 214 960 417 1131 624 1131 c 256
 775 1131 876 1062 941 988 c 257
EndSplineSet
Colour: ff00ff
EndChar

StartChar: uniE02A
Encoding: 57386 57386 329
Width: 902
GlyphClass: 2
Flags: HMW
LayerCount: 2
Fore
SplineSet
0 60 m 258
 902 60 l 257
 902 0 l 257
 0 0 l 258
 -17 0 -20 13 -20 30 c 256
 -20 47 -17 60 0 60 c 258
EndSplineSet
Colour: ff00ff
EndChar

StartChar: uniE02B
Encoding: 57387 57387 330
Width: 1632
GlyphClass: 2
Flags: HMW
LayerCount: 2
Fore
SplineSet
790 60 m 0
 1225 60 1383 151 1383 522 c 2
 1383 1298 l 1
 1442 1298 l 1
 1442 522 l 2
 1442 116 1254 0 774 0 c 0
 305 0 133 95 133 355 c 0
 133 425 145 522 165 603 c 1
 218 590 l 1
 199 516 185 415 185 351 c 0
 185 136 344 60 790 60 c 0
EndSplineSet
Colour: ff00ff
EndChar

StartChar: uniE02C
Encoding: 57388 57388 331
Width: 1329
GlyphClass: 2
Flags: HMW
LayerCount: 2
Fore
SplineSet
630 -495 m 0
 937 -495 1079 -337 1079 -2 c 2
 1079 1298 l 1
 1139 1298 l 1
 1139 -2 l 2
 1139 -384 966 -555 615 -555 c 0
 314 -555 133 -391 133 -107 c 0
 133 19 160 161 219 310 c 1
 274 286 l 1
 219 142 192 2 192 -107 c 0
 192 -361 344 -495 630 -495 c 0
EndSplineSet
Colour: ff00ff
EndChar

StartChar: uniE02D
Encoding: 57389 57389 332
Width: 1255
GlyphClass: 2
Flags: HMW
LayerCount: 2
Fore
SplineSet
799 617 m 0
 581 617 515 336 472 136 c 1
 510 127 559 115 598 104 c 0
 711 73 805 49 889 49 c 0
 1014 49 1063 126 1063 273 c 0
 1063 451 987 617 799 617 c 0
799 676 m 0
 1027 676 1122 483 1122 261 c 0
 1122 97 1040 -11 889 -11 c 0
 795 -11 689 15 583 45 c 0
 488 72 403 91 343 91 c 0
 235 91 194 31 194 -110 c 2
 194 -803 l 1
 133 -803 l 1
 133 -110 l 2
 133 78 221 183 412 148 c 1
 458 380 543 676 799 676 c 0
EndSplineSet
Colour: ff00ff
EndChar

StartChar: uniE02E
Encoding: 57390 57390 333
Width: 868
GlyphClass: 2
Flags: HMW
LayerCount: 2
Fore
SplineSet
434 50 m 256
 591 50 670 138 670 275 c 256
 670 423 571 591 434 718 c 257
 299 592 197 424 197 275 c 256
 197 138 277 50 434 50 c 256
434 -11 m 256
 249 -11 133 107 133 276 c 256
 133 453 253 631 392 761 c 1
 356 796 327 822 291 852 c 1
 329 898 l 257
 605 668 735 471 735 276 c 256
 735 107 619 -11 434 -11 c 256
EndSplineSet
Colour: ff00ff
EndChar

StartChar: uniE02F
Encoding: 57391 57391 334
Width: 983
GlyphClass: 2
Flags: HMW
LayerCount: 2
Fore
SplineSet
789 26 m 1
 709 6 614 -13 503 -13 c 0
 311 -13 182 59 182 251 c 0
 182 462 283 685 496 685 c 0
 770 685 850 294 850 20 c 0
 850 -271 580 -461 148 -567 c 1
 133 -507 l 1
 566 -400 789 -224 789 26 c 1
788 88 m 1
 777 303 710 626 496 626 c 0
 320 626 242 425 242 251 c 0
 242 94 342 49 503 49 c 0
 613 49 709 68 788 88 c 1
EndSplineSet
Colour: ff00ff
EndChar

StartChar: uniE030
Encoding: 57392 57392 335
Width: 0
GlyphClass: 2
Flags: HMW
LayerCount: 2
Fore
SplineSet
85 1583 m 0
 22 1583 -40 1521 -40 1451 c 0
 -40 1372 57 1338 121 1327 c 1
 155 1369 173 1413 173 1462 c 0
 173 1526 146 1583 85 1583 c 0
87 1627 m 0
 167 1627 219 1559 219 1464 c 0
 219 1289 52 1190 -178 1120 c 1
 -193 1177 -245 1266 -322 1325 c 1
 -292 1368 l 1
 -226 1321 -179 1253 -147 1178 c 1
 -61 1208 29 1248 88 1290 c 1
 14 1309 -84 1350 -84 1448 c 0
 -84 1529 -11 1627 87 1627 c 0
EndSplineSet
Colour: ff00ff
EndChar

StartChar: uniE031
Encoding: 57393 57393 336
Width: 0
GlyphClass: 2
Flags: HMW
LayerCount: 2
Fore
SplineSet
219 1316 m 1
 233 1274 l 1
 -219 1131 l 1
 -233 1175 l 1
 219 1316 l 1
EndSplineSet
Colour: ff00ff
EndChar

StartChar: uniE032
Encoding: 57394 57394 337
Width: 0
GlyphClass: 2
Flags: HMW
LayerCount: 2
Fore
SplineSet
85 1583 m 0
 22 1583 -40 1521 -40 1451 c 0
 -40 1372 57 1338 121 1327 c 1
 155 1369 173 1413 173 1462 c 0
 173 1526 146 1583 85 1583 c 0
87 1627 m 0
 167 1627 219 1559 219 1464 c 0
 219 1283 40 1183 -203 1113 c 1
 -218 1155 l 1
 -114 1183 12 1236 88 1290 c 1
 14 1309 -84 1350 -84 1448 c 0
 -84 1529 -11 1627 87 1627 c 0
EndSplineSet
Colour: ff00ff
EndChar

StartChar: uniE033
Encoding: 57395 57395 338
Width: 0
GlyphClass: 2
Flags: HMW
LayerCount: 2
Fore
SplineSet
229 1279 m 0
 229 1310 223 1350 208 1414 c 1
 250 1422 l 1
 264 1359 271 1311 271 1273 c 0
 271 1179 225 1130 138 1130 c 0
 66 1130 7 1184 0 1258 c 1
 -7 1184 -66 1130 -138 1130 c 0
 -225 1130 -271 1179 -271 1273 c 0
 -271 1311 -264 1359 -250 1422 c 1
 -208 1414 l 1
 -223 1350 -229 1310 -229 1279 c 0
 -229 1209 -197 1176 -130 1176 c 0
 -55 1176 -22 1235 -22 1371 c 2
 -22 1378 l 1
 22 1378 l 1
 22 1371 l 2
 22 1235 55 1176 130 1176 c 0
 197 1176 229 1209 229 1279 c 0
EndSplineSet
Colour: ff00ff
EndChar

StartChar: uniE034
Encoding: 57396 57396 339
Width: 0
GlyphClass: 2
Flags: HMW
LayerCount: 2
Fore
SplineSet
0 1392 m 256
 -69 1392 -107 1354 -107 1285 c 256
 -107 1216 -69 1176 0 1176 c 256
 67 1176 107 1218 107 1285 c 256
 107 1352 69 1392 0 1392 c 256
0 1437 m 256
 92 1437 153 1379 153 1285 c 256
 153 1191 93 1131 0 1131 c 256
 -93 1131 -153 1192 -153 1285 c 256
 -153 1378 -93 1437 0 1437 c 256
EndSplineSet
Colour: ff00ff
EndChar

StartChar: uniE035
Encoding: 57397 57397 340
Width: 0
GlyphClass: 2
Flags: HMW
LayerCount: 2
Fore
SplineSet
-253 1143 m 1
 -228 1190 -170 1249 -94 1249 c 0
 -59 1249 -25 1234 13 1207 c 0
 49 1182 72 1173 97 1173 c 0
 148 1173 182 1201 212 1252 c 1
 253 1232 l 1
 223 1177 176 1131 97 1131 c 0
 61 1131 36 1141 -13 1172 c 0
 -44 1192 -70 1203 -94 1203 c 0
 -145 1203 -193 1163 -212 1124 c 1
 -253 1143 l 1
EndSplineSet
Colour: ff00ff
EndChar

StartChar: uniE036
Encoding: 57398 57398 341
Width: 0
GlyphClass: 2
Flags: HMW
LayerCount: 2
Fore
SplineSet
147 1536 m 1
 129 1496 l 1
 101 1510 71 1516 42 1516 c 0
 -36 1516 -104 1468 -104 1382 c 0
 -104 1312 -52 1265 25 1265 c 0
 46 1265 69 1269 93 1276 c 2
 219 1316 l 1
 232 1274 l 1
 -219 1131 l 1
 -232 1175 l 1
 -37 1236 l 1
 -104 1257 -146 1313 -146 1383 c 0
 -146 1491 -52 1562 47 1562 c 0
 81 1562 115 1554 147 1536 c 1
EndSplineSet
Colour: ff00ff
EndChar

StartChar: uniE037
Encoding: 57399 57399 342
Width: 0
GlyphClass: 2
Flags: HMW
LayerCount: 2
Fore
SplineSet
16 1131 m 1
 -16 1131 l 1
 -230 1392 l 1
 -195 1423 l 1
 0 1182 l 1
 195 1423 l 1
 230 1392 l 1
 16 1131 l 1
EndSplineSet
Colour: ff00ff
EndChar

StartChar: uniE038
Encoding: 57400 57400 343
Width: 1748
GlyphClass: 2
Flags: HMW
LayerCount: 2
Fore
SplineSet
1566 702 m 257
 1596 604 1615 510 1615 420 c 256
 1615 101 1406 0 873 0 c 256
 340 0 133 101 133 420 c 256
 133 510 150 604 180 702 c 257
 239 683 l 257
 209 587 193 499 193 417 c 256
 193 162 361 60 873 60 c 256
 1385 60 1554 162 1554 417 c 256
 1554 499 1539 587 1509 683 c 257
 1566 702 l 257
EndSplineSet
Colour: ff00ff
EndChar

StartChar: uniE039
Encoding: 57401 57401 344
Width: 1503
GlyphClass: 2
Flags: HMW
LayerCount: 2
Fore
SplineSet
1309 88 m 1
 1298 303 1232 626 1018 626 c 0
 842 626 763 425 763 251 c 0
 763 94 863 49 1024 49 c 0
 1134 49 1230 68 1309 88 c 1
1018 685 m 0
 1287 685 1370 311 1370 39 c 1
 1370 -346 1182 -559 744 -559 c 0
 345 -559 133 -369 133 -9 c 0
 133 97 148 218 177 352 c 1
 236 340 l 1
 208 210 192 91 192 -9 c 0
 192 -345 385 -497 750 -497 c 0
 1135 -497 1317 -316 1317 28 c 1
 1237 5 1135 -13 1024 -13 c 0
 832 -13 704 59 704 251 c 0
 704 462 805 685 1018 685 c 0
EndSplineSet
Colour: ff00ff
EndChar

StartChar: uniE03A
Encoding: 57402 57402 345
Width: 0
GlyphClass: 2
Flags: HMW
LayerCount: 2
Fore
SplineSet
-23 1432 m 257
 23 1432 l 257
 23 1111 l 257
 -23 1111 l 257
 -23 1432 l 257
EndSplineSet
Colour: ff00ff
EndChar

StartChar: uniE03B
Encoding: 57403 57403 346
Width: 1782
GlyphClass: 2
Flags: HMW
LayerCount: 2
Fore
SplineSet
1588 411 m 1
 1508 391 1412 373 1301 373 c 0
 1109 373 981 445 981 637 c 0
 981 848 1082 1071 1295 1071 c 0
 1569 1071 1649 680 1649 406 c 0
 1649 99 1491 0 858 0 c 0
 278 0 133 106 133 422 c 0
 133 512 149 608 179 706 c 1
 237 689 l 1
 207 593 192 501 192 419 c 0
 192 150 301 60 861 60 c 0
 1433 63 1588 117 1588 411 c 1
1587 474 m 1
 1576 689 1509 1011 1295 1011 c 0
 1119 1011 1040 811 1040 637 c 0
 1040 480 1140 435 1301 435 c 0
 1411 435 1508 454 1587 474 c 1
EndSplineSet
Colour: ff00ff
EndChar

StartChar: uniE03C
Encoding: 57404 57404 347
Width: 1651
GlyphClass: 2
Flags: HMW
LayerCount: 2
Fore
SplineSet
179 707 m 1
 237 689 l 1
 208 595 192 500 192 416 c 0
 192 153 346 60 782 60 c 0
 1209 60 1414 150 1414 337 c 0
 1414 517 1224 737 907 940 c 1
 907 1029 l 1
 1149 1156 1410 1267 1692 1363 c 1
 1711 1305 l 1
 1398 1200 1160 1101 953 990 c 1
 953 980 l 1
 1295 747 1474 534 1474 340 c 0
 1474 116 1235 0 772 0 c 0
 308 0 133 116 133 423 c 0
 133 513 148 604 179 707 c 1
EndSplineSet
Colour: ff00ff
EndChar

StartChar: uniE03D
Encoding: 57405 57405 348
Width: 1484
GlyphClass: 2
Flags: HMW
LayerCount: 2
Fore
SplineSet
1190 520 m 1
 1243 539 l 1
 1313 339 1351 169 1351 12 c 0
 1351 -325 1139 -514 732 -514 c 0
 333 -514 133 -324 133 36 c 0
 133 164 156 314 197 482 c 1
 254 466 l 1
 215 304 192 157 192 36 c 0
 192 -300 373 -452 738 -452 c 0
 1097 -452 1292 -288 1292 14 c 0
 1292 161 1255 327 1190 520 c 1
EndSplineSet
Colour: ff00ff
EndChar

StartChar: uniE03E
Encoding: 57406 57406 349
Width: 1462
GlyphClass: 2
Flags: HMW
LayerCount: 2
Back
SplineSet
1286 628 m 1
 1269 571 l 1
 1206 590 1150 598 1093 598 c 0
 847 598 696 422 696 222 c 0
 696 54 844 43 1024 30 c 0
 1198 17 1329 -12 1329 -186 c 0
 1329 -411 1055 -557 721 -557 c 0
 345 -557 133 -431 133 -41 c 0
 133 55 145 166 171 298 c 1
 231 286 l 1
 204 153 191 42 191 -51 c 0
 191 -393 377 -499 718 -499 c 0
 1027 -499 1269 -369 1269 -183 c 0
 1269 -51 1175 -43 998 -29 c 0
 819 -15 637 7 637 219 c 0
 637 455 807 658 1085 658 c 0
 1151 658 1214 650 1286 628 c 1
EndSplineSet
Fore
SplineSet
1286 628 m 1
 1269 571 l 1
 1208 589 1153 598 1098 598 c 0
 869 598 696 443 696 237 c 0
 696 103 769 54 1008 31 c 0
 1247 8 1329 -43 1329 -172 c 0
 1329 -401 1071 -557 691 -557 c 0
 306 -557 133 -396 133 -40 c 0
 133 55 145 166 171 298 c 1
 231 286 l 1
 204 156 191 43 191 -52 c 0
 191 -367 338 -499 689 -499 c 0
 1033 -499 1269 -372 1269 -186 c 0
 1269 -89 1205 -51 1003 -30 c 0
 731 -1 637 66 637 234 c 0
 637 476 832 658 1095 658 c 0
 1156 658 1220 648 1286 628 c 1
EndSplineSet
Colour: ff00ff
EndChar

StartChar: uniE03F
Encoding: 57407 57407 350
Width: 1972
GlyphClass: 2
Flags: HMW
LayerCount: 2
Back
SplineSet
179 707 m 1
 237 689 l 1
 207.460570606 594.473825941 192 499.426881392 192 412.354492188 c 0
 192 148.246006943 334.242603996 60 759.951171875 60 c 0
 1180.22836522 60 1374 146.008826862 1374 332.5546875 c 0
 1374 516.442344277 1185.70944466 745.750274819 867 950 c 1
 867 1039 l 1
 1109.23086286 1166.45631319 1370.16386383 1277.47748812 1652 1373 c 1
 1671 1315 l 1
 1358.22422431 1210.31172544 1119.94178284 1111.28933882 913 1000 c 1
 913 990 l 1
 1201.12168697 789.710280285 1352.76685497 621.900192038 1472.34082031 371.658203125 c 0
 1588.80537693 127.922953698 1689.05341882 60 1931 60 c 2
 1932 60 l 1
 1932 0 l 1
 1931 0 l 2
 1657.56200528 0 1518.94582221 102.408447137 1418 379 c 1
 1453.35279114 123.157432524 1238.12621619 0 753.9609375 0 c 0
 296.386999859 0 133 110.001162363 133 419.255859375 c 0
 133 511.876116795 147.655371176 603.562724882 179 707 c 1
EndSplineSet
Fore
SplineSet
179 707 m 1
 237 689 l 1
 208 595 192 500 192 416 c 0
 192 153 346 60 782 60 c 0
 1209 60 1414 150 1414 337 c 0
 1414 517 1224 737 907 940 c 1
 907 1029 l 1
 1149 1156 1410 1267 1692 1363 c 1
 1711 1305 l 1
 1398 1200 1160 1101 953 990 c 1
 953 980 l 1
 1241 780 1392 623 1512 372 c 0
 1628 128 1729 60 1971 60 c 2
 1972 60 l 1
 1972 0 l 1
 1971 0 l 2
 1698 0 1559 102 1458 379 c 1
 1493 126 1264 0 775 0 c 0
 307 0 133 116 133 423 c 0
 133 513 148 604 179 707 c 1
EndSplineSet
Colour: ff00ff
EndChar

StartChar: uniE040
Encoding: 57408 57408 351
Width: 1674
GlyphClass: 2
Flags: HMW
LayerCount: 2
Fore
SplineSet
197 482 m 1
 254 466 l 1
 215 304 192 157 192 36 c 0
 192 -300 373 -452 738 -452 c 0
 1097 -452 1292 -294 1292 14 c 0
 1292 161 1255 327 1190 520 c 1
 1247 541 l 1
 1292 403 l 2
 1361 188 1415 60 1673 60 c 2
 1674 60 l 1
 1674 0 l 1
 1673 0 l 2
 1525 0 1391 56 1335 165 c 1
 1394 -280 1193 -514 732 -514 c 0
 333 -514 133 -324 133 36 c 0
 133 164 156 314 197 482 c 1
EndSplineSet
Colour: ff00ff
EndChar

StartChar: uniE041
Encoding: 57409 57409 352
Width: 570
GlyphClass: 2
Flags: HMW
LayerCount: 2
Back
SplineSet
380 729 m 257
 413 593 437 469 437 364 c 0
 437 141 334 0 0 0 c 256
 -17 0 -20 13 -20 30 c 256
 -20 47 -17 60 0 60 c 256
 297 60 382 170 382 352 c 0
 382 452 356 574 324 713 c 257
 380 729 l 257
EndSplineSet
Fore
SplineSet
380 729 m 257
 413 593 437 469 437 364 c 0
 437 141 334 0 61 0 c 0
 0 0 l 256
 -17 0 -20 13 -20 30 c 256
 -20 47 -17 60 0 60 c 256
 61 60 l 0
 297 60 382 170 382 352 c 0
 382 452 356 574 324 713 c 257
 380 729 l 257
EndSplineSet
Colour: ff00ff
EndChar

StartChar: uniE042
Encoding: 57410 57410 353
Width: 854
GlyphClass: 2
Flags: HMW
LayerCount: 2
Back
SplineSet
458 428 m 258
 458 207 509 60 853 60 c 258
 854 60 l 257
 854 0 l 257
 853 0 l 258
 618 0 455 84 426 246 c 257
 396 83 242 0 0 0 c 256
 -17 0 -20 13 -20 30 c 256
 -20 47 -17 60 0 60 c 256
 341 60 397 209 397 428 c 258
 397 546 l 257
 458 546 l 257
 458 428 l 258
EndSplineSet
Fore
SplineSet
458 428 m 258
 458 207 512 60 758 60 c 258
 854 60 l 257
 854 0 l 257
 754 0 l 258
 580 0 455 84 426 246 c 257
 396 83 241 0 60 0 c 2
 0 0 l 256
 -17 0 -20 13 -20 30 c 256
 -20 47 -17 60 0 60 c 256
 60 60 l 2
 340 60 397 209 397 428 c 258
 397 546 l 257
 458 546 l 257
 458 428 l 258
EndSplineSet
Colour: ff00ff
EndChar

StartChar: uniE043
Encoding: 57411 57411 354
Width: 1384
GlyphClass: 2
Flags: HMW
LayerCount: 2
Fore
SplineSet
1384 60 m 257
 1384 0 l 257
 1051 0 l 257
 1201 -30 1304 -112 1304 -242 c 256
 1304 -482 991 -574 738 -574 c 0
 369 -574 133 -417 133 -81 c 256
 133 141 160 267 187 381 c 257
 245 365 l 257
 219 257 193 135 193 -68 c 256
 193 -384 394 -514 725 -514 c 0
 945 -514 1241 -448 1241 -232 c 256
 1241 -66 1042 -39 741 -1 c 257
 748 60 l 257
 1384 60 l 257
EndSplineSet
Colour: ff00ff
EndChar

StartChar: uniE044
Encoding: 57412 57412 355
Width: 576
GlyphClass: 2
Flags: HMW
LayerCount: 2
Fore
SplineSet
190 1298 m 257
 250 1298 l 257
 250 382 l 258
 250 156 327 60 575 60 c 258
 576 60 l 257
 576 0 l 257
 575 0 l 258
 312 0 190 125 190 382 c 258
 190 1298 l 257
EndSplineSet
Colour: ff00ff
EndChar

StartChar: uniE045
Encoding: 57413 57413 356
Width: 1306
GlyphClass: 2
Flags: HMW
LayerCount: 2
Back
SplineSet
457 715 m 0
 520 715 588 696 659 665 c 2
 1143 451 l 1
 1127 366 l 1
 1049 344 963 319 876 288 c 1
 976 75 1062 60 1231 60 c 2
 1306 60 l 1
 1306 0 l 1
 1226 0 l 2
 1055 0 937 21 822 268 c 1
 506 149 192 -39 192 -341 c 0
 192 -596 450 -710 727 -710 c 0
 883 -710 1031 -673 1151 -626 c 1
 1175 -685 l 1
 1044 -736 889 -774 729 -774 c 0
 411 -774 133 -636 133 -341 c 0
 133 71 607 278 1073 417 c 1
 633 610 l 2
 566 640 507 655 457 655 c 0
 326 655 273 556 245 431 c 2
 240 406 l 1
 180 419 l 1
 186 444 l 2
 218 593 298 715 457 715 c 0
EndSplineSet
Fore
SplineSet
460 715 m 0
 543 715 632 674 737 624 c 0
 848 571 977 512 1133 485 c 1
 1130 393 l 1
 1047 370 957 342 867 309 c 1
 963 79 1062 60 1231 60 c 2
 1306 60 l 1
 1306 0 l 1
 1226 0 l 2
 1055 0 925 25 814 288 c 1
 495 160 192 -40 192 -341 c 0
 192 -596 450 -710 727 -710 c 0
 883 -710 1031 -673 1151 -626 c 1
 1175 -685 l 1
 1044 -736 889 -774 729 -774 c 0
 411 -774 133 -636 133 -341 c 0
 133 71 603 301 1069 440 c 1
 920 466 799 524 696 574 c 0
 604 619 528 655 460 655 c 0
 328 655 273 556 245 431 c 2
 240 406 l 1
 180 419 l 1
 186 444 l 2
 218 593 299 715 460 715 c 0
EndSplineSet
Colour: ff00ff
EndChar

StartChar: uniE046
Encoding: 57414 57414 357
Width: 1266
GlyphClass: 2
Flags: HMW
LayerCount: 2
Back
SplineSet
460 715 m 0
 524 715 594 694 667 665 c 10
 1133 485 l 17
 1133 408 l 1
 759 159 l 18
 604 55 433 0 230 0 c 2
 0 0 l 2
 -17 0 -20 15 -20 30 c 0
 -20 45 -17 60 0 60 c 2
 230 60 l 2
 418 60 580 113 726 210 c 10
 1075 444 l 1
 641 610 l 18
 572 637 511 655 460 655 c 0
 328 655 273 556 245 431 c 2
 240 406 l 1
 180 419 l 1
 186 444 l 2
 218 593 299 715 460 715 c 0
EndSplineSet
Fore
SplineSet
460 715 m 0
 543 715 632 674 737 624 c 0
 848 571 977 512 1133 485 c 1
 1133 408 l 1
 759 159 l 18
 604 55 433 0 230 0 c 2
 0 0 l 2
 -17 0 -20 15 -20 30 c 0
 -20 45 -17 60 0 60 c 2
 230 60 l 2
 418 60 580 112 726 210 c 2
 1069 440 l 1
 920 466 799 524 696 574 c 0
 604 619 528 655 460 655 c 0
 328 655 273 556 245 431 c 2
 240 406 l 1
 180 419 l 1
 186 444 l 2
 218 593 299 715 460 715 c 0
EndSplineSet
Colour: ff00ff
EndChar

StartChar: uniE047
Encoding: 57415 57415 358
Width: 1312
GlyphClass: 2
Flags: HMW
LayerCount: 2
Back
SplineSet
460 715 m 0
 524 715 594 694 667 665 c 2
 1133 485 l 1
 1133 408 l 1
 886 244 l 1
 986 106 1071 60 1221 60 c 2
 1312 60 l 1
 1312 0 l 1
 1215 0 l 2
 1062 0 949 52 836 211 c 1
 759 159 l 2
 604 55 433 0 230 0 c 2
 0 0 l 2
 -17 0 -20 15 -20 30 c 0
 -20 45 -17 60 0 60 c 2
 230 60 l 2
 418 60 580 113 726 210 c 2
 1075 444 l 1
 641 610 l 2
 572 637 511 655 460 655 c 0
 328 655 273 556 245 431 c 2
 240 406 l 1
 180 419 l 1
 186 444 l 2
 218 593 299 715 460 715 c 0
EndSplineSet
Fore
SplineSet
460 715 m 0
 543 715 632 674 737 624 c 0
 848 571 977 512 1133 485 c 1
 1133 408 l 1
 886 244 l 1
 986 106 1071 60 1221 60 c 2
 1312 60 l 1
 1312 0 l 1
 1215 0 l 2
 1062 0 949 52 836 211 c 1
 759 159 l 2
 604 55 433 0 230 0 c 2
 0 0 l 2
 -17 0 -20 15 -20 30 c 0
 -20 45 -17 60 0 60 c 2
 230 60 l 2
 418 60 580 112 726 210 c 2
 1069 440 l 1
 920 466 799 524 696 574 c 0
 604 619 528 655 460 655 c 0
 328 655 273 556 245 431 c 2
 240 406 l 1
 180 419 l 1
 186 444 l 2
 218 593 299 715 460 715 c 0
EndSplineSet
Colour: ff00ff
EndChar

StartChar: uniE048
Encoding: 57416 57416 359
Width: 1258
GlyphClass: 2
Flags: HMW
LayerCount: 2
Fore
SplineSet
653 903 m 1
 931 257 l 2
 996 107 1086 60 1237 60 c 2
 1258 60 l 1
 1258 0 l 1
 1237 0 l 2
 1071 0 947 60 880 217 c 1
 798 69 643 -10 479 -10 c 0
 357 -10 230 34 123 129 c 1
 163 178 l 1
 260 90 374 51 481 51 c 0
 633 51 777 129 856 273 c 1
 592 874 l 1
 653 903 l 1
EndSplineSet
Colour: ff00ff
EndChar

StartChar: uniE049
Encoding: 57417 57417 360
Width: 907
GlyphClass: 2
Flags: HMW
LayerCount: 2
Back
SplineSet
523 530 m 257
 584 552 l 257
 627 400 l 258
 689 183 748 60 1006 60 c 257
 1007 60 l 257
 1007 0 l 257
 1006 0 l 257
 851 0 715 66 667 159 c 257
 730 -231 485 -439 127 -573 c 257
 105 -516 l 257
 477 -377 622 -189 622 74 c 0
 622 207 581 362 523 530 c 257
EndSplineSet
Fore
SplineSet
430 533 m 1
 489 549 l 1
 535 371 l 2
 595 139 689 60 906 60 c 2
 907 60 l 1
 907 0 l 1
 906 0 l 2
 746 0 616 62 564 166 c 1
 605 -212 449 -406 27 -573 c 1
 5 -516 l 1
 375 -369 516 -211 516 60 c 0
 516 176 490 319 430 533 c 1
EndSplineSet
Colour: ff00ff
EndChar

StartChar: uniE04A
Encoding: 57418 57418 361
Width: 2736
GlyphClass: 2
Flags: HMW
LayerCount: 2
Fore
SplineSet
194 486 m 1
 249 471 l 1
 221 365 193 190 193 44 c 0
 193 -324 370 -452 718 -452 c 0
 1097 -452 1235 -300 1235 -3 c 0
 1235 135 1205 323 1160 502 c 1
 1219 518 l 1
 1248 380 l 2
 1289 186 1357 60 1544 60 c 0
 1690 60 1764 142 1782 342 c 2
 1797 511 l 1
 1859 504 l 1
 1846 351 l 2
 1829 150 1917 60 2069 60 c 0
 2216 60 2282 144 2282 316 c 0
 2282 386 2271 480 2251 573 c 1
 2311 585 l 1
 2338 400 l 2
 2373 161 2491 60 2734 60 c 2
 2736 60 l 1
 2736 0 l 1
 2734 0 l 2
 2508 0 2360 99 2328 271 c 1
 2316 86 2228 0 2069 0 c 0
 1923 0 1834 72 1809 200 c 1
 1774 67 1673 0 1532 0 c 0
 1392 0 1323 62 1275 163 c 1
 1341 -289 1184 -513 723 -513 c 0
 312 -513 133 -335 133 30 c 0
 133 184 165 375 194 486 c 1
EndSplineSet
Colour: ff00ff
EndChar

StartChar: uniE04B
Encoding: 57419 57419 362
Width: 1649
GlyphClass: 2
Flags: HMW
LayerCount: 2
Fore
SplineSet
708 60 m 0
 854 60 928 142 946 342 c 2
 962 511 l 1
 1024 504 l 1
 1011 351 l 2
 995 150 1082 60 1242 60 c 0
 1384 60 1456 148 1456 321 c 0
 1456 396 1442 534 1429 596 c 1
 1488 611 l 1
 1502 542 1516 402 1516 322 c 0
 1516 110 1422 0 1241 0 c 0
 1094 0 999 72 974 200 c 1
 939 67 847 0 706 0 c 0
 549 0 452 85 434 238 c 1
 401 96 251 0 61 0 c 2
 0 0 l 2
 -14 0 -20 9 -20 30 c 0
 -20 51 -14 60 0 60 c 2
 61 60 l 2
 290 60 397 168 424 437 c 2
 436 555 l 1
 498 548 l 1
 480 374 l 2
 459 170 539 60 708 60 c 0
EndSplineSet
Colour: ff00ff
EndChar

StartChar: uniE04C
Encoding: 57420 57420 363
Width: 1901
GlyphClass: 2
Flags: HMW
LayerCount: 2
Fore
SplineSet
1234 60 m 0
 1381 60 1447 144 1447 316 c 0
 1447 386 1436 480 1416 573 c 1
 1476 585 l 1
 1503 400 l 2
 1538 161 1656 60 1899 60 c 2
 1901 60 l 1
 1901 0 l 1
 1899 0 l 2
 1673 0 1525 99 1493 271 c 1
 1481 86 1393 0 1234 0 c 0
 1088 0 999 72 974 200 c 1
 939 67 847 0 707 0 c 0
 549 0 452 85 434 238 c 1
 401 96 251 0 61 0 c 2
 0 0 l 2
 -14 0 -20 9 -20 30 c 0
 -20 51 -14 60 0 60 c 2
 61 60 l 2
 290 60 397 168 424 437 c 2
 436 555 l 1
 498 548 l 1
 480 374 l 2
 459 170 539 60 708 60 c 0
 854 60 928 142 946 342 c 2
 962 511 l 1
 1024 504 l 1
 1011 351 l 2
 995 150 1082 60 1234 60 c 0
EndSplineSet
Colour: ff00ff
EndChar

StartChar: uniE04D
Encoding: 57421 57421 364
Width: 2468
GlyphClass: 2
Flags: HMW
LayerCount: 2
Fore
SplineSet
1937 600 m 0
 1790 600 1597 494 1339 107 c 1
 1427 71 1542 60 1673 60 c 0
 1926 60 2193 99 2193 349 c 0
 2193 495 2097 600 1937 600 c 0
1937 661 m 0
 2141 661 2255 524 2255 350 c 0
 2255 260 2226 191 2177 140 c 1
 2241 86 2336 60 2467 60 c 2
 2468 60 l 1
 2468 0 l 1
 2467 0 l 2
 2328 0 2214 33 2135 103 c 1
 2026 24 1854 0 1672 0 c 0
 1511 0 1382 20 1288 62 c 1
 1306 -328 1147 -513 720 -513 c 0
 312 -513 133 -335 133 23 c 0
 133 184 165 375 194 486 c 1
 249 471 l 1
 221 365 193 190 193 24 c 0
 193 -324 370 -452 719 -452 c 0
 1097 -452 1235 -300 1235 0 c 0
 1235 135 1208 299 1160 491 c 1
 1219 508 l 1
 1248 397 1270 265 1282 132 c 1
 1545 530 1764 661 1937 661 c 0
EndSplineSet
Colour: ff00ff
EndChar

StartChar: uniE04E
Encoding: 57422 57422 365
Width: 1686
GlyphClass: 2
Flags: HMW
LayerCount: 2
Fore
SplineSet
1236 600 m 0
 1089 600 896 494 638 107 c 1
 726 71 841 60 972 60 c 0
 1225 60 1492 99 1492 349 c 0
 1492 495 1396 600 1236 600 c 0
397 546 m 1
 458 546 l 1
 458 455 l 2
 458 243 504 185 583 135 c 1
 846 533 1063 661 1236 661 c 0
 1440 661 1553 524 1553 350 c 0
 1553 68 1278 0 971 0 c 0
 674 0 484 71 426 246 c 1
 396 83 241 0 60 0 c 2
 0 0 l 256
 -17 0 -20 13 -20 30 c 256
 -20 47 -17 60 0 60 c 256
 60 60 l 2
 340 60 397 209 397 428 c 258
 397 546 l 1
EndSplineSet
Colour: ff00ff
EndChar

StartChar: uniE04F
Encoding: 57423 57423 366
Width: 1768
GlyphClass: 2
Flags: HMW
LayerCount: 2
Back
SplineSet
1236 600 m 0
 1089 600 896 494 638 107 c 1
 726 71 841 60 972 60 c 0
 1225 60 1492 99 1492 349 c 0
 1492 495 1396 600 1236 600 c 0
397 546 m 1
 458 546 l 1
 458 455 l 2
 458 243 504 185 583 135 c 1
 846 533 1063 661 1236 661 c 0
 1440 661 1553 524 1553 350 c 0
 1553 68 1278 0 971 0 c 0
 674 0 484 71 426 246 c 1
 396 83 241 -2.21653750042e-14 60 0 c 2
 0 0 l 256
 -17 0 -20 13 -20 30 c 256
 -20 47 -17 60 0 60 c 256
 60 60 l 2
 340 60 397 209 397 428 c 258
 397 546 l 1
EndSplineSet
Fore
SplineSet
397 546 m 1
 458 546 l 1
 458 455 l 2
 458 243 504 185 583 135 c 1
 846 533 1063 661 1236 661 c 0
 1440 661 1553 524 1553 350 c 0
 1553 260 1525 191 1476 140 c 1
 1540 86 1636 60 1767 60 c 2
 1768 60 l 1
 1768 0 l 1
 1767 0 l 2
 1628 0 1512 33 1433 103 c 1
 1324 24 1153 0 971 0 c 0
 674 0 484 71 426 246 c 1
 396 83 241 0 60 0 c 2
 0 0 l 256
 -17 0 -20 13 -20 30 c 256
 -20 47 -17 60 0 60 c 256
 60 60 l 2
 340 60 397 209 397 428 c 258
 397 546 l 1
1236 600 m 0
 1089 600 896 494 638 107 c 1
 726 71 841 60 972 60 c 0
 1225 60 1492 99 1492 349 c 0
 1492 495 1396 600 1236 600 c 0
EndSplineSet
Colour: ff00ff
EndChar

StartChar: uniE050
Encoding: 57424 57424 367
Width: 1719
GlyphClass: 2
Flags: HMW
LayerCount: 2
Back
SplineSet
518 60 m 1
 889 60 l 2
 1142 60 1410 99 1410 349 c 0
 1410 495 1314 600 1154 600 c 0
 1003 600 792 495 518 60 c 1
450 60 m 1
 477 103 502 142 528 182 c 1
 522 1298 l 1
 582 1298 l 1
 587 265 l 1
 795 542 982 661 1154 661 c 0
 1358 661 1471 524 1471 350 c 0
 1471 276 1450 216 1417 168 c 1
 1482 100 1578 60 1718 60 c 2
 1719 60 l 1
 1719 0 l 1
 1718 0 l 2
 1556 0 1463 56 1383 130 c 1
 1278 31 1090 0 888 0 c 2
 133 0 l 1
 133 60 l 1
 450 60 l 1
EndSplineSet
Fore
SplineSet
518 60 m 1
 889 60 l 2
 1142 60 1410 99 1410 349 c 0
 1410 495 1314 600 1154 600 c 0
 1003 600 792 495 518 60 c 1
450 60 m 1
 477 103 502 142 528 182 c 1
 528 1298 l 1
 587 1298 l 1
 587 520 l 2
 587 420 586 342 577 250 c 1
 775 521 971 661 1154 661 c 0
 1358 661 1471 524 1471 350 c 0
 1471 276 1450 216 1417 168 c 1
 1482 100 1578 60 1718 60 c 2
 1719 60 l 1
 1719 0 l 1
 1718 0 l 2
 1556 0 1463 56 1383 130 c 1
 1278 31 1090 0 888 0 c 2
 133 0 l 1
 133 60 l 1
 450 60 l 1
EndSplineSet
Colour: ff00ff
EndChar

StartChar: uniE051
Encoding: 57425 57425 368
Width: 1336
GlyphClass: 2
Flags: HMW
LayerCount: 2
Fore
SplineSet
5 0 m 2
 -12 0 -15 13 -15 30 c 0
 -15 47 -12 60 5 60 c 2
 182 60 l 1
 209 103 234 142 260 182 c 1
 260 1298 l 1
 319 1298 l 1
 319 520 l 2
 319 420 318 342 309 250 c 1
 507 521 703 661 886 661 c 0
 1090 661 1203 524 1203 350 c 0
 1203 168 1091 0 620 0 c 2
 5 0 l 2
250 60 m 1
 621 60 l 2
 874 60 1142 99 1142 349 c 0
 1142 495 1046 600 886 600 c 0
 735 600 524 495 250 60 c 1
EndSplineSet
Colour: ff00ff
EndChar

StartChar: uniE052
Encoding: 57426 57426 369
Width: 1453
GlyphClass: 2
Flags: HMW
LayerCount: 2
Fore
SplineSet
5 0 m 2
 -12 0 -15 13 -15 30 c 0
 -15 47 -12 60 5 60 c 2
 184 60 l 1
 211 103 236 142 262 182 c 1
 262 1298 l 1
 321 1298 l 1
 321 520 l 2
 321 420 320 342 311 250 c 1
 509 521 705 661 888 661 c 0
 1092 661 1205 524 1205 350 c 0
 1205 276 1184 216 1151 168 c 1
 1216 100 1312 60 1452 60 c 2
 1453 60 l 1
 1453 0 l 1
 1452 0 l 2
 1290 0 1197 56 1117 130 c 1
 1012 31 824 0 622 0 c 2
 5 0 l 2
252 60 m 1
 623 60 l 2
 876 60 1144 99 1144 349 c 0
 1144 495 1048 600 888 600 c 0
 737 600 526 495 252 60 c 1
EndSplineSet
Colour: ff00ff
EndChar

StartChar: uniE053
Encoding: 57427 57427 370
Width: 1183
GlyphClass: 2
Flags: HMW
LayerCount: 2
Fore
SplineSet
964 481 m 0
 964 621 793 670 658 670 c 0
 507 670 362 628 258 546 c 1
 258 540 l 1
 650 168 l 1
 825 258 964 362 964 481 c 0
1023 479 m 0
 1023 332 875 220 703 126 c 1
 791 60 890 60 999 60 c 2
 1183 60 l 1
 1183 0 l 1
 990 0 l 2
 850 0 751 5 637 95 c 1
 370 -33 192 -178 192 -391 c 0
 192 -662 470 -750 761 -750 c 0
 876 -750 996 -736 1099 -713 c 1
 1111 -776 l 1
 997 -801 872 -815 751 -815 c 0
 428 -815 133 -709 133 -390 c 0
 133 -147 331 13 586 138 c 1
 199 506 l 1
 199 580 l 1
 319 671 476 731 655 731 c 0
 836 731 1023 664 1023 479 c 0
EndSplineSet
Colour: ff00ff
EndChar

StartChar: uniE054
Encoding: 57428 57428 371
Width: 1090
GlyphClass: 2
Flags: HMW
LayerCount: 2
Fore
SplineSet
220 413 m 256
 220 240 366 127 506 127 c 256
 532 127 599 136 662 148 c 258
 948 202 l 257
 957 144 l 257
 455 46 l 258
 297 16 164 0 51 0 c 2
 0 0 l 256
 -16 0 -20 13 -20 30 c 256
 -20 47 -16 60 0 60 c 256
 51 60 l 2
 151 60 250 69 384 91 c 257
 256 143 160 252 160 416 c 256
 160 673 354 832 550 832 c 256
 697 832 782 781 860 693 c 257
 813 652 l 257
 749 725 658 772 548 772 c 256
 389 772 220 641 220 413 c 256
EndSplineSet
Colour: ff00ff
EndChar

StartChar: uniE055
Encoding: 57429 57429 372
Width: 1188
GlyphClass: 2
Flags: HMW
LayerCount: 2
Fore
SplineSet
632 670 m 0
 481 670 337 629 231 546 c 1
 231 540 l 1
 624 168 l 1
 799 258 938 362 938 481 c 0
 938 621 767 670 632 670 c 0
629 731 m 0
 810 731 998 664 998 479 c 0
 998 332 849 220 677 126 c 1
 765 60 865 60 974 60 c 2
 1188 60 l 1
 1188 0 l 1
 963 0 l 2
 823 0 725 5 611 95 c 1
 487 39 360 0 179 0 c 2
 0 0 l 2
 -16 0 -20 13 -20 30 c 0
 -20 47 -16 60 0 60 c 2
 169 60 l 2
 334 60 450 92 560 138 c 1
 172 506 l 1
 172 580 l 1
 294 672 450 731 629 731 c 0
EndSplineSet
Colour: ff00ff
EndChar

StartChar: uniE056
Encoding: 57430 57430 373
Width: 1837
GlyphClass: 2
Flags: HMW
LayerCount: 2
Fore
SplineSet
1442 522 m 2
 1442 187 1550 60 1836 60 c 2
 1837 60 l 1
 1837 0 l 1
 1836 0 l 2
 1596 0 1440 114 1413 310 c 1
 1360 86 1185 0 756 0 c 0
 302 0 133 96 133 355 c 0
 133 425 145 522 165 603 c 1
 218 590 l 1
 199 516 185 415 185 351 c 0
 185 139 340 60 760 60 c 0
 1248 60 1383 166 1383 522 c 2
 1383 1298 l 1
 1442 1298 l 1
 1442 522 l 2
EndSplineSet
Colour: ff00ff
EndChar

StartChar: uniE057
Encoding: 57431 57431 374
Width: 856
GlyphClass: 2
Flags: HMW
LayerCount: 2
Fore
SplineSet
847 1363 m 1
 866 1305 l 1
 554 1200 315 1101 108 990 c 1
 108 980 l 1
 456 743 629 531 629 319 c 0
 629 106 455 0 104 0 c 2
 0 0 l 2
 -14 0 -20 9 -20 30 c 0
 -20 51 -14 60 0 60 c 2
 104 60 l 2
 416 60 569 146 569 322 c 0
 569 510 393 718 62 940 c 1
 62 1029 l 1
 304 1156 565 1267 847 1363 c 1
EndSplineSet
Colour: ff00ff
EndChar

StartChar: uniE058
Encoding: 57432 57432 375
Width: 1126
GlyphClass: 2
Flags: HMW
LayerCount: 2
Fore
SplineSet
847 1363 m 1
 866 1305 l 1
 554 1200 315 1101 108 990 c 1
 108 980 l 1
 395 781 547 623 666 373 c 0
 783 129 882 60 1125 60 c 2
 1126 60 l 1
 1126 0 l 1
 1125 0 l 2
 852 0 714 102 613 379 c 1
 648 124 481 0 104 0 c 2
 0 0 l 2
 -14 0 -20 9 -20 30 c 0
 -20 51 -14 60 0 60 c 2
 104 60 l 2
 416 60 569 146 569 322 c 0
 569 515 384 724 62 940 c 1
 62 1029 l 1
 304 1156 565 1267 847 1363 c 1
EndSplineSet
Colour: ff00ff
EndChar

StartChar: uniE059
Encoding: 57433 57433 376
Width: 1494
GlyphClass: 2
Flags: HMW
LayerCount: 2
Fore
SplineSet
1494 60 m 1
 1494 0 l 1
 1493 0 l 2
 1332 0 1191 66 1140 186 c 1
 1139 -2 l 2
 1137 -384 966 -555 615 -555 c 0
 314 -555 133 -391 133 -107 c 0
 133 19 160 161 219 310 c 1
 274 286 l 1
 219 142 192 2 192 -107 c 0
 192 -361 344 -495 630 -495 c 0
 937 -495 1079 -337 1079 -2 c 2
 1079 1298 l 1
 1139 1298 l 1
 1140 432 l 2
 1140 211 1218 60 1493 60 c 2
 1494 60 l 1
EndSplineSet
Colour: ff00ff
EndChar

StartChar: uniE05A
Encoding: 57434 57434 377
Width: 563
GlyphClass: 2
Flags: HMW
LayerCount: 2
Fore
SplineSet
0 60 m 256
 249 60 313 179 313 408 c 258
 313 1298 l 257
 373 1298 l 257
 373 408 l 258
 373 136 273 0 0 0 c 256
 -15 0 -20 15 -20 30 c 256
 -20 45 -15 60 0 60 c 256
EndSplineSet
Colour: ff00ff
EndChar

StartChar: uniE05B
Encoding: 57435 57435 378
Width: 685
GlyphClass: 2
Flags: HMW
LayerCount: 2
Fore
SplineSet
373 432 m 258
 373 211 409 60 684 60 c 258
 685 60 l 257
 685 0 l 257
 684 0 l 258
 495 0 361 84 342 246 c 257
 322 83 193 0 0 0 c 256
 -15 0 -20 15 -20 30 c 256
 -20 45 -15 60 0 60 c 256
 273 60 313 207 313 426 c 258
 313 1298 l 257
 373 1298 l 257
 373 432 l 258
EndSplineSet
Colour: ff00ff
EndChar

StartChar: uniE05C
Encoding: 57436 57436 379
Width: 1460
GlyphClass: 2
Flags: HMW
LayerCount: 2
Fore
SplineSet
799 617 m 0
 581 617 515 336 472 136 c 1
 510 127 559 115 598 104 c 0
 721 71 805 49 889 49 c 0
 1011 49 1063 121 1063 282 c 0
 1063 441 991 617 799 617 c 0
799 676 m 0
 970 676 1051 564 1114 407 c 0
 1178 246 1262 60 1459 60 c 2
 1460 60 l 1
 1460 0 l 1
 1459 0 l 2
 1288 0 1181 112 1110 292 c 1
 1123 113 1043 -11 889 -11 c 0
 795 -11 704 13 583 45 c 0
 488 71 403 91 343 91 c 0
 234 91 194 31 194 -110 c 2
 194 -803 l 1
 133 -803 l 1
 133 -110 l 2
 133 78 221 183 412 148 c 1
 458 380 543 676 799 676 c 0
EndSplineSet
Colour: ff00ff
EndChar

StartChar: uniE05D
Encoding: 57437 57437 380
Width: 1179
GlyphClass: 2
Flags: HMW
LayerCount: 2
Fore
SplineSet
0 60 m 0
 203 60 283 224 359 383 c 0
 433 538 505 683 681 683 c 0
 871 683 996 476 996 292 c 0
 996 112 877 -11 702 -11 c 0
 554 -11 434 69 322 197 c 1
 256 88 164 0 0 0 c 0
 -17 0 -20 13 -20 30 c 0
 -20 47 -17 60 0 60 c 0
352 249 m 1
 457 120 564 48 703 48 c 0
 850 48 943 146 943 293 c 0
 943 438 833 622 679 622 c 0
 530 622 467 491 398 346 c 2
 352 249 l 1
EndSplineSet
Colour: ff00ff
EndChar

StartChar: uniE05E
Encoding: 57438 57438 381
Width: 1336
GlyphClass: 2
Flags: HMW
LayerCount: 2
Fore
SplineSet
352 249 m 1
 457 120 564 48 703 48 c 0
 850 48 943 146 943 293 c 0
 943 438 833 622 679 622 c 0
 530 622 467 491 398 346 c 2
 352 249 l 1
0 60 m 0
 203 60 283 224 359 383 c 0
 433 538 505 683 681 683 c 0
 861 683 938 528 1006 370 c 0
 1075 210 1150 60 1335 60 c 2
 1336 60 l 1
 1336 0 l 1
 1335 0 l 2
 1162 0 1044 131 992 288 c 1
 982 101 865 -11 702 -11 c 0
 554 -11 434 69 322 197 c 1
 256 88 164 0 0 0 c 0
 -17 0 -20 13 -20 30 c 0
 -20 47 -17 60 0 60 c 0
EndSplineSet
Colour: ff00ff
EndChar

StartChar: uniE05F
Encoding: 57439 57439 382
Width: 1175
GlyphClass: 2
Flags: HMW
LayerCount: 2
Fore
SplineSet
738 775 m 1
 728 938 l 1
 788 941 l 1
 823 348 l 2
 836 137 931 60 1174 60 c 2
 1175 60 l 1
 1175 0 l 1
 1174 0 l 2
 970 0 865 53 808 160 c 1
 728 134 642 123 561 123 c 0
 336 123 200 217 200 377 c 0
 200 576 409 731 738 775 c 1
741 713 m 1
 426 672 265 536 265 376 c 0
 265 255 374 186 563 186 c 0
 639 186 720 197 785 216 c 1
 773 252 766 292 763 344 c 2
 741 713 l 1
EndSplineSet
Colour: ff00ff
EndChar

StartChar: uniE060
Encoding: 57440 57440 383
Width: 1321
GlyphClass: 2
Flags: HMW
LayerCount: 2
Fore
SplineSet
0 60 m 2
 29 60 l 2
 188 60 283 80 387 118 c 1
 268 185 133 297 133 459 c 0
 133 618 237 775 395 811 c 1
 210 890 l 1
 233 945 l 1
 704 744 l 2
 1038 599 1188 482 1188 276 c 0
 1188 81 1052 -11 855 -11 c 0
 728 -11 582 28 458 83 c 1
 337 30 234 0 45 0 c 2
 0 0 l 2
 -16 0 -20 14 -20 30 c 0
 -20 46 -16 60 0 60 c 2
458 148 m 1
 615 227 694 350 694 465 c 0
 694 637 622 757 464 757 c 0
 310 757 192 612 192 459 c 0
 192 312 334 207 458 148 c 1
527 118 m 1
 634 76 756 49 855 49 c 0
 1017 49 1129 113 1129 276 c 0
 1129 436 1022 538 709 676 c 1
 813 429 723 236 527 118 c 1
EndSplineSet
Colour: ff00ff
EndChar

StartChar: uniE061
Encoding: 57441 57441 384
Width: 1005
GlyphClass: 2
Flags: HMW
LayerCount: 2
Fore
SplineSet
549 737 m 0
 707 737 814 620 814 446 c 0
 814 202 587 21 253 3 c 1
 284 -245 423 -421 643 -493 c 1
 651 -487 l 1
 689 -76 768 60 965 60 c 2
 1005 60 l 1
 1005 0 l 1
 952 0 l 2
 798 0 747 -103 708 -514 c 1
 649 -557 l 1
 387 -477 220 -277 187 0 c 1
 0 0 l 2
 -13 0 -20 11 -20 30 c 0
 -20 48 -13 60 0 60 c 2
 180 60 l 1
 160 455 313 737 549 737 c 0
245 63 m 1
 554 76 753 228 753 453 c 0
 753 591 679 678 558 678 c 0
 355 678 226 423 245 63 c 1
EndSplineSet
Colour: ff00ff
EndChar

StartChar: uniE062
Encoding: 57442 57442 385
Width: 975
GlyphClass: 2
Flags: HMW
LayerCount: 2
Fore
SplineSet
791 60 m 1
 782 283 719 627 496 627 c 0
 321 627 242 438 242 264 c 0
 242 107 343 60 503 60 c 1
 598 60 694 60 791 60 c 1
791 0 m 1
 693 0 598 0 503 0 c 1
 312 0 182 71 182 264 c 0
 182 473 284 689 496 689 c 0
 761 689 840 323 848 60 c 1
 975 60 l 1
 975 0 l 1
 848 0 l 1
 835 -278 569 -460 148 -564 c 1
 133 -505 l 1
 549 -402 778 -233 791 0 c 1
EndSplineSet
Colour: ff00ff
EndChar

StartChar: uniE063
Encoding: 57443 57443 386
Width: 1365
GlyphClass: 2
Flags: HMW
LayerCount: 2
Back
SplineSet
517 319 m 257
 458 319 l 257
 458 686 395 978 257 1299 c 257
 311 1322 l 257
 452 992 517 693 517 319 c 257
1114 1298 m 1
 1175 1298 l 1
 1175 694 l 2
 1175 124 922 0 336 0 c 2
 180 0 l 1
 180 60 l 1
 332 60 l 2
 845 60 1114 132 1114 669 c 2
 1114 1298 l 1
EndSplineSet
Fore
SplineSet
257 1299 m 257
 311 1322 l 257
 452 992 517 693 517 319 c 257
 458 319 l 257
 458 686 395 978 257 1299 c 257
1114 1298 m 1
 1175 1298 l 1
 1175 694 l 2
 1175 124 922 0 336 0 c 2
 180 0 l 1
 180 60 l 1
 332 60 l 2
 845 60 1114 132 1114 669 c 2
 1114 1298 l 1
EndSplineSet
Colour: ff00ff
EndChar

StartChar: uniE064
Encoding: 57444 57444 387
Width: 1501
GlyphClass: 2
Flags: HMW
LayerCount: 2
Back
SplineSet
607 319 m 257
 548 319 l 257
 548 686 485 978 347 1299 c 257
 401 1322 l 257
 542 992 607 693 607 319 c 257
1185 1298 m 1
 1245 1298 l 1
 1245 382 l 0
 1245 146 1332 60 1570 60 c 2
 1571 60 l 1
 1571 0 l 1
 1570 0 l 2
 1309 0 1185 123 1185 382 c 2
 1185 587 l 1
 1068 252 768 0 250 0 c 1
 250 60 l 1
 861 60 1185 442 1185 873 c 2
 1185 1298 l 1
EndSplineSet
Fore
SplineSet
277 1299 m 1
 331 1322 l 1
 475 984 537 684 537 319 c 1
 478 319 l 1
 478 678 418 971 277 1299 c 1
1115 1298 m 1
 1175 1298 l 1
 1175 382 l 2
 1175 146 1262 60 1500 60 c 2
 1501 60 l 1
 1501 0 l 1
 1500 0 l 2
 1239 0 1115 123 1115 382 c 2
 1115 454 l 1
 914 149 608 0 180 0 c 1
 180 60 l 1
 610 60 892 203 1115 536 c 1
 1115 1298 l 1
EndSplineSet
Colour: ff00ff
EndChar

StartChar: uniE065
Encoding: 57445 57445 388
Width: 1938
GlyphClass: 2
Flags: HMW
LayerCount: 2
Fore
SplineSet
1643 572 m 257
 1628 489 1616 420 1616 332 c 0
 1616 185 1666 60 1937 60 c 2
 1938 60 l 257
 1938 0 l 257
 1937 0 l 2
 1698 0 1572 109 1559 298 c 257
 1445 79 1165 0 782 0 c 256
 316 0 133 159 133 431 c 256
 133 519 154 621 190 719 c 257
 248 696 l 257
 212 598 192 508 192 426 c 256
 192 185 371 60 796 60 c 256
 1376 60 1537 226 1585 580 c 257
 1643 572 l 257
EndSplineSet
Colour: ff00ff
EndChar

StartChar: uniE066
Encoding: 57446 57446 389
Width: 960
GlyphClass: 2
Flags: HMW
LayerCount: 2
Fore
SplineSet
764 474 m 1
 753 689 687 1011 473 1011 c 0
 297 1011 218 811 218 637 c 0
 218 480 318 435 479 435 c 0
 589 435 685 454 764 474 c 1
0 60 m 0
 217 60 l 2
 610 60 765 117 765 411 c 1
 685 391 590 373 479 373 c 0
 287 373 159 445 159 637 c 0
 159 848 260 1071 473 1071 c 0
 747 1071 827 680 827 406 c 0
 827 99 669 0 189 0 c 0
 0 0 l 0
 -17 0 -20 13 -20 30 c 0
 -20 47 -16 60 0 60 c 0
EndSplineSet
Colour: ff00ff
EndChar

StartChar: uniE067
Encoding: 57447 57447 390
Width: 1936
GlyphClass: 2
Flags: HMW
LayerCount: 2
Fore
SplineSet
1435 70 m 1
 1284 16 1096 0 913 0 c 0
 466 0 133 47 133 389 c 0
 133 498 164 605 195 696 c 1
 251 676 l 1
 220 585 191 485 191 380 c 0
 191 119 443 60 913 60 c 0
 1063 60 1225 73 1357 109 c 1
 1218 182 1115 301 1115 488 c 0
 1115 707 1249 829 1435 829 c 0
 1618 829 1755 706 1755 487 c 0
 1755 299 1643 178 1504 105 c 1
 1585 75 1682 60 1778 60 c 2
 1936 60 l 1
 1936 0 l 1
 1761 0 l 2
 1638 0 1546 22 1435 70 c 1
1435 134 m 1
 1588 202 1694 311 1694 491 c 0
 1694 665 1586 775 1435 775 c 0
 1282 775 1175 665 1175 491 c 0
 1175 313 1282 203 1435 134 c 1
EndSplineSet
Colour: ff00ff
EndChar

StartChar: uniE068
Encoding: 57448 57448 391
Width: 958
GlyphClass: 2
Flags: HMW
LayerCount: 2
Fore
SplineSet
159 488 m 0
 159 707 293 829 479 829 c 0
 662 829 799 706 799 487 c 0
 799 300 687 178 548 105 c 1
 629 75 726 60 822 60 c 2
 958 60 l 1
 958 0 l 1
 805 0 l 2
 682 0 590 22 479 70 c 1
 368 22 273 0 146 0 c 2
 0 0 l 2
 -17 0 -20 13 -20 30 c 0
 -20 47 -17 60 0 60 c 2
 137 60 l 2
 235 60 326 75 412 105 c 1
 272 178 159 301 159 488 c 0
479 134 m 1
 631 203 738 312 738 491 c 0
 738 665 630 775 479 775 c 0
 326 775 219 665 219 491 c 0
 219 313 326 203 479 134 c 1
EndSplineSet
Colour: ff00ff
EndChar

StartChar: uniE069
Encoding: 57449 57449 392
Width: 1523
GlyphClass: 2
Flags: HMW
LayerCount: 2
Fore
SplineSet
1317 60 m 1
 1308 283 1245 626 1022 626 c 0
 847 626 767 437 767 263 c 0
 767 106 869 60 1029 60 c 0
 1124 60 1220 60 1317 60 c 1
1317 0 m 1
 1219 0 1124 0 1029 0 c 0
 838 0 708 70 708 263 c 0
 708 472 810 687 1022 687 c 0
 1287 687 1366 323 1374 60 c 1
 1523 60 l 1
 1523 0 l 1
 1374 0 l 1
 1374 -360 1151 -559 744 -559 c 0
 345 -559 133 -369 133 -9 c 0
 133 97 148 218 177 352 c 1
 236 340 l 1
 208 210 192 91 192 -9 c 0
 192 -345 385 -497 750 -497 c 0
 1109 -497 1317 -325 1317 0 c 1
EndSplineSet
Colour: ff00ff
EndChar

StartChar: uniFD3E
Encoding: 64830 64830 421
Width: 771
GlyphClass: 2
Flags: HMW
LayerCount: 2
Fore
SplineSet
204 666 m 256
 204 563 286 477 389 477 c 256
 492 477 572 563 572 666 c 256
 572 766 495 857 389 857 c 256
 283 857 204 767 204 666 c 256
619 -180 m 1
 569 -212 l 1
 474 -63 395 155 365 426 c 1
 243 438 149 541 149 665 c 0
 149 785 239 899 366 911 c 1
 396 1180 475 1394 569 1542 c 1
 619 1511 l 1
 531 1374 455 1168 425 909 c 1
 544 890 624 780 624 665 c 0
 624 546 539 446 425 428 c 1
 455 167 531 -42 619 -180 c 1
EndSplineSet
EndChar

StartChar: uniFD3F
Encoding: 64831 64831 422
Width: 771
GlyphClass: 2
Flags: HMW
LayerCount: 2
Fore
SplineSet
569 666 m 256
 569 767 490 857 384 857 c 256
 278 857 201 766 201 666 c 256
 201 563 281 477 384 477 c 256
 487 477 569 563 569 666 c 256
152 -180 m 1
 240 -42 316 167 346 428 c 1
 232 446 149 546 149 665 c 0
 149 780 227 890 346 909 c 1
 316 1168 240 1374 152 1511 c 1
 204 1542 l 1
 298 1394 376 1180 406 911 c 1
 533 899 624 785 624 665 c 0
 624 541 529 438 407 426 c 1
 377 155 299 -63 204 -212 c 1
 152 -180 l 1
EndSplineSet
EndChar

StartChar: v
Encoding: 118 118 520
Width: 889
GlyphClass: 2
Flags: HMW
LayerCount: 2
Fore
SplineSet
813 990 m 257
 873 990 l 257
 498 0 l 257
 402 0 l 257
 16 990 l 257
 78 990 l 257
 451 42 l 257
 813 990 l 257
EndSplineSet
Substitution2: "'smcp' Lowercase to Small Capitals in Latin lookup 0 subtable" uni1D20
EndChar

StartChar: w
Encoding: 119 119 521
Width: 1488
GlyphClass: 2
Flags: HMW
LayerCount: 2
Fore
SplineSet
90 990 m 1
 147 990 l 1
 421 60 l 1
 707 968 l 1
 783 968 l 1
 1069 60 l 1
 1343 990 l 1
 1398 990 l 1
 1108 0 l 1
 1034 0 l 1
 744 923 l 1
 456 0 l 1
 381 0 l 1
 90 990 l 1
EndSplineSet
Substitution2: "'smcp' Lowercase to Small Capitals in Latin lookup 0 subtable" uni1D21
EndChar

StartChar: x
Encoding: 120 120 522
Width: 980
GlyphClass: 2
Flags: HMW
LayerCount: 2
Fore
SplineSet
868 990 m 257
 938 990 l 257
 523 500 l 257
 938 0 l 257
 867 0 l 257
 488 457 l 257
 112 0 l 257
 42 0 l 257
 454 500 l 257
 42 990 l 257
 111 990 l 257
 488 540 l 257
 868 990 l 257
EndSplineSet
Substitution2: "'smcp' Lowercase to Small Capitals in Latin lookup 0 subtable" uniA7EF
EndChar

StartChar: y
Encoding: 121 121 523
Width: 889
GlyphClass: 2
Flags: HMW
LayerCount: 2
Fore
SplineSet
813 990 m 5
 873 990 l 5
 317 -477 l 5
 237 -477 l 5
 419 -44 l 5
 16 990 l 5
 78 990 l 5
 451 42 l 5
 813 990 l 5
EndSplineSet
Substitution2: "'smcp' Lowercase to Small Capitals in Latin lookup 0 subtable" uni028F
EndChar

StartChar: z
Encoding: 122 122 527
Width: 868
GlyphClass: 2
Flags: HMW
LayerCount: 2
Fore
SplineSet
53 936 m 257
 53 990 l 257
 816 990 l 257
 816 917 l 257
 100 53 l 257
 816 53 l 257
 816 0 l 257
 53 0 l 257
 53 74 l 257
 767 936 l 257
 53 936 l 257
EndSplineSet
Substitution2: "'smcp' Lowercase to Small Capitals in Latin lookup 0 subtable" uni1D22
EndChar

StartChar: zero
Encoding: 48 48 528
Width: 1044
GlyphClass: 2
Flags: HMW
LayerCount: 2
Fore
SplineSet
521 1342 m 260
 821 1342 934 1044 934 665 c 260
 934 286 822 -11 522 -11 c 260
 222 -11 111 286 111 665 c 260
 111 1044 221 1342 521 1342 c 260
521 1289 m 260
 227 1289 172 964 172 665 c 260
 172 366 228 42 522 42 c 260
 816 42 873 366 873 665 c 260
 873 964 815 1289 521 1289 c 260
EndSplineSet
Substitution2: "'onum' Oldstyle Figures lookup 23 subtable" zero.onum
Substitution2: "'tnum' Tabular Numbers lookup 22 subtable" zero.tnum
Substitution2: "'sinf' Scientific Inferiors lookup 20 subtable" uni2080
Substitution2: "'zero' Slashed Zero lookup 19 subtable" zero.slashed
Substitution2: "'sups' Superscript lookup 0 subtable" uni2070
Substitution2: "'subs' Subscript lookup 0 subtable" uni2080
Substitution2: "'smcp' Lowercase to Small Capitals in Latin lookup 0 subtable" zero.SC
EndChar

StartChar: uniFBE8.Extended_1
Encoding: 1114122 -1 529
Width: 654
Flags: HMW
LayerCount: 2
Fore
SplineSet
464 729 m 257
 497 593 521 469 521 364 c 0
 521 141 418 0 84 0 c 2
 0 0 l 2
 -17 0 -20 13 -20 30 c 0
 -20 47 -17 60 0 60 c 2
 84 60 l 2
 381 60 466 170 466 352 c 0
 466 452 440 574 408 713 c 257
 464 729 l 257
EndSplineSet
Colour: ff00ff
EndChar

StartChar: uniFBE9.Extended_1
Encoding: 1114123 -1 530
Width: 938
Flags: HMW
LayerCount: 2
Fore
SplineSet
542 546 m 257
 542 428 l 258
 542 207 593 60 937 60 c 258
 938 60 l 257
 938 0 l 257
 937 0 l 258
 702 0 539 84 510 246 c 257
 480 83 326 0 84 0 c 2
 0 0 l 2
 -17 0 -20 13 -20 30 c 0
 -20 47 -17 60 0 60 c 2
 84 60 l 2
 425 60 481 209 481 428 c 258
 481 546 l 257
 542 546 l 257
EndSplineSet
Colour: ff00ff
EndChar

StartChar: uniFBE8.Extended_2
Encoding: 1114132 -1 539
Width: 825
Flags: HMW
LayerCount: 2
Fore
SplineSet
635 729 m 257
 668 593 692 469 692 364 c 0
 692 141 589 0 255 0 c 2
 0 0 l 2
 -17 0 -20 13 -20 30 c 0
 -20 47 -17 60 0 60 c 2
 255 60 l 2
 552 60 637 170 637 352 c 0
 637 452 611 574 579 713 c 257
 635 729 l 257
EndSplineSet
Colour: ff00ff
EndChar

StartChar: uniFBE9.Extended_2
Encoding: 1114133 -1 540
Width: 1108
Flags: HMW
LayerCount: 2
Fore
SplineSet
712 546 m 257
 712 428 l 258
 712 207 763 60 1107 60 c 258
 1108 60 l 257
 1108 0 l 257
 1107 0 l 258
 872 0 709 84 680 246 c 257
 650 83 496 0 254 0 c 2
 0 0 l 2
 -17 0 -20 13 -20 30 c 0
 -20 47 -17 60 0 60 c 2
 254 60 l 2
 595 60 651 209 651 428 c 258
 651 546 l 257
 712 546 l 257
EndSplineSet
Colour: ff00ff
EndChar

StartChar: uniE019
Encoding: 57369 57369 553
Width: 1412
Flags: HMW
LayerCount: 2
Fore
SplineSet
502 -86 m 257
 588 0 l 257
 674 -86 l 257
 588 -172 l 257
 502 -86 l 257
832 -87 m 257
 918 -1 l 257
 1004 -87 l 257
 918 -173 l 257
 832 -87 l 257
666 -335 m 257
 752 -249 l 257
 838 -335 l 257
 752 -421 l 257
 666 -335 l 257
EndSplineSet
EndChar

StartChar: dollar.alt
Encoding: 1114146 -1 554
Width: 1140
Flags: HMW
LayerCount: 2
Fore
SplineSet
588 5 m 1
 588 -234 l 257
 528 -234 l 257
 528 5 l 1
 588 5 l 1
528 1319 m 1
 528 1553 l 257
 588 1553 l 257
 588 1319 l 1
 528 1319 l 1
EndSplineSet
Refer: 46 83 N 1 0 0 1 0 0 2
EndChar

StartChar: uniFEE0.alt
Encoding: 1114147 -1 555
Width: 684
Flags: HMW
LayerCount: 2
Fore
SplineSet
373 432 m 258
 373 211 409 60 684 60 c 258
 685 60 l 257
 685 0 l 257
 684 0 l 258
 495 0 361 84 342 246 c 257
 322 83 193 0 0 0 c 256
 -17 0 -20 13 -20 30 c 256
 -20 47 -17 60 0 60 c 256
 273 60 313 207 313 426 c 258
 313 1118 l 257
 373 1118 l 257
 373 432 l 258
EndSplineSet
EndChar

StartChar: uniFBE8.Extended_3
Encoding: 1114148 -1 556
Width: 740
Flags: HMW
LayerCount: 2
Fore
SplineSet
550 729 m 257
 583 593 607 469 607 364 c 0
 607 141 504 0 170 0 c 2
 0 0 l 2
 -17 0 -20 13 -20 30 c 0
 -20 47 -17 60 0 60 c 2
 170 60 l 2
 467 60 552 170 552 352 c 0
 552 452 526 574 494 713 c 257
 550 729 l 257
EndSplineSet
Colour: ff00ff
EndChar

StartChar: uniFBE9.Extended_3
Encoding: 1114149 -1 557
Width: 1023
Flags: HMW
LayerCount: 2
Fore
SplineSet
627 546 m 257
 627 428 l 258
 627 207 678 60 1022 60 c 258
 1023 60 l 257
 1023 0 l 257
 1022 0 l 258
 787 0 624 84 595 246 c 257
 565 83 411 0 169 0 c 2
 0 0 l 2
 -17 0 -20 13 -20 30 c 0
 -20 47 -17 60 0 60 c 2
 169 60 l 2
 510 60 566 209 566 428 c 258
 566 546 l 257
 627 546 l 257
EndSplineSet
Colour: ff00ff
EndChar

StartChar: Arabic_Single_Dot
Encoding: 1114152 -1 560
Width: 418
Flags: HMW
LayerCount: 2
Fore
SplineSet
100 104 m 257
 209 213 l 257
 318 104 l 257
 209 -5 l 257
 100 104 l 257
EndSplineSet
EndChar

StartChar: uniE06E
Encoding: 57454 57454 567
Width: 0
Flags: HMW
LayerCount: 2
Fore
SplineSet
-123 1176 m 1
 28 1176 l 2
 160 1176 258 1204 258 1300 c 0
 258 1362 214 1408 149 1408 c 0
 79 1408 -7 1346 -123 1176 c 1
-158 1176 m 1
 -158 1610 l 1
 -112 1610 l 1
 -112 1269 l 1
 -9 1409 71 1454 153 1454 c 0
 245 1454 304 1386 304 1300 c 0
 304 1169 184 1131 28 1131 c 2
 -304 1131 l 1
 -304 1176 l 1
 -158 1176 l 1
EndSplineSet
Colour: ff00ff
EndChar

StartChar: figuredash
Encoding: 8210 8210 569
Width: 1378
Flags: HMW
LayerCount: 2
Fore
SplineSet
1234 588 m 257
 1234 528 l 257
 146 528 l 257
 146 588 l 257
 1234 588 l 257
EndSplineSet
EndChar

StartChar: uni200E
Encoding: 8206 8206 571
Width: 0
Flags: HMW
LayerCount: 2
Fore
SplineSet
282 1043 m 1
 238 1087 l 1
 422 1271 l 1
 238 1455 l 1
 282 1499 l 1
 510 1271 l 1
 282 1043 l 1
283 -290 m 1
 239 -246 l 1
 423 -62 l 1
 239 122 l 1
 283 166 l 1
 511 -62 l 1
 283 -290 l 1
30 49 m 2
 30 4 67 -33 112 -33 c 2
 274 -33 l 1
 274 -93 l 1
 112 -93 l 2
 33 -93 -30 -30 -30 49 c 2
 -30 1159 l 2
 -30 1238 33 1301 112 1301 c 2
 274 1301 l 1
 274 1241 l 1
 112 1241 l 2
 67 1241 30 1204 30 1159 c 2
 30 49 l 2
EndSplineSet
EndChar

StartChar: uni200F
Encoding: 8207 8207 572
Width: 0
Flags: HMW
LayerCount: 2
Fore
SplineSet
-282 1043 m 1
 -510 1271 l 1
 -282 1499 l 1
 -238 1455 l 1
 -422 1271 l 1
 -238 1087 l 1
 -282 1043 l 1
-283 -290 m 1
 -511 -62 l 1
 -283 166 l 1
 -239 122 l 1
 -423 -62 l 1
 -239 -246 l 1
 -283 -290 l 1
-30 49 m 2
 -30 1159 l 2
 -30 1204 -67 1241 -112 1241 c 2
 -274 1241 l 1
 -274 1301 l 1
 -112 1301 l 2
 -33 1301 30 1238 30 1159 c 2
 30 49 l 2
 30 -30 -33 -93 -112 -93 c 2
 -274 -93 l 1
 -274 -33 l 1
 -112 -33 l 2
 -67 -33 -30 4 -30 49 c 2
EndSplineSet
EndChar

StartChar: uni202A
Encoding: 8234 8234 573
Width: 0
Flags: HMW
LayerCount: 2
Fore
SplineSet
-68 1042 m 1
 -112 1086 l 1
 72 1270 l 1
 -112 1454 l 1
 -68 1498 l 1
 160 1270 l 1
 -68 1042 l 1
-30 893 m 25
 30 893 l 25
 30 49 l 1
 -30 49 l 25
 -30 893 l 25
EndSplineSet
EndChar

StartChar: uni202B
Encoding: 8235 8235 574
Width: 0
Flags: HMW
LayerCount: 2
Fore
SplineSet
68 1042 m 1
 -160 1270 l 1
 68 1498 l 1
 112 1454 l 1
 -72 1270 l 1
 112 1086 l 1
 68 1042 l 1
-30 893 m 25
 30 893 l 25
 30 49 l 25
 -30 49 l 1
 -30 893 l 25
EndSplineSet
EndChar

StartChar: uni202C
Encoding: 8236 8236 575
Width: 0
Flags: HMW
LayerCount: 2
Fore
SplineSet
-228 1185 m 1
 0 1413 l 1
 228 1185 l 1
 184 1141 l 1
 0 1325 l 1
 -184 1141 l 1
 -228 1185 l 1
-30 945 m 25
 30 945 l 25
 30 49 l 25
 -30 49 l 1
 -30 945 l 25
EndSplineSet
EndChar

StartChar: uni202D
Encoding: 8237 8237 576
Width: 0
Flags: HMW
LayerCount: 2
Fore
SplineSet
72 1042 m 1
 28 1086 l 1
 212 1270 l 1
 28 1454 l 1
 72 1498 l 1
 300 1270 l 1
 72 1042 l 1
-156 1042 m 1
 -200 1086 l 1
 -16 1270 l 1
 -200 1454 l 1
 -156 1498 l 1
 72 1270 l 1
 -156 1042 l 1
-30 893 m 25
 30 893 l 25
 30 49 l 1
 -30 49 l 25
 -30 893 l 25
EndSplineSet
EndChar

StartChar: uni202E
Encoding: 8238 8238 577
Width: 0
Flags: HMW
LayerCount: 2
Fore
SplineSet
-72 1042 m 1
 -300 1270 l 1
 -72 1498 l 1
 -28 1454 l 1
 -212 1270 l 1
 -28 1086 l 1
 -72 1042 l 1
156 1042 m 1
 -72 1270 l 1
 156 1498 l 1
 200 1454 l 1
 16 1270 l 1
 200 1086 l 1
 156 1042 l 1
-30 893 m 25
 30 893 l 25
 30 49 l 25
 -30 49 l 1
 -30 893 l 25
EndSplineSet
EndChar

StartChar: uni220E
Encoding: 8718 8718 578
Width: 1042
Flags: HMW
LayerCount: 2
Fore
SplineSet
212 1180 m 1
 831 1180 l 1
 831 0 l 1
 212 0 l 1
 212 1180 l 1
EndSplineSet
EndChar

StartChar: filledbox
Encoding: 9632 9632 579
Width: 1038
Flags: HMW
LayerCount: 2
Fore
SplineSet
212 615 m 1
 827 615 l 1
 827 0 l 1
 212 0 l 1
 212 615 l 1
EndSplineSet
EndChar

StartChar: g.alt
Encoding: 1114159 -1 580
Width: 1175
Flags: HMW
LayerCount: 2
Fore
SplineSet
758 901 m 1
 826 992 902 1045 1030 1045 c 1
 1030 999 l 1
 918 999 860 955 796 870 c 1
 758 901 l 1
558 1000 m 0
 774 1000 908 867 908 642 c 0
 908 417 774 283 558 283 c 0
 342 283 207 417 207 642 c 0
 207 867 342 1000 558 1000 c 0
1028 -178 m 0
 1028 -373 822 -486 560 -486 c 0
 302 -486 128 -415 128 -235 c 0
 128 -99 258 6 413 34 c 1
 446 -11 l 1
 292 -31 185 -122 185 -231 c 0
 185 -379 329 -427 557 -427 c 0
 779 -427 977 -338 977 -183 c 0
 977 -51 872 -19 587 -19 c 0
 324 -19 194 1 194 180 c 0
 194 263 258 353 326 398 c 1
 356 361 l 1
 292 317 244 242 244 183 c 0
 244 40 378 37 608 37 c 0
 922 37 1028 -13 1028 -178 c 0
558 950 m 0
 377 950 267 842 267 642 c 0
 267 442 377 334 558 334 c 0
 739 334 848 442 848 642 c 0
 848 842 739 950 558 950 c 0
EndSplineSet
EndChar

StartChar: uni0601
Encoding: 1537 1537 581
Width: 3858
Flags: HMW
LayerCount: 2
Fore
SplineSet
134 172 m 1
 185 203 l 1
 246 91 286 20 382 20 c 0
 475 20 509 129 545 248 c 0
 588 389 636 544 792 544 c 0
 925 544 1010 422 1097 294 c 0
 1189 158 1285 20 1445 20 c 0
 1596 20 1683 183 1759 330 c 1
 1808 337 l 1
 2027 82 2356 20 2560 20 c 0
 2847 20 3075 161 3252 281 c 0
 3407 386 3465 421 3557 421 c 0
 3652 421 3718 352 3718 254 c 0
 3718 159 3673 57 3572 -47 c 1
 3528 -5 l 1
 3621 91 3658 179 3658 254 c 0
 3658 322 3621 361 3561 361 c 0
 3485 361 3434 331 3286 231 c 0
 3108 111 2867 -40 2560 -40 c 0
 2342 -40 2049 16 1794 266 c 1
 1717 121 1630 -40 1440 -40 c 0
 1254 -40 1140 122 1039 266 c 0
 959 381 886 484 792 484 c 0
 681 484 643 363 603 235 c 0
 561 100 517 -40 382 -40 c 0
 256 -40 207 44 134 172 c 1
EndSplineSet
Colour: ffff00
EndChar

StartChar: uni0603
Encoding: 1539 1539 582
Width: 2051
Flags: HMW
LayerCount: 2
Fore
SplineSet
134 0 m 9
 134 60 l 17
 440 60 677 203 761 568 c 1
 819 555 l 1
 734 180 509 0 134 0 c 9
1856 349 m 0
 1856 495 1760 600 1600 600 c 0
 1453 600 1250 484 1021 140 c 1
 964 170 l 1
 1191 514 1427 661 1600 661 c 0
 1804 661 1917 524 1917 350 c 0
 1917 68 1681 1 1413 1 c 0
 1072 1 857 130 696 340 c 1
 744 376 l 1
 900 182 1101 59 1423 59 c 0
 1645 59 1856 111 1856 349 c 0
EndSplineSet
Colour: ffff00
EndChar

StartChar: uni0604
Encoding: 1540 1540 583
Width: 2898
Flags: HMW
LayerCount: 2
Fore
SplineSet
1292 -158 m 1
 1070 -51 953 0 729 0 c 2
 135 0 l 1
 135 60 l 1
 733 60 l 2
 792 60 854 56 917 40 c 1
 849 111 820 198 820 285 c 0
 820 485 976 683 1181 683 c 0
 1356 683 1439 584 1526 480 c 0
 1617 371 1712 260 1917 260 c 0
 2107 260 2187 356 2187 542 c 2
 2187 735 l 1
 2249 735 l 1
 2249 542 l 2
 2249 356 2325 260 2487 260 c 0
 2647 260 2705 365 2705 517 c 0
 2705 596 2691 715 2674 795 c 1
 2732 807 l 1
 2750 720 2763 600 2763 519 c 0
 2763 340 2703 200 2487 200 c 0
 2322 200 2251 271 2216 402 c 1
 2181 271 2110 200 1921 200 c 0
 1688 200 1582 324 1485 438 c 0
 1403 535 1327 622 1185 622 c 0
 993 622 879 459 879 283 c 0
 879 85 1078 -1 1225 -61 c 0
 1264 -77 1297 -92 1319 -103 c 1
 1292 -158 l 1
EndSplineSet
Colour: ffff00
EndChar

StartChar: uni060D
Encoding: 1549 1549 587
Width: 875
Flags: HMW
LayerCount: 2
Fore
SplineSet
227 -667 m 257
 161 -667 l 257
 651 583 l 257
 717 583 l 257
 227 -667 l 257
EndSplineSet
Colour: ffff00
EndChar

StartChar: uni060E
Encoding: 1550 1550 588
Width: 2206
Flags: HMW
LayerCount: 2
Fore
SplineSet
936 415 m 0
 936 284 865 149 765 9 c 9
 717 43 l 17
 815 179 876 306 876 415 c 0
 876 592 740 718 545 718 c 256
 377 718 194 576 194 351 c 256
 194 140 385 58 619 58 c 258
 2071 58 l 257
 2071 0 l 257
 615 0 l 258
 329 0 135 121 135 351 c 256
 135 606 338 777 545 777 c 256
 774 777 936 624 936 415 c 0
EndSplineSet
Colour: ffff00
EndChar

StartChar: uni060F
Encoding: 1551 1551 589
Width: 1500
Flags: HMW
LayerCount: 2
Fore
SplineSet
815 -742 m 0
 478 -742 135 -603 135 -263 c 256
 135 13 353 265 666 356 c 257
 421 356 216 475 216 705 c 256
 216 960 419 1131 626 1131 c 256
 777 1131 878 1062 943 988 c 257
 891 943 l 257
 835 1010 761 1072 626 1072 c 256
 458 1072 275 930 275 705 c 256
 275 494 463 413 726 413 c 256
 816 413 951 431 1018 441 c 257
 1025 376 l 257
 626 346 194 147 194 -273 c 256
 194 -569 524 -684 821 -684 c 0
 1042 -684 1304 -616 1304 -389 c 0
 1304 -243 1208 -138 1048 -138 c 0
 901 -138 708 -244 450 -631 c 1
 289 -869 l 1
 236 -833 l 1
 395 -603 l 1
 658 -205 875 -77 1048 -77 c 0
 1252 -77 1365 -214 1365 -388 c 0
 1365 -653 1077 -742 815 -742 c 0
EndSplineSet
Colour: ffff00
EndChar

StartChar: uni06DD
Encoding: 1757 1757 694
Width: 0
Flags: HMW
LayerCount: 2
Fore
SplineSet
983 641 m 0
 983 434 993 187 1021 -54 c 0
 1021 -55 1021 -56 1021 -57 c 0
 1021 -69 1011 -80 1000 -82 c 0
 765 -125 622 -186 495 -242 c 0
 346 -307 199 -361 0 -361 c 0
 -199 -361 -346 -307 -495 -242 c 0
 -622 -186 -765 -125 -1000 -82 c 0
 -1011 -80 -1021 -69 -1021 -57 c 0
 -1021 -56 -1021 -55 -1021 -54 c 0
 -993 187 -983 434 -983 641 c 0
 -983 848 -993 1096 -1021 1337 c 0
 -1021 1338 -1021 1339 -1021 1340 c 0
 -1021 1352 -1011 1363 -1000 1365 c 0
 -765 1408 -622 1469 -495 1525 c 0
 -346 1590 -199 1644 -0 1644 c 0
 199 1644 346 1590 495 1525 c 0
 622 1469 765 1408 1000 1365 c 0
 1011 1363 1021 1352 1021 1340 c 0
 1021 1339 1021 1338 1021 1337 c 0
 993 1096 983 848 983 641 c 0
0 1594 m 0
 -189 1594 -328 1544 -475 1479 c 0
 -598 1425 -743 1363 -969 1320 c 1
 -943 1084 -933 843 -933 641 c 0
 -933 439 -943 199 -969 -37 c 1
 -743 -80 -598 -142 -475 -196 c 0
 -328 -261 -189 -311 -0 -311 c 0
 189 -311 328 -261 475 -196 c 0
 598 -142 743 -80 969 -37 c 1
 943 199 933 439 933 641 c 0
 933 843 943 1084 969 1320 c 1
 743 1363 598 1425 475 1479 c 0
 328 1544 189 1594 0 1594 c 0
EndSplineSet
Colour: ffff00
EndChar

StartChar: uni06DE
Encoding: 1758 1758 695
Width: 2663
Flags: HMW
LayerCount: 2
Fore
SplineSet
1331 1485 m 0
 1371 1485 1404 1451 1404 1411 c 0
 1404 1371 1371 1337 1331 1337 c 0
 1291 1337 1257 1371 1257 1411 c 0
 1257 1451 1291 1485 1331 1485 c 0
1331 -117 m 0
 1371 -117 1405 -151 1405 -191 c 0
 1405 -231 1371 -265 1331 -265 c 0
 1291 -265 1258 -231 1258 -191 c 0
 1258 -151 1291 -117 1331 -117 c 0
530 683 m 0
 570 683 604 650 604 610 c 0
 604 570 570 536 530 536 c 0
 490 536 456 570 456 610 c 0
 456 650 490 683 530 683 c 0
2132 684 m 0
 2172 684 2206 650 2206 610 c 0
 2206 570 2172 537 2132 537 c 0
 2092 537 2058 570 2058 610 c 0
 2058 650 2092 684 2132 684 c 0
790 1224 m 0
 829 1224 864 1189 864 1150 c 0
 864 1111 829 1077 790 1077 c 0
 751 1077 717 1111 717 1150 c 0
 717 1189 751 1224 790 1224 c 0
1872 143 m 0
 1911 143 1945 109 1945 70 c 0
 1945 31 1911 -4 1872 -4 c 0
 1833 -4 1798 31 1798 70 c 0
 1798 109 1833 143 1872 143 c 0
791 143 m 0
 830 143 864 108 864 69 c 0
 864 30 830 -4 791 -4 c 0
 752 -4 717 30 717 69 c 0
 717 108 752 143 791 143 c 0
1871 1224 m 0
 1910 1224 1945 1190 1945 1151 c 0
 1945 1112 1910 1077 1871 1077 c 0
 1832 1077 1798 1112 1798 1151 c 0
 1798 1190 1832 1224 1871 1224 c 0
1332 1670 m 1
 1021 1360 l 1
 581 1360 l 1
 581 921 l 1
 271 610 l 1
 581 299 l 1
 581 -140 l 1
 1021 -140 l 1
 1332 -450 l 1
 1642 -140 l 1
 2081 -140 l 1
 2081 299 l 1
 2392 610 l 1
 2081 921 l 1
 2081 1360 l 1
 1642 1360 l 1
 1332 1670 l 1
1331 1741 m 1
 1663 1410 l 1
 2131 1410 l 1
 2131 942 l 1
 2463 610 l 1
 2131 278 l 1
 2131 -190 l 1
 1663 -190 l 1
 1331 -521 l 1
 1000 -190 l 1
 531 -190 l 1
 531 279 l 1
 200 610 l 1
 531 941 l 1
 531 1410 l 1
 1000 1410 l 1
 1331 1741 l 1
EndSplineSet
Refer: 333 57390 N 1 0 0 1 896 188 2
Colour: ffff00
EndChar

StartChar: uni06DF
Encoding: 1759 1759 696
Width: 0
Flags: HMW
LayerCount: 2
Fore
SplineSet
-82 1464 m 0
 -82 1509 -45 1545 0 1545 c 0
 45 1545 82 1509 82 1464 c 0
 82 1419 45 1382 0 1382 c 0
 -45 1382 -82 1419 -82 1464 c 0
EndSplineSet
Colour: ff00ff
EndChar

StartChar: uni06E0
Encoding: 1760 1760 697
Width: 0
Flags: HMW
LayerCount: 2
Fore
SplineSet
-82 1382 m 1
 -82 1545 l 1
 82 1545 l 1
 82 1382 l 1
 -82 1382 l 1
EndSplineSet
Colour: ff00ff
EndChar

StartChar: uni06E9
Encoding: 1769 1769 706
Width: 1236
Flags: HMW
LayerCount: 2
Fore
SplineSet
358 52 m 1
 358 702 l 1
 133 959 l 1
 618 1404 l 1
 1103 959 l 1
 878 702 l 1
 878 52 l 1
 1040 52 l 1
 1040 0 l 1
 196 0 l 1
 196 52 l 1
 358 52 l 1
820 723 m 1
 1025 947 l 1
 618 1316 l 1
 211 947 l 1
 416 723 l 1
 416 52 l 1
 820 52 l 1
 820 723 l 1
648 888 m 1
 648 203 l 1
 588 203 l 1
 588 888 l 1
 648 888 l 1
EndSplineSet
Colour: ffff00
EndChar

StartChar: arrowleft
Encoding: 8592 8592 795
Width: 1218
Flags: HMW
LayerCount: 2
Fore
SplineSet
1068 464 m 1
 296 464 l 1
 257 475 l 1
 522 210 l 1
 478 166 l 1
 150 494 l 1
 478 822 l 1
 522 778 l 1
 257 513 l 1
 296 524 l 1
 1068 524 l 1
 1068 464 l 1
EndSplineSet
Colour: ffff00
EndChar

StartChar: arrowup
Encoding: 8593 8593 796
Width: 956
Flags: HMW
LayerCount: 2
Fore
SplineSet
448 -15 m 1
 448 757 l 1
 459 796 l 1
 194 531 l 1
 150 575 l 1
 478 903 l 1
 806 575 l 1
 762 531 l 1
 497 796 l 1
 508 757 l 1
 508 -15 l 1
 448 -15 l 1
EndSplineSet
Colour: ffff00
EndChar

StartChar: arrowright
Encoding: 8594 8594 797
Width: 1218
Flags: HMW
LayerCount: 2
Fore
SplineSet
150 524 m 1
 922 524 l 1
 961 513 l 1
 696 778 l 1
 740 822 l 1
 1068 494 l 1
 740 166 l 1
 696 210 l 1
 961 475 l 1
 922 464 l 1
 150 464 l 1
 150 524 l 1
EndSplineSet
Colour: ffff00
EndChar

StartChar: arrowdown
Encoding: 8595 8595 798
Width: 956
Flags: HMW
LayerCount: 2
Fore
SplineSet
508 1003 m 1
 508 231 l 1
 497 192 l 1
 762 457 l 1
 806 413 l 1
 478 85 l 1
 150 413 l 1
 194 457 l 1
 459 192 l 1
 448 231 l 1
 448 1003 l 1
 508 1003 l 1
EndSplineSet
Colour: ffff00
EndChar

StartChar: arrowboth
Encoding: 8596 8596 799
Width: 1554
Flags: HMW
LayerCount: 2
Fore
SplineSet
478 822 m 1
 522 778 l 1
 257 513 l 1
 296 524 l 1
 1258 524 l 1
 1297 513 l 1
 1032 778 l 1
 1076 822 l 1
 1404 494 l 1
 1076 166 l 1
 1032 210 l 1
 1297 475 l 1
 1258 464 l 1
 296 464 l 1
 257 475 l 1
 522 210 l 1
 478 166 l 1
 150 494 l 1
 478 822 l 1
EndSplineSet
Colour: ffff00
EndChar

StartChar: arrowupdn
Encoding: 8597 8597 800
Width: 956
Flags: HMW
LayerCount: 2
Fore
SplineSet
478 1121 m 1
 806 793 l 1
 762 749 l 1
 497 1014 l 1
 508 975 l 1
 508 13 l 1
 497 -26 l 1
 762 239 l 1
 806 195 l 1
 478 -133 l 1
 150 195 l 1
 194 239 l 1
 459 -26 l 1
 448 13 l 1
 448 975 l 1
 459 1014 l 1
 194 749 l 1
 150 793 l 1
 478 1121 l 1
EndSplineSet
Colour: ffff00
EndChar

StartChar: uni2196
Encoding: 8598 8598 801
Width: 1039
Flags: HMW
LayerCount: 2
Fore
SplineSet
847 114 m 1
 232 729 l 1
 212 764 l 1
 212 389 l 1
 150 389 l 1
 150 853 l 1
 614 853 l 1
 614 791 l 1
 239 791 l 1
 274 771 l 1
 889 156 l 1
 847 114 l 1
EndSplineSet
Colour: ffff00
EndChar

StartChar: uni2197
Encoding: 8599 8599 802
Width: 1039
Flags: HMW
LayerCount: 2
Fore
SplineSet
150 156 m 1
 765 771 l 1
 800 791 l 1
 425 791 l 1
 425 853 l 1
 889 853 l 1
 889 389 l 1
 827 389 l 1
 827 764 l 1
 807 729 l 1
 192 114 l 1
 150 156 l 1
EndSplineSet
Colour: ffff00
EndChar

StartChar: uni2198
Encoding: 8600 8600 803
Width: 1039
Flags: HMW
LayerCount: 2
Fore
SplineSet
192 853 m 1
 807 238 l 1
 827 203 l 1
 827 578 l 1
 889 578 l 1
 889 114 l 1
 425 114 l 1
 425 176 l 1
 800 176 l 1
 765 196 l 1
 150 811 l 1
 192 853 l 1
EndSplineSet
Colour: ffff00
EndChar

StartChar: uni2199
Encoding: 8601 8601 804
Width: 1039
Flags: HMW
LayerCount: 2
Fore
SplineSet
889 811 m 1
 274 196 l 1
 239 176 l 1
 614 176 l 1
 614 114 l 1
 150 114 l 1
 150 578 l 1
 212 578 l 1
 212 203 l 1
 232 238 l 1
 847 853 l 1
 889 811 l 1
EndSplineSet
Colour: ffff00
EndChar

StartChar: uni0664.urdu
Encoding: 1114160 -1 872
Width: 1129
Flags: HMW
LayerCount: 2
Fore
SplineSet
996 1303 m 1
 863 1226 743 1143 648 1033 c 1
 601 1035 l 1
 492 1185 l 2
 444 1251 386 1282 328 1282 c 0
 237 1282 159 1205 159 1113 c 0
 159 1077 171 1037 200 996 c 2
 560 377 l 2
 603 303 640 211 640 116 c 0
 640 73 633 30 615 -12 c 1
 559 12 l 1
 573 47 579 83 579 118 c 0
 579 199 548 278 510 343 c 2
 150 962 l 2
 115 1011 99 1063 99 1113 c 0
 99 1239 204 1342 328 1342 c 0
 408 1342 482 1300 540 1221 c 2
 628 1101 l 1
 724 1203 842 1283 966 1355 c 1
 996 1303 l 1
EndSplineSet
Substitution2: "'tnum' Tabular Numbers lookup 22 subtable" uni0664.urdu.tnum
Colour: ffff00
EndChar

StartChar: uni0667.urdu
Encoding: 1114161 -1 873
Width: 1111
Flags: HMW
LayerCount: 2
Fore
SplineSet
958 114 m 1
 978 58 l 1
 848 11 720 -10 590 -10 c 0
 446 -10 301 16 149 64 c 1
 133 110 l 1
 328 428 455 902 515 1342 c 1
 575 1334 l 1
 517 904 396 438 206 110 c 1
 342 72 470 51 596 51 c 0
 717 51 836 70 958 114 c 1
EndSplineSet
Substitution2: "'tnum' Tabular Numbers lookup 22 subtable" uni0667.urdu.tnum
Colour: ffff00
EndChar

StartChar: uniE06F
Encoding: 57455 57455 1208
Width: 0
Flags: HMW
LayerCount: 2
Fore
SplineSet
7 1228 m 1
 58 1205 112 1183 176 1183 c 0
 256 1183 331 1213 331 1295 c 0
 331 1353 291 1395 230 1395 c 0
 170 1395 105 1363 7 1228 c 1
-34 1248 m 1
 59 1378 144 1443 234 1443 c 0
 323 1443 379 1377 379 1295 c 0
 379 1169 262 1131 161 1131 c 0
 87 1131 29 1158 -25 1184 c 0
 -73 1207 -115 1227 -165 1227 c 0
 -245 1227 -297 1146 -336 1083 c 1
 -378 1109 l 1
 -305 1240 -228 1282 -164 1282 c 0
 -117 1282 -76 1267 -34 1248 c 1
EndSplineSet
Colour: ffff
EndChar

StartChar: uniE070
Encoding: 57456 57456 1209
Width: 0
Flags: HMW
LayerCount: 2
Fore
SplineSet
230 1381 m 1
 230 1254 161 1151 0 1151 c 0
 -161 1151 -230 1255 -230 1381 c 1
 -185 1381 l 1
 -185 1278 -142 1195 0 1195 c 0
 138 1195 185 1282 185 1381 c 1
 230 1381 l 1
EndSplineSet
Colour: ffff
EndChar

StartChar: uniE071
Encoding: 57457 57457 1210
Width: 0
Flags: HMW
LayerCount: 2
Fore
SplineSet
230 1195 m 281
 -230 1195 l 281
 -230 1240 l 281
 230 1240 l 257
 230 1195 l 281
EndSplineSet
Colour: ffff
EndChar

StartChar: uniE072
Encoding: 57458 57458 1211
Width: 0
Flags: HMW
LayerCount: 2
Fore
SplineSet
-85 1583 m 0
 -146 1583 -173 1526 -173 1462 c 0
 -173 1413 -155 1369 -121 1327 c 1
 -57 1338 40 1372 40 1451 c 0
 40 1521 -22 1583 -85 1583 c 0
-87 1627 m 0
 11 1627 84 1529 84 1448 c 0
 84 1350 -14 1309 -88 1290 c 1
 -12 1236 114 1183 218 1155 c 1
 203 1113 l 1
 -40 1183 -219 1283 -219 1464 c 0
 -219 1559 -167 1627 -87 1627 c 0
EndSplineSet
Colour: ffff
EndChar

StartChar: uniE073
Encoding: 57459 57459 1212
Width: 0
Flags: HMW
LayerCount: 2
Fore
SplineSet
-196 1131 m 1
 -216 1171 l 1
 198 1368 l 1
 218 1328 l 1
 -196 1131 l 1
-178 1420 m 257
 -111 1487 l 257
 -44 1420 l 257
 -111 1354 l 257
 -178 1420 l 257
18 1063 m 257
 85 1130 l 257
 152 1063 l 257
 85 997 l 257
 18 1063 l 257
EndSplineSet
Colour: ffff
EndChar

StartChar: uniE09E
Encoding: 57502 57502 1213
Width: 1018
Flags: HMW
LayerCount: 2
Fore
SplineSet
842 217 m 0
 842 257 835 310 817 355 c 1
 860 368 l 1
 875 318 888 266 888 218 c 0
 888 52 775 0 509 0 c 0
 243 0 130 52 130 218 c 0
 130 266 142 318 157 368 c 1
 201 355 l 1
 186 307 176 258 176 217 c 0
 176 96 253 46 509 46 c 0
 765 46 842 96 842 217 c 0
366 413 m 1
 422 469 l 1
 477 413 l 1
 422 357 l 1
 366 413 l 1
540 413 m 1
 596 469 l 1
 651 413 l 1
 596 357 l 1
 540 413 l 1
EndSplineSet
Colour: ffff
EndChar

StartChar: uniE075
Encoding: 57461 57461 1214
Width: 2087
Flags: HMW
LayerCount: 2
Fore
SplineSet
919 1080 m 1
 949 1031 l 1
 580 812 425 669 425 544 c 1
 1397 544 l 2
 1821 544 1954 498 1954 349 c 0
 1954 138 1690 0 1285 0 c 2
 133 0 l 1
 133 60 l 1
 1293 60 l 2
 1655 60 1894 178 1894 345 c 0
 1894 459 1783 484 1381 484 c 2
 413 484 l 1
 370 531 l 1
 370 693 518 841 919 1080 c 1
EndSplineSet
Colour: ffff
EndChar

StartChar: uniE076
Encoding: 57462 57462 1215
Width: 1785
Flags: HMW
LayerCount: 2
Fore
SplineSet
554 286 m 1
 539 268 l 1
 447 239 266 178 159 134 c 1
 137 195 l 1
 334 270 427 305 488 305 c 0
 514 305 534 298 554 286 c 1
EndSplineSet
Refer: 349 57406 N 1 0 0 1 323 0 2
Colour: ffff
EndChar

StartChar: uniE077
Encoding: 57463 57463 1216
Width: 1667
Flags: HMW
LayerCount: 2
Fore
SplineSet
1300 825 m 1
 1271 947 1239 1071 1121 1071 c 0
 1033 1071 985 976 946 896 c 0
 840 678 704 555 518 506 c 0
 343 460 193 387 193 222 c 0
 193 93 303 60 443 60 c 2
 1534 60 l 1
 1534 0 l 1
 443 0 l 2
 277 0 133 52 133 222 c 0
 133 435 331 518 504 564 c 0
 686 613 797 732 887 912 c 0
 934 1007 997 1131 1121 1131 c 0
 1285 1131 1322 985 1357 838 c 1
 1300 825 l 1
EndSplineSet
Colour: ffff
EndChar

StartChar: uniE078
Encoding: 57464 57464 1217
Width: 1476
Flags: HMW
LayerCount: 2
Fore
SplineSet
986 1190 m 1
 1020 1181 1057 1175 1104 1175 c 0
 1196 1175 1302 1186 1302 1281 c 0
 1302 1333 1267 1371 1209 1371 c 0
 1156 1371 1081 1326 986 1190 c 1
945 1209 m 1
 1046 1357 1135 1415 1209 1415 c 0
 1291 1415 1346 1363 1346 1281 c 0
 1346 1157 1225 1131 1103 1131 c 0
 993 1131 925 1153 885 1211 c 1
 852 1157 814 1131 732 1131 c 0
 657 1131 606 1156 578 1201 c 1
 551 1157 511 1131 441 1131 c 2
 409 1131 l 2
 294 1131 176 1086 176 988 c 0
 176 941 218 933 265 933 c 2
 838 933 l 1
 838 889 l 1
 265 889 l 2
 190 889 130 915 130 988 c 0
 130 1095 247 1175 409 1175 c 2
 441 1175 l 2
 539 1175 556 1218 556 1311 c 2
 556 1621 l 1
 600 1621 l 1
 600 1314 l 2
 600 1221 624 1175 732 1175 c 0
 830 1175 864 1211 864 1323 c 2
 864 1379 l 1
 908 1379 l 1
 908 1323 l 2
 908 1257 915 1234 945 1209 c 1
EndSplineSet
Colour: ffff
EndChar

StartChar: uniE079
Encoding: 57465 57465 1218
Width: 1186
Flags: HMW
LayerCount: 2
Fore
SplineSet
812 1396 m 4
 812 1338 848 1325 907 1325 c 4
 946 1325 979 1332 1010 1339 c 5
 1004 1412 986 1535 904 1535 c 4
 838 1535 812 1457 812 1396 c 4
1011 1291 m 5
 981 1285 947 1279 907 1279 c 4
 824 1279 768 1315 768 1396 c 4
 768 1482 809 1579 904 1579 c 4
 1025 1579 1056 1412 1056 1303 c 4
 1056 1155 955 1131 791 1131 c 6
 715 1131 l 6
 647 1131 606 1156 578 1201 c 5
 551 1157 511 1131 441 1131 c 6
 409 1131 l 6
 294 1131 176 1086 176 988 c 4
 176 941 218 933 265 933 c 6
 838 933 l 5
 838 889 l 5
 265 889 l 6
 190 889 130 915 130 988 c 4
 130 1095 247 1175 409 1175 c 6
 441 1175 l 6
 539 1175 556 1218 556 1311 c 6
 556 1621 l 5
 600 1621 l 5
 600 1314 l 6
 600 1221 617 1175 715 1175 c 6
 802 1175 l 6
 929 1175 1002 1182 1011 1291 c 5
1039 1691 m 5
 991 1643 l 5
 944 1691 l 5
 991 1738 l 5
 1039 1691 l 5
900 1691 m 5
 852 1643 l 5
 804 1691 l 5
 852 1738 l 5
 900 1691 l 5
EndSplineSet
Colour: ffff
EndChar

StartChar: uniE07A
Encoding: 57466 57466 1219
Width: 0
Flags: HMW
LayerCount: 2
Fore
SplineSet
-110 1377 m 1
 110 1377 l 1
 110 1331 l 1
 -110 1331 l 1
 -110 1377 l 1
EndSplineSet
Colour: ffff
EndChar

StartChar: uniE07B
Encoding: 57467 57467 1220
Width: 0
Flags: HMW
LayerCount: 2
Fore
SplineSet
-97 1282 m 1
 -165 1650 l 1
 -122 1658 l 1
 -55 1291 l 1
 -97 1282 l 1
208 1657 m 1
 208 1326 l 2
 208 1138 60 1131 -24 1131 c 2
 -208 1131 l 1
 -208 1177 l 1
 -26 1177 l 2
 98 1177 162 1200 162 1326 c 2
 162 1657 l 1
 208 1657 l 1
EndSplineSet
Colour: ffff
EndChar

StartChar: uniE07C
Encoding: 57468 57468 1221
Width: 0
Flags: HMW
LayerCount: 2
Fore
SplineSet
0 1182 m 1
 51 1131 l 1
 0 1080 l 1
 -51 1131 l 1
 0 1182 l 1
106 1375 m 1
 -30 1433 l 2
 -55 1444 -75 1449 -92 1449 c 0
 -141 1449 -155 1408 -165 1356 c 1
 -208 1365 l 1
 -193 1429 -170 1493 -92 1493 c 0
 -67 1493 -39 1486 -12 1474 c 2
 174 1392 l 1
 165 1345 l 1
 -70 1280 -180 1198 -180 1089 c 0
 -180 1003 -96 967 4 967 c 0
 65 967 125 982 171 1001 c 1
 186 959 l 1
 133 938 69 921 3 921 c 0
 -111 921 -224 967 -224 1090 c 0
 -224 1217 -112 1306 106 1375 c 1
EndSplineSet
Colour: ffff
EndChar

StartChar: uniE07D
Encoding: 57469 57469 1222
Width: 0
Flags: HMW
LayerCount: 2
Fore
SplineSet
-106 1248 m 1
 -48 1189 l 1
 -106 1131 l 1
 -164 1189 l 1
 -106 1248 l 1
106 1248 m 1
 164 1189 l 1
 106 1131 l 1
 47 1189 l 1
 106 1248 l 1
0 1423 m 1
 59 1365 l 1
 0 1306 l 1
 -58 1365 l 1
 0 1423 l 1
EndSplineSet
Colour: ffff
EndChar

StartChar: uniE07E
Encoding: 57470 57470 1223
Width: 0
Flags: HMW
LayerCount: 2
Fore
SplineSet
230 1188 m 1
 210 1152 180 1131 126 1131 c 0
 87 1131 59 1147 38 1165 c 1
 55 1000 -37 925 -199 925 c 0
 -359 925 -444 994 -444 1150 c 0
 -444 1222 -431 1298 -417 1348 c 1
 -375 1337 l 1
 -387 1290 -400 1222 -400 1151 c 0
 -400 1016 -332 970 -199 970 c 0
 -70 970 -4 1012 -4 1141 c 0
 -4 1195 -17 1276 -36 1352 c 1
 9 1366 l 1
 22 1299 l 2
 42 1214 61 1175 127 1175 c 0
 191 1175 204 1218 212 1280 c 2
 222 1361 l 1
 267 1357 l 1
 258 1278 l 2
 257 1269 256 1260 256 1253 c 0
 256 1198 283 1175 335 1175 c 0
 397 1175 418 1208 418 1268 c 0
 418 1303 411 1353 404 1387 c 1
 449 1396 l 1
 457 1358 464 1306 464 1269 c 0
 464 1183 427 1131 335 1131 c 0
 286 1131 250 1149 230 1188 c 1
EndSplineSet
Colour: ffff
EndChar

StartChar: uniE07F
Encoding: 57471 57471 1224
Width: 0
Flags: HMW
LayerCount: 2
Fore
SplineSet
-82 1413 m 0
 -82 1458 -45 1494 0 1494 c 0
 45 1494 82 1458 82 1413 c 0
 82 1368 45 1331 0 1331 c 0
 -45 1331 -82 1368 -82 1413 c 0
EndSplineSet
Colour: ffff
EndChar

StartChar: uniE080
Encoding: 57472 57472 1225
Width: 0
Flags: HMW
LayerCount: 2
Fore
SplineSet
-82 1331 m 1
 -82 1494 l 1
 82 1494 l 1
 82 1331 l 1
 -82 1331 l 1
EndSplineSet
Colour: ffff
EndChar

StartChar: uniE081
Encoding: 57473 57473 1226
Width: 0
Flags: HMW
LayerCount: 2
Fore
SplineSet
-78 1437 m 0
 -50 1437 -20 1429 9 1417 c 2
 202 1341 l 1
 202 1300 l 1
 116 1206 -22 1132 -202 1131 c 1
 -202 1176 l 1
 -51 1177 71 1236 148 1315 c 1
 -10 1375 l 2
 -38 1386 -60 1393 -78 1393 c 0
 -132 1393 -147 1346 -158 1290 c 1
 -202 1301 l 1
 -188 1371 -159 1437 -78 1437 c 0
EndSplineSet
Colour: ffff
EndChar

StartChar: uniE082
Encoding: 57474 57474 1227
Width: 0
Flags: HMW
LayerCount: 2
Fore
SplineSet
163 1264 m 4
 163 1334 134 1393 69 1393 c 4
 -11 1393 -35 1290 -49 1219 c 5
 -1 1205 75 1185 105 1185 c 4
 153 1185 163 1217 163 1264 c 4
-114 1181 m 4
 -157 1181 -163 1153 -163 1111 c 6
 -163 841 l 5
 -209 841 l 5
 -209 1111 l 6
 -209 1189 -174 1233 -95 1227 c 5
 -77 1317 -40 1437 69 1437 c 4
 169 1437 209 1351 209 1259 c 4
 209 1188 173 1141 105 1141 c 4
 73 1141 34 1151 -5 1161 c 4
 -44 1171 -83 1181 -114 1181 c 4
EndSplineSet
Colour: ffff
EndChar

StartChar: uniE083
Encoding: 57475 57475 1228
Width: 0
Flags: HM
LayerCount: 2
Fore
SplineSet
60 1375 m 0
 89 1375 102 1394 121 1423 c 1
 159 1399 l 1
 138 1363 114 1331 63 1331 c 0
 39 1331 14 1342 -8 1354 c 0
 -27 1365 -44 1373 -60 1373 c 0
 -88 1373 -104 1349 -120 1324 c 1
 -159 1346 l 1
 -137 1382 -110 1419 -58 1419 c 0
 -32 1419 -8 1407 13 1394 c 0
 29 1384 45 1375 60 1375 c 0
EndSplineSet
Colour: ffff
EndChar

StartChar: uniE084
Encoding: 57476 57476 1229
Width: 0
Flags: HM
LayerCount: 2
Fore
SplineSet
107 1144 m 1
 77 1138 42 1131 3 1131 c 0
 -78 1131 -136 1165 -136 1247 c 0
 -136 1333 -94 1431 0 1431 c 0
 124 1431 152 1261 152 1155 c 0
 152 1026 34 950 -141 907 c 1
 -152 952 l 1
 13 994 96 1053 107 1144 c 1
-90 1247 m 0
 -90 1187 -53 1177 3 1177 c 0
 42 1177 77 1183 107 1190 c 1
 102 1265 80 1387 0 1387 c 0
 -59 1387 -90 1316 -90 1247 c 0
EndSplineSet
Colour: ffff
EndChar

StartChar: uniE085
Encoding: 57477 57477 1230
Width: 1022
Flags: HMW
LayerCount: 2
Fore
SplineSet
892 1175 m 1
 892 1131 l 1
 265 1131 l 2
 198 1131 130 1152 130 1229 c 0
 130 1323 218 1359 287 1377 c 0
 356 1396 399 1439 433 1510 c 0
 451 1548 478 1603 536 1603 c 0
 614 1603 632 1531 646 1468 c 1
 603 1458 l 1
 591 1510 577 1559 536 1559 c 0
 509 1559 492 1529 476 1495 c 0
 433 1405 375 1352 297 1332 c 0
 227 1314 176 1287 176 1229 c 0
 176 1188 209 1175 265 1175 c 2
 892 1175 l 1
EndSplineSet
Colour: ffff
EndChar

StartChar: uniE086
Encoding: 57478 57478 1231
Width: 0
Flags: HMW
LayerCount: 2
Fore
SplineSet
166 1430 m 1
 206 1445 l 1
 234 1366 254 1288 254 1221 c 0
 254 1072 153 1000 -2 1000 c 0
 -163 1000 -254 1075 -254 1230 c 0
 -254 1285 -242 1355 -226 1420 c 1
 -182 1409 l 1
 -198 1346 -210 1278 -210 1230 c 0
 -210 1097 -138 1046 -2 1046 c 0
 128 1046 210 1099 210 1222 c 0
 210 1281 192 1355 166 1430 c 1
-2 1378 m 1
 49 1327 l 1
 -2 1276 l 1
 -53 1327 l 1
 -2 1378 l 1
EndSplineSet
Colour: ffff
EndChar

StartChar: uniE087
Encoding: 57479 57479 1232
Width: 0
Flags: HM
LayerCount: 2
Fore
SplineSet
-111 1303 m 1
 0 1193 l 1
 111 1304 l 1
 0 1413 l 1
 -111 1303 l 1
-173 1303 m 1
 0 1476 l 1
 173 1304 l 1
 0 1131 l 1
 -173 1303 l 1
EndSplineSet
Colour: ffff
EndChar

StartChar: uniE088
Encoding: 57480 57480 1233
Width: 596
Flags: HMW
LayerCount: 2
Fore
SplineSet
133 378 m 1
 188 378 l 1
 188 0 l 1
 133 0 l 1
 133 378 l 1
408 378 m 1
 463 378 l 1
 463 0 l 1
 408 0 l 1
 408 378 l 1
EndSplineSet
Colour: ffff
EndChar

StartChar: uniE091
Encoding: 57489 57489 1234
Width: 1005
Flags: HMW
LayerCount: 2
Fore
SplineSet
0 60 m 1
 248 60 325 241 390 441 c 1
 448 423 l 1
 414 316 396 200 396 86 c 0
 396 -147 470 -368 626 -474 c 1
 643 -310 667 -190 706 -105 c 0
 754 -2 827 60 965 60 c 2
 1005 60 l 1
 1005 0 l 1
 965 0 l 2
 851 0 802 -43 761 -131 c 0
 724 -211 699 -336 682 -517 c 1
 630 -546 l 1
 407 -427 298 -110 350 216 c 1
 283 84 179 0 0 0 c 1
 -14 0 -20 14 -20 30 c 0
 -20 44 -13 60 0 60 c 1
EndSplineSet
Colour: ffff
EndChar

StartChar: uniE092
Encoding: 57490 57490 1235
Width: 1005
Flags: HMW
LayerCount: 2
Fore
SplineSet
536 737 m 0
 690 737 801 611 801 438 c 0
 801 284 713 136 576 60 c 1
 1005 60 l 1
 1005 0 l 1
 602 0 l 1
 744 -59 828 -180 828 -325 c 0
 828 -481 731 -577 570 -577 c 0
 318 -577 175 -343 175 69 c 0
 175 477 315 737 536 737 c 0
575 -518 m 0
 698 -518 767 -453 767 -338 c 0
 767 -165 609 0 444 0 c 2
 0 0 l 2
 -12 0 -20 12 -20 29 c 0
 -20 47 -11 60 0 60 c 2
 442 60 l 2
 583 60 741 267 741 452 c 0
 741 586 659 678 541 678 c 0
 354 678 235 448 235 69 c 2
 235 59 l 2
 237 -318 358 -518 575 -518 c 0
EndSplineSet
Colour: ffff
EndChar

StartChar: uniE093
Encoding: 57491 57491 1236
Width: 1457
Flags: HMW
LayerCount: 2
Fore
SplineSet
443 0 m 2
 277 0 133 52 133 222 c 0
 133 467 404 665 803 665 c 2
 983 665 l 1
 983 605 l 1
 802 605 l 2
 429 605 193 418 193 222 c 0
 193 93 303 60 443 60 c 2
 1324 60 l 1
 1324 0 l 1
 443 0 l 2
EndSplineSet
Colour: ffff
EndChar

StartChar: uniE094
Encoding: 57492 57492 1237
Width: 1333
Flags: HMW
LayerCount: 2
Fore
SplineSet
443 -605 m 2
 277 -605 133 -553 133 -383 c 0
 133 -138 404 60 803 60 c 2
 1333 60 l 1
 1333 0 l 1
 802 0 l 2
 429 0 193 -187 193 -383 c 0
 193 -512 303 -545 443 -545 c 2
 893 -545 l 1
 893 -605 l 1
 443 -605 l 2
EndSplineSet
Colour: ffff
EndChar

StartChar: uniE095
Encoding: 57493 57493 1238
Width: 570
Flags: HMW
LayerCount: 2
Fore
SplineSet
190 729 m 257
 246 713 l 257
 214 574 188 452 188 352 c 0
 188 170 273 60 570 60 c 256
 587 60 590 47 590 30 c 256
 590 13 587 0 570 0 c 256
 236 0 133 141 133 364 c 0
 133 469 157 593 190 729 c 257
EndSplineSet
Colour: ffff
EndChar

StartChar: uniE096
Encoding: 57494 57494 1239
Width: 762
Flags: HMW
LayerCount: 2
Fore
SplineSet
150 958 m 1
 276 1019 444 1084 612 1141 c 1
 629 1094 l 1
 455 1036 289 967 172 912 c 1
 150 958 l 1
EndSplineSet
Colour: ffff
EndChar

StartChar: uniE097
Encoding: 57495 57495 1240
Width: 1339
Flags: HMW
LayerCount: 2
Fore
SplineSet
933 -51 m 1
 970 89 921 342 858 534 c 1
 914 552 l 257
 959 400 l 258
 1023 184 1080 60 1338 60 c 257
 1339 60 l 257
 1339 0 l 257
 1338 0 l 257
 1183 0 1047 66 999 159 c 257
 1010 72 1009 1 990 -73 c 1
 1063 -104 1131 -142 1197 -186 c 1
 1165 -236 l 1
 1103 -195 1039 -160 972 -131 c 1
 898 -332 683 -544 434 -544 c 0
 266 -544 133 -464 133 -291 c 0
 133 -80 340 14 543 14 c 0
 691 14 818 -9 933 -51 c 1
916 -109 m 1
 806 -69 685 -46 543 -46 c 0
 370 -46 193 -119 193 -291 c 0
 193 -428 298 -484 434 -484 c 0
 653 -484 850 -289 916 -109 c 1
EndSplineSet
Colour: ffff
EndChar

StartChar: uniE098
Encoding: 57496 57496 1241
Width: 926
Flags: HMW
LayerCount: 2
Fore
SplineSet
447 627 m 0
 272 627 193 438 193 264 c 0
 193 107 294 60 454 60 c 2
 742 60 l 1
 733 283 670 627 447 627 c 0
447 689 m 0
 712 689 791 323 799 60 c 1
 926 60 l 1
 926 0 l 1
 802 0 l 1
 799 -229 740 -404 601 -610 c 1
 546 -577 l 1
 678 -369 737 -213 741 0 c 1
 454 0 l 2
 263 0 133 71 133 264 c 0
 133 473 235 689 447 689 c 0
EndSplineSet
Colour: ffff
EndChar

StartChar: uniE099
Encoding: 57497 57497 1242
Width: 977
Flags: HMW
LayerCount: 2
Fore
SplineSet
191 1298 m 261
 251 1298 l 261
 251 382 l 262
 251 156 328 60 576 60 c 262
 977 60 l 261
 977 0 l 261
 576 0 l 262
 313 0 191 125 191 382 c 262
 191 1298 l 261
EndSplineSet
Colour: ffff
EndChar

StartChar: uniE09A
Encoding: 57498 57498 1243
Width: 2347
Flags: HMW
LayerCount: 2
Fore
SplineSet
922 1080 m 1
 952 1031 l 1
 532 783 428 652 428 544 c 1
 1400 544 l 2
 1757 544 1957 521 1957 349 c 0
 1957 182 2047 60 2346 60 c 258
 2347 60 l 257
 2347 0 l 257
 2346 0 l 258
 2126 0 1976 68 1926 232 c 1
 1852 100 1644 0 1288 0 c 2
 133 0 l 281
 133 60 l 281
 1296 60 l 2
 1704 60 1897 195 1897 345 c 0
 1897 473 1715 484 1384 484 c 2
 416 484 l 1
 373 531 l 1
 373 683 496 826 922 1080 c 1
EndSplineSet
Colour: ffff
EndChar

StartChar: uniE09B
Encoding: 57499 57499 1244
Width: 1957
Flags: HMW
LayerCount: 2
Fore
SplineSet
789 1080 m 1
 819 1031 l 1
 399 783 295 652 295 544 c 1
 1267 544 l 2
 1624 544 1824 521 1824 349 c 0
 1824 164 1611 0 1155 0 c 2
 0 0 l 258
 -17 0 -20 13 -20 30 c 256
 -20 47 -17 60 0 60 c 258
 1163 60 l 2
 1571 60 1764 195 1764 345 c 0
 1764 473 1582 484 1251 484 c 2
 283 484 l 1
 240 531 l 1
 240 683 363 826 789 1080 c 1
EndSplineSet
Colour: ffff
EndChar

StartChar: uniE09C
Encoding: 57500 57500 1245
Width: 2214
Flags: HMW
LayerCount: 2
Fore
SplineSet
789 1080 m 1
 819 1031 l 1
 399 783 295 652 295 544 c 1
 1267 544 l 2
 1624 544 1824 521 1824 349 c 0
 1824 182 1914 60 2213 60 c 258
 2214 60 l 257
 2214 0 l 257
 2213 0 l 258
 1993 0 1843 68 1793 232 c 1
 1719 100 1511 0 1155 0 c 2
 0 0 l 258
 -17 0 -20 13 -20 30 c 256
 -20 47 -17 60 0 60 c 258
 1163 60 l 2
 1571 60 1764 195 1764 345 c 0
 1764 473 1582 484 1251 484 c 2
 283 484 l 1
 240 531 l 1
 240 683 363 826 789 1080 c 1
EndSplineSet
Colour: ffff
EndChar

StartChar: uniE09D
Encoding: 57501 57501 1246
Width: 1723
Flags: HMW
LayerCount: 2
Fore
SplineSet
584 365 m 1
 569 347 l 1
 477 318 296 257 189 213 c 1
 167 274 l 1
 364 349 457 384 518 384 c 0
 544 384 564 377 584 365 c 1
EndSplineSet
Refer: 354 57411 N 1 0 0 1 339 0 2
Colour: ffff
EndChar

StartChar: uniE089
Encoding: 57481 57481 1247
Width: 666
Flags: HMW
LayerCount: 2
Fore
SplineSet
533 50 m 257
 533 0 l 257
 133 0 l 257
 133 50 l 257
 533 50 l 257
EndSplineSet
Colour: ffff
EndChar

StartChar: uniE08A
Encoding: 57482 57482 1248
Width: 589
Flags: HMW
LayerCount: 2
Fore
SplineSet
179 481 m 1
 198 430 l 2
 234 336 258 300 316 300 c 0
 382 300 399 361 405 430 c 2
 409 474 l 1
 454 471 l 1
 446 358 427 256 306 256 c 0
 282 256 262 263 244 272 c 1
 260 187 270 100 270 0 c 1
 224 0 l 1
 224 176 200 307 136 460 c 1
 179 481 l 1
EndSplineSet
Colour: ffff
EndChar

StartChar: uniE08B
Encoding: 57483 57483 1249
Width: 701
Flags: HMW
LayerCount: 2
Fore
SplineSet
179 481 m 1
 202 418 l 2
 239 318 257 300 296 300 c 0
 347 300 354 346 359 422 c 2
 362 470 l 1
 411 465 l 1
 407 430 403 394 403 371 c 0
 403 323 419 300 464 300 c 0
 511 300 522 332 522 376 c 0
 522 405 518 441 512 472 c 1
 557 479 l 1
 562 448 566 412 566 385 c 0
 566 306 536 256 461 256 c 0
 422 256 391 276 374 305 c 1
 348 260 299 241 246 269 c 1
 262 185 268 98 268 0 c 1
 224 0 l 1
 224 176 200 307 136 460 c 1
 179 481 l 1
EndSplineSet
Colour: ffff
EndChar

StartChar: uniE08C
Encoding: 57484 57484 1250
Width: 602
Flags: HMW
LayerCount: 2
Fore
SplineSet
228 486 m 0
 260 486 290 468 311 438 c 2
 334 408 l 1
 447 495 l 1
 477 455 l 1
 345 353 l 1
 317 355 l 1
 275 411 l 2
 259 432 244 440 228 440 c 0
 202 440 180 420 180 394 c 0
 180 385 185 372 193 359 c 2
 319 141 l 2
 335 114 348 82 348 45 c 0
 348 25 341 4 334 -15 c 1
 293 3 l 1
 298 15 304 31 304 46 c 0
 304 70 293 96 281 118 c 2
 155 335 l 2
 142 353 136 375 136 394 c 0
 136 444 179 486 228 486 c 0
EndSplineSet
Colour: ffff
EndChar

StartChar: uniE08D
Encoding: 57485 57485 1251
Width: 1330
Flags: HMW
LayerCount: 2
Fore
SplineSet
933 -51 m 1
 970 89 921 342 858 534 c 1
 914 552 l 1
 969 387 1006 212 1006 54 c 0
 1006 11 1000 -32 990 -73 c 1
 1063 -104 1131 -142 1197 -186 c 1
 1165 -236 l 1
 1103 -195 1039 -160 972 -131 c 1
 898 -332 683 -544 434 -544 c 0
 266 -544 133 -464 133 -291 c 0
 133 -80 340 14 543 14 c 0
 691 14 818 -9 933 -51 c 1
916 -109 m 1
 806 -69 685 -46 543 -46 c 0
 370 -46 193 -119 193 -291 c 0
 193 -428 298 -484 434 -484 c 0
 653 -484 850 -289 916 -109 c 1
EndSplineSet
Colour: ffff
EndChar

StartChar: uniE08E
Encoding: 57486 57486 1252
Width: 1513
Flags: HMW
LayerCount: 2
Fore
SplineSet
1034 134 m 1
 1186 203 1293 312 1293 491 c 0
 1293 665 1185 770 1034 770 c 0
 881 770 774 665 774 491 c 0
 774 313 881 203 1034 134 c 1
1034 70 m 1
 920 23 831 0 666 0 c 0
 568 0 498 11 429 23 c 0
 376 32 328 40 283 40 c 0
 212 40 190 -3 190 -56 c 0
 190 -94 201 -137 215 -173 c 0
 241 -244 273 -312 283 -333 c 1
 227 -355 l 1
 214 -328 186 -265 159 -193 c 0
 143 -149 133 -103 133 -60 c 0
 133 28 174 100 283 100 c 0
 323 100 369 92 415 84 c 0
 485 72 558 60 673 60 c 0
 789 60 863 74 957 105 c 1
 817 178 714 301 714 488 c 0
 714 707 848 829 1034 829 c 0
 1217 829 1354 706 1354 487 c 0
 1354 300 1252 178 1113 105 c 1
 1194 75 1301 60 1397 60 c 2
 1513 60 l 1
 1513 0 l 1
 1380 0 l 2
 1257 0 1145 22 1034 70 c 1
EndSplineSet
Colour: ffff
EndChar

StartChar: uniE08F
Encoding: 57487 57487 1253
Width: 1200
Flags: HMW
LayerCount: 2
Fore
SplineSet
739 88 m 5
 728 303 661 627 447 627 c 4
 271 627 193 425 193 251 c 4
 193 94 293 52 454 52 c 4
 564 52 660 68 739 88 c 5
740 26 m 5
 660 6 565 -10 454 -10 c 4
 262 -10 133 59 133 251 c 4
 133 462 234 689 447 689 c 4
 695 689 784 366 799 102 c 5
 854 116 907 130 956 147 c 5
 976 91 l 5
 920 71 861 55 801 40 c 5
 801 -214 748 -390 600 -610 c 5
 545 -577 l 5
 682 -361 740 -200 740 26 c 5
EndSplineSet
Colour: ffff
EndChar

StartChar: uniE090
Encoding: 57488 57488 1254
Width: 1204
Flags: HMW
LayerCount: 2
Fore
SplineSet
1204 60 m 1
 1204 0 l 1
 955 0 796 140 672 254 c 0
 623 299 579 337 538 362 c 0
 505 382 474 393 443 393 c 0
 409 393 381 379 354 352 c 0
 314 312 282 244 257 164 c 0
 226 65 208 -45 193 -140 c 1
 133 -130 l 1
 148 -35 167 77 200 182 c 0
 226 266 260 343 312 395 c 0
 347 430 391 453 443 453 c 0
 488 453 530 437 569 414 c 0
 618 385 664 343 713 298 c 0
 838 184 979 60 1204 60 c 1
EndSplineSet
Colour: ffff
EndChar

StartChar: uniE09F
Encoding: 57503 57503 1259
Width: 769
Flags: HMW
LayerCount: 2
Fore
SplineSet
133 416 m 257
 219 502 l 257
 305 416 l 257
 219 330 l 257
 133 416 l 257
464 415 m 257
 550 501 l 257
 636 415 l 257
 550 329 l 257
 464 415 l 257
133 86 m 257
 219 172 l 257
 305 86 l 257
 219 0 l 257
 133 86 l 257
464 85 m 257
 550 171 l 257
 636 85 l 257
 550 -1 l 257
 464 85 l 257
EndSplineSet
Colour: ffff
EndChar

StartChar: uniE0A0
Encoding: 57504 57504 1260
Width: 0
Flags: HMW
LayerCount: 2
Fore
SplineSet
169 1524 m 2
 58 1554 -26 1491 -26 1406 c 0
 -26 1347 16 1289 101 1289 c 0
 132 1289 168 1297 200 1306 c 2
 232 1316 l 1
 245 1274 l 1
 40 1210 l 2
 19 1203 -5 1197 -25 1197 c 0
 -52 1197 -73 1205 -97 1218 c 0
 -114 1228 -129 1235 -145 1235 c 0
 -177 1235 -192 1208 -204 1181 c 1
 -245 1200 l 1
 -225 1242 -200 1280 -145 1280 c 0
 -123 1280 -103 1271 -83 1261 c 0
 -63 1251 -43 1241 -20 1241 c 0
 5 1241 35 1250 57 1259 c 1
 -30 1266 -71 1331 -71 1401 c 0
 -71 1517 35 1612 179 1569 c 2
 205 1562 l 1
 194 1518 l 1
 169 1524 l 2
EndSplineSet
Colour: ffff
EndChar

StartChar: Arabic_Single_Dot.alt
Encoding: 1114500 -1 1261
Width: 474
Flags: HMW
LayerCount: 2
Fore
SplineSet
133 104 m 257
 237 208 l 257
 341 104 l 257
 237 0 l 257
 133 104 l 257
EndSplineSet
Colour: ffff00
EndChar

StartChar: Arabic_Double_Dot_H.alt
Encoding: 1114501 -1 1262
Width: 758
Flags: HMW
LayerCount: 2
Fore
SplineSet
407 77 m 257
 495 165 l 257
 583 77 l 257
 495 -11 l 257
 407 77 l 257
166 77 m 257
 254 165 l 257
 342 77 l 257
 254 -11 l 257
 166 77 l 257
EndSplineSet
Colour: ffff00
EndChar

StartChar: uni0615.alt
Encoding: 1114502 -1 1263
Width: 758
Flags: HMW
LayerCount: 2
Fore
SplineSet
280 38 m 5
 402 38 l 6
 509 38 586 59 586 136 c 4
 586 186 553 222 500 222 c 4
 443 222 374 176 280 38 c 5
251 38 m 5
 251 423 l 5
 289 423 l 5
 289 112 l 5
 372 225 437 261 503 261 c 4
 578 261 625 206 625 136 c 4
 625 30 529 -1 402 -1 c 6
 133 -1 l 5
 133 38 l 5
 251 38 l 5
EndSplineSet
Colour: ffff00
EndChar

StartChar: uni0652.alt
Encoding: 1114503 -1 1264
Width: 572
Flags: HMW
LayerCount: 2
Fore
SplineSet
286 261 m 256
 217 261 179 223 179 154 c 256
 179 85 217 45 286 45 c 256
 353 45 393 87 393 154 c 256
 393 221 355 261 286 261 c 256
286 306 m 256
 378 306 439 248 439 154 c 256
 439 60 379 0 286 0 c 256
 193 0 133 61 133 154 c 256
 133 247 193 306 286 306 c 256
EndSplineSet
Colour: ffff00
EndChar

StartChar: caron
Encoding: 711 711 1265
Width: 788
Flags: HMW
LayerCount: 2
Fore
SplineSet
150 1456 m 257
 223 1456 l 257
 394 1188 l 257
 566 1456 l 257
 638 1456 l 257
 430 1131 l 257
 358 1131 l 257
 150 1456 l 257
EndSplineSet
Colour: ffff00
EndChar

StartChar: circumflex
Encoding: 710 710 1266
Width: 788
Flags: HMW
LayerCount: 2
Fore
SplineSet
638 1131 m 257
 565 1131 l 257
 394 1399 l 257
 222 1131 l 257
 150 1131 l 257
 358 1456 l 257
 430 1456 l 257
 638 1131 l 257
EndSplineSet
Colour: ffff00
EndChar

StartChar: K.alt
Encoding: 1114592 -1 1355
Width: 1145
Flags: HMW
LayerCount: 2
Fore
SplineSet
1024 1331 m 1
 1104 1331 l 1
 520 666 l 1
 1104 0 l 1
 1024 0 l 1
 468 628 l 1
 287 628 l 1
 287 0 l 1
 228 0 l 1
 228 1331 l 1
 287 1331 l 1
 287 691 l 1
 464 691 l 1
 1024 1331 l 1
EndSplineSet
Substitution2: "'c2sc' Capitals to Small Capitals in Latin lookup 0 subtable" uni1D0B
EndChar

StartChar: k.alt
Encoding: 1114593 -1 1356
Width: 947
Flags: HMW
LayerCount: 2
Fore
SplineSet
792 990 m 1
 873 990 l 1
 461 510 l 1
 916 0 l 1
 837 0 l 1
 411 468 l 1
 235 468 l 1
 235 0 l 1
 175 0 l 1
 175 1394 l 1
 235 1394 l 1
 235 543 l 1
 411 543 l 1
 792 990 l 1
EndSplineSet
Substitution2: "'smcp' Lowercase to Small Capitals in Latin lookup 0 subtable" uni1D0B
EndChar

StartChar: Arabic_Double_Dot_V.alt
Encoding: 1114594 -1 1357
Width: 497
Flags: HMW
LayerCount: 2
Fore
SplineSet
244 240 m 257
 156 328 l 257
 244 416 l 257
 332 328 l 257
 244 240 l 257
244 -1 m 257
 156 87 l 257
 244 175 l 257
 332 87 l 257
 244 -1 l 257
EndSplineSet
EndChar

StartChar: uniE010
Encoding: 57360 57360 1359
Width: 1626
Flags: HMW
LayerCount: 2
Fore
SplineSet
1205 -176 m 257
 1133 -176 l 257
 1007 62 l 1
 1044 83 l 1
 1205 -176 l 257
EndSplineSet
EndChar

StartChar: uniE011
Encoding: 57361 57361 1363
Width: 1023
Flags: HMW
LayerCount: 2
Fore
SplineSet
507 1331 m 257
 566 1331 l 257
 566 970 l 257
 507 970 l 257
 507 1331 l 257
507 4 m 257
 566 4 l 257
 566 -435 l 257
 507 -435 l 257
 507 4 l 257
EndSplineSet
EndChar

StartChar: uniE012
Encoding: 57362 57362 1364
Width: 1522
Flags: HMW
LayerCount: 2
Fore
SplineSet
1144 1174 m 1
 1288 1357 l 257
 1326 1324 l 257
 1177 1135 l 1
 1144 1174 l 1
396 143 m 1
 234 -63 l 257
 194 -30 l 257
 362 183 l 1
 396 143 l 1
EndSplineSet
EndChar

StartChar: uniE013
Encoding: 57363 57363 1365
Width: 1013
Flags: HMW
LayerCount: 2
Fore
SplineSet
804 887 m 1
 908 1022 l 257
 953 990 l 257
 843 847 l 1
 804 887 l 1
271 103 m 1
 166 -33 l 257
 121 1 l 257
 231 143 l 1
 271 103 l 1
EndSplineSet
EndChar

StartChar: uniE014
Encoding: 57364 57364 1367
Width: 1091
Flags: HMW
LayerCount: 2
Fore
SplineSet
178 302 m 257
 178 362 l 257
 913 362 l 257
 913 302 l 257
 178 302 l 257
EndSplineSet
EndChar

StartChar: kgreenlandic
Encoding: 312 312 1425
Width: 894
VWidth: 4096
Flags: HMW
LayerCount: 2
Fore
SplineSet
175 990 m 257
 234 990 l 257
 234 375 l 257
 773 990 l 257
 832 990 l 257
 415 499 l 257
 853 0 l 257
 772 0 l 257
 373 451 l 257
 234 290 l 257
 234 0 l 257
 175 0 l 257
 175 990 l 257
EndSplineSet
Colour: ffff00
EndChar

StartChar: Eng
Encoding: 330 330 1443
Width: 1354
Flags: HMW
LayerCount: 2
Fore
SplineSet
275 1331 m 257
 335 1331 l 257
 335 0 l 257
 275 0 l 257
 275 1331 l 257
792 1342 m 0
 1082 1342 1237 1170 1237 873 c 2
 1237 222 l 2
 1237 58 1135 -11 989 -11 c 0
 947 -11 905 -5 867 5 c 1
 879 54 l 1
 903 49 947 42 990 42 c 0
 1114 42 1178 100 1178 227 c 2
 1178 873 l 2
 1178 1141 1038 1292 787 1292 c 0
 536 1292 385 1101 335 833 c 1
 294 833 l 1
 344 1130 512 1342 792 1342 c 0
EndSplineSet
Colour: ffff00
EndChar

StartChar: eng
Encoding: 331 331 1444
Width: 1096
Flags: HMW
LayerCount: 2
Fore
SplineSet
876 10 m 257
 936 10 l 257
 936 -252 l 258
 936 -416 825 -487 679 -487 c 0
 605 -487 546 -465 513 -436 c 1
 543 -394 l 1
 566 -416 615 -433 679 -433 c 0
 803 -433 876 -376 876 -249 c 258
 876 10 l 257
EndSplineSet
Refer: 138 110 N 1 0 0 1 0 0 3
Colour: ffff00
EndChar

StartChar: longs
Encoding: 383 383 1494
Width: 718
Flags: HMW
LayerCount: 2
Fore
SplineSet
708 1360 m 1
 678 1318 l 1
 655 1340 606 1357 542 1357 c 0
 418 1357 345 1300 345 1173 c 258
 345 0 l 257
 285 0 l 257
 285 1176 l 258
 285 1340 396 1411 542 1411 c 0
 616 1411 675 1389 708 1360 c 1
EndSplineSet
Refer: 1985 57366 N 1 0 0 1 0 0 2
Colour: ffff00
EndChar

StartChar: uni018F
Encoding: 399 399 1497
Width: 1339
Flags: HMW
LayerCount: 2
Fore
SplineSet
1182 598 m 1
 144 598 l 1
 142 297 330 42 663 42 c 0
 981 42 1182 280 1182 598 c 1
1184 655 m 1
 1184 1050 992 1289 651 1289 c 0
 409 1289 233 1156 167 976 c 1
 113 996 l 1
 196 1216 385 1342 650 1342 c 0
 1021 1342 1244 1093 1244 663 c 0
 1244 229 1022 -11 663 -11 c 0
 261 -11 73 295 84 655 c 1
 1184 655 l 1
EndSplineSet
Colour: ffff00
EndChar

StartChar: uni01B7
Encoding: 439 439 1502
Width: 1244
Flags: HMW
LayerCount: 2
Fore
SplineSet
586 -487 m 0
 348 -487 182 -388 97 -231 c 1
 146 -198 l 1
 229 -349 383 -434 588 -434 c 0
 927 -434 1089 -243 1089 72 c 0
 1089 378 865 570 543 580 c 1
 515 633 l 1
 1025 1281 l 1
 80 1281 l 1
 80 1331 l 1
 1076 1331 l 1
 1076 1253 l 1
 586 630 l 1
 902 604 1149 413 1149 72 c 0
 1149 -296 946 -487 586 -487 c 0
EndSplineSet
Colour: ffff00
EndChar

StartChar: uni0239
Encoding: 569 569 1603
Width: 1728
Flags: HMW
LayerCount: 2
Fore
SplineSet
834 990 m 257
 894 990 l 257
 894 -477 l 257
 834 -477 l 257
 834 990 l 257
EndSplineSet
Refer: 318 57359 N -1 0 0 -1 1109 988 2
Refer: 318 57359 N 1 0 0 1 619 0 2
Colour: ffff00
EndChar

StartChar: uni0240
Encoding: 576 576 1604
Width: 868
Flags: HMW
LayerCount: 2
Fore
SplineSet
777 -280 m 0
 664 -280 575 -217 499 -149 c 0
 408 -68 313 0 53 0 c 257
 53 74 l 257
 767 936 l 257
 53 936 l 257
 53 990 l 257
 816 990 l 257
 816 917 l 257
 100 53 l 257
 341 53 435 -17 523 -98 c 0
 595 -164 680 -227 777 -227 c 0
 866 -227 894 -206 942 -139 c 1
 983 -169 l 1
 929 -244 876 -280 777 -280 c 0
EndSplineSet
Colour: ffff00
EndChar

StartChar: uni0255
Encoding: 597 597 1607
Width: 1083
Flags: HMW
LayerCount: 2
Fore
SplineSet
581 42 m 0
 339 42 182 186 182 495 c 0
 182 804 339 947 564 947 c 0
 742 947 863 856 914 709 c 1
 967 730 l 1
 905 902 764 999 564 999 c 0
 304 999 122 833 122 495 c 0
 122 157 304 -11 579 -11 c 0
 779 -11 967 114 967 294 c 0
 967 434 874 520 732 520 c 0
 518 520 379 364 100 -34 c 1
 138 -62 l 1
 414 314 544 466 734 466 c 0
 844 466 914 394 914 296 c 0
 914 137 742 42 581 42 c 0
EndSplineSet
Colour: ffff00
EndChar

StartChar: uni0262
Encoding: 610 610 1609
Width: 1029
Flags: HMW
LayerCount: 2
Fore
SplineSet
153 490 m 0
 153 200 300 45 564 45 c 0
 691 45 792 85 869 163 c 1
 869 430 l 1
 533 430 l 1
 533 486 l 1
 929 486 l 1
 929 143 l 1
 835 40 718 -11 565 -11 c 0
 265 -11 93 169 93 490 c 0
 93 803 266 1001 530 1001 c 0
 693 1001 847 903 903 754 c 1
 849 734 l 1
 802 862 669 945 528 945 c 0
 301 945 153 770 153 490 c 0
EndSplineSet
Colour: ff0000
EndChar

StartChar: uni0274
Encoding: 628 628 1612
Width: 1091
Flags: HMW
LayerCount: 2
Fore
SplineSet
856 990 m 257
 916 990 l 257
 916 0 l 257
 821 0 l 257
 234 941 l 257
 234 0 l 257
 175 0 l 257
 175 990 l 257
 270 990 l 257
 856 48 l 257
 856 990 l 257
EndSplineSet
Colour: ff0000
EndChar

StartChar: uni0280
Encoding: 640 640 1613
Width: 1026
Flags: HMW
LayerCount: 2
Fore
SplineSet
235 435 m 257
 495 435 l 258
 692 435 791 507 791 686 c 256
 791 865 692 937 495 937 c 258
 235 937 l 257
 235 435 l 257
235 383 m 257
 235 0 l 257
 175 0 l 257
 175 990 l 257
 495 990 l 258
 715 990 850 901 850 686 c 256
 850 471 716 383 495 383 c 258
 235 383 l 257
601 419 m 257
 660 419 l 257
 926 0 l 257
 858 0 l 257
 601 419 l 257
EndSplineSet
Colour: ff0000
EndChar

StartChar: uni0283
Encoding: 643 643 1614
Width: 806
Flags: HMW
LayerCount: 2
Fore
SplineSet
796 1360 m 1
 766 1318 l 1
 743 1340 694 1357 630 1357 c 0
 506 1357 433 1300 433 1173 c 2
 433 -252 l 2
 433 -416 322 -487 176 -487 c 0
 102 -487 43 -465 10 -436 c 1
 40 -394 l 1
 63 -416 112 -433 176 -433 c 0
 300 -433 373 -376 373 -249 c 2
 373 1176 l 2
 373 1340 484 1411 630 1411 c 0
 704 1411 763 1389 796 1360 c 1
EndSplineSet
Colour: ffff00
EndChar

StartChar: uni028F
Encoding: 655 655 1615
Width: 827
Flags: HMW
LayerCount: 2
Fore
SplineSet
755 990 m 257
 822 990 l 257
 442 426 l 257
 442 0 l 257
 382 0 l 257
 382 426 l 257
 4 990 l 257
 72 990 l 257
 412 483 l 257
 755 990 l 257
EndSplineSet
Colour: ff0000
EndChar

StartChar: uni0291
Encoding: 657 657 1616
Width: 1272
Flags: HMW
LayerCount: 2
Fore
SplineSet
816 53 m 0
 100 53 l 257
 816 917 l 257
 816 990 l 257
 53 990 l 257
 53 936 l 257
 767 936 l 257
 53 74 l 257
 53 0 l 257
 816 0 l 0
 1014 0 1202 125 1202 305 c 0
 1202 445 1109 531 967 531 c 0
 753 531 603 379 242 -159 c 1
 280 -187 l 1
 638 329 779 477 969 477 c 0
 1079 477 1149 405 1149 307 c 0
 1149 148 977 53 816 53 c 0
EndSplineSet
Colour: ffff00
EndChar

StartChar: uni0292
Encoding: 658 658 1617
Width: 1057
VWidth: 4096
Flags: HMW
LayerCount: 2
Fore
SplineSet
498 -487 m 0
 298 -487 157 -392 95 -215 c 1
 148 -194 l 1
 199 -341 320 -434 498 -434 c 0
 723 -434 880 -306 880 -37 c 0
 880 272 663 359 438 359 c 1
 409 402 l 1
 852 937 l 1
 138 937 l 1
 138 990 l 1
 901 990 l 1
 901 917 l 1
 481 410 l 1
 724 398 940 282 940 -37 c 0
 940 -335 758 -487 498 -487 c 0
EndSplineSet
Colour: ffff00
EndChar

StartChar: uni0293
Encoding: 659 659 1618
Width: 1057
VWidth: 4096
Flags: HMW
LayerCount: 2
Fore
SplineSet
138 936 m 1
 138 990 l 1
 901 990 l 1
 901 917 l 1
 481 410 l 1
 724 398 940 282 940 -37 c 0
 940 -335 758 -487 498 -487 c 0
 298 -487 110 -362 110 -182 c 0
 110 -42 203 44 345 44 c 0
 559 44 698 -112 977 -510 c 1
 939 -538 l 1
 663 -162 533 -10 343 -10 c 0
 233 -10 163 -82 163 -180 c 0
 163 -339 335 -434 496 -434 c 0
 721 -434 880 -306 880 -37 c 0
 880 272 663 359 438 359 c 1
 409 402 l 1
 852 936 l 1
 138 936 l 1
EndSplineSet
Colour: ffff00
EndChar

StartChar: uni0299
Encoding: 665 665 1619
Width: 947
Flags: HMW
LayerCount: 2
Fore
SplineSet
175 990 m 1
 532 990 l 2
 696 990 811 896 811 736 c 0
 811 626 757 546 670 507 c 1
 784 476 857 385 857 257 c 0
 857 97 742 0 578 0 c 2
 175 0 l 1
 175 990 l 1
240 938 m 1
 240 523 l 1
 521 523 l 2
 668 523 746 599 746 732 c 0
 746 865 668 938 521 938 c 2
 240 938 l 1
240 466 m 1
 240 52 l 1
 566 52 l 2
 713 52 791 124 791 257 c 0
 791 390 713 466 566 466 c 2
 240 466 l 1
EndSplineSet
Colour: ff0000
EndChar

StartChar: uni029C
Encoding: 668 668 1620
Width: 1089
Flags: HMW
LayerCount: 2
Fore
SplineSet
854 990 m 257
 914 990 l 257
 914 0 l 257
 854 0 l 257
 854 466 l 257
 234 466 l 257
 234 0 l 257
 175 0 l 257
 175 990 l 257
 234 990 l 257
 234 525 l 257
 854 525 l 257
 854 990 l 257
EndSplineSet
Colour: ff0000
EndChar

StartChar: uni029F
Encoding: 671 671 1622
Width: 910
Flags: HMW
LayerCount: 2
Fore
SplineSet
228 990 m 257
 287 990 l 257
 287 52 l 257
 847 52 l 257
 847 0 l 257
 228 0 l 257
 228 990 l 257
EndSplineSet
Colour: ff0000
EndChar

StartChar: uni02C2
Encoding: 706 706 1632
Width: 672
Flags: HMW
LayerCount: 2
Fore
SplineSet
238 717 m 1
 522 433 l 1
 478 389 l 1
 150 717 l 1
 478 1045 l 1
 522 1001 l 1
 238 717 l 1
EndSplineSet
Colour: ffff00
EndChar

StartChar: uni02C3
Encoding: 707 707 1633
Width: 672
Flags: HMW
LayerCount: 2
Fore
SplineSet
434 717 m 1
 150 1001 l 1
 194 1045 l 1
 522 717 l 1
 194 389 l 1
 150 433 l 1
 434 717 l 1
EndSplineSet
Colour: ffff00
EndChar

StartChar: uni02C4
Encoding: 708 708 1634
Width: 956
Flags: HMW
LayerCount: 2
Fore
SplineSet
478 815 m 1
 194 531 l 1
 150 575 l 1
 478 903 l 1
 806 575 l 1
 762 531 l 1
 478 815 l 1
EndSplineSet
Colour: ffff00
EndChar

StartChar: uni02C5
Encoding: 709 709 1635
Width: 956
Flags: HMW
LayerCount: 2
Fore
SplineSet
478 619 m 1
 762 903 l 1
 806 859 l 1
 478 531 l 1
 150 859 l 1
 194 903 l 1
 478 619 l 1
EndSplineSet
Colour: ffff00
EndChar

StartChar: uni02D2
Encoding: 722 722 1636
Width: 546
VWidth: 0
Flags: HMW
LayerCount: 2
Fore
SplineSet
150 1180 m 1
 272 1180 346 1269 346 1377 c 0
 346 1485 272 1574 151 1574 c 1
 151 1623 l 1
 297 1623 396 1513 396 1377 c 0
 396 1241 298 1131 150 1131 c 1
 150 1180 l 1
EndSplineSet
Colour: ffff00
EndChar

StartChar: uni02D3
Encoding: 723 723 1637
Width: 546
VWidth: 0
Flags: HMW
LayerCount: 2
Fore
SplineSet
396 1574 m 1
 274 1574 200 1485 200 1377 c 0
 200 1269 274 1180 395 1180 c 1
 395 1131 l 1
 249 1131 150 1241 150 1377 c 0
 150 1513 248 1623 396 1623 c 1
 396 1574 l 1
EndSplineSet
Colour: ffff00
EndChar

StartChar: breve
Encoding: 728 728 1638
Width: 922
VWidth: 0
Flags: HMW
LayerCount: 2
Fore
SplineSet
772 1440 m 1
 772 1247 651 1131 461 1131 c 0
 271 1131 150 1247 150 1440 c 1
 210 1440 l 1
 210 1282 302 1189 461 1189 c 0
 620 1189 712 1282 712 1440 c 1
 772 1440 l 1
EndSplineSet
Colour: ffff00
EndChar

StartChar: dotaccent
Encoding: 729 729 1639
Width: 542
VWidth: 4096
Flags: HMW
LayerCount: 2
Fore
SplineSet
150 1251 m 0
 150 1318 204 1373 271 1373 c 0
 338 1373 392 1318 392 1251 c 0
 392 1184 338 1131 271 1131 c 0
 204 1131 150 1184 150 1251 c 0
EndSplineSet
Colour: ffff00
EndChar

StartChar: ring
Encoding: 730 730 1640
Width: 791
VWidth: 0
Flags: HMW
LayerCount: 2
Fore
SplineSet
396 1574 m 0
 274 1574 200 1485 200 1377 c 0
 200 1269 274 1180 395 1180 c 0
 517 1180 591 1269 591 1377 c 0
 591 1485 517 1574 396 1574 c 0
396 1623 m 0
 542 1623 641 1513 641 1377 c 0
 641 1241 543 1131 395 1131 c 0
 249 1131 150 1241 150 1377 c 0
 150 1513 248 1623 396 1623 c 0
EndSplineSet
Colour: ffff00
EndChar

StartChar: ogonek
Encoding: 731 731 1641
Width: 724
VWidth: 4096
Flags: HMW
LayerCount: 2
Fore
SplineSet
360 -477 m 0
 234 -477 150 -400 150 -285 c 0
 150 -240 163 -193 187 -152 c 2
 274 0 l 1
 274 2 l 1
 344 2 l 1
 344 0 l 1
 244 -185 l 1
 225 -217 215 -254 215 -289 c 0
 215 -369 269 -418 360 -418 c 0
 453 -418 509 -367 509 -282 c 1
 574 -280 l 1
 574 -398 488 -477 360 -477 c 0
EndSplineSet
Colour: ffff00
EndChar

StartChar: uni1D00
Encoding: 7424 7424 1646
Width: 897
Flags: HMW
LayerCount: 2
Fore
SplineSet
701 298 m 1
 186 298 l 1
 203 353 l 1
 685 353 l 1
 701 298 l 1
82 0 m 257
 20 0 l 257
 397 990 l 257
 485 990 l 257
 862 0 l 257
 800 0 l 257
 441 951 l 257
 82 0 l 257
EndSplineSet
Colour: ff0000
EndChar

StartChar: uni1D04
Encoding: 7428 7428 1647
Width: 1061
Flags: HMW
LayerCount: 2
Fore
SplineSet
562 1001 m 0
 767 1001 886 864 928 750 c 1
 876 731 l 1
 839 834 734 948 560 948 c 0
 310 948 192 752 192 495 c 0
 192 238 310 42 560 42 c 0
 734 42 839 156 876 259 c 1
 928 240 l 1
 886 126 767 -11 562 -11 c 0
 294 -11 132 184 132 495 c 0
 132 806 294 1001 562 1001 c 0
EndSplineSet
Colour: ff0000
EndChar

StartChar: uni1D05
Encoding: 7429 7429 1648
Width: 1012
Flags: HMW
LayerCount: 2
Fore
SplineSet
175 990 m 1
 487 990 l 2
 767 990 919 787 919 495 c 0
 919 203 767 0 487 0 c 2
 175 0 l 1
 175 990 l 1
234 938 m 1
 234 52 l 1
 487 52 l 2
 739 52 858 242 858 495 c 0
 858 748 739 938 487 938 c 2
 234 938 l 1
EndSplineSet
Colour: ff0000
EndChar

StartChar: uni1D07
Encoding: 7431 7431 1649
Width: 825
Flags: HMW
LayerCount: 2
Fore
SplineSet
741 52 m 257
 741 0 l 257
 175 0 l 257
 175 990 l 257
 741 990 l 257
 741 938 l 257
 234 938 l 257
 234 523 l 257
 700 523 l 257
 700 467 l 257
 234 467 l 257
 234 52 l 257
 741 52 l 257
EndSplineSet
Colour: ff0000
EndChar

StartChar: uni1D0A
Encoding: 7434 7434 1650
Width: 640
Flags: HMW
LayerCount: 2
Fore
SplineSet
95 6 m 257
 107 55 l 257
 131 50 175 43 218 43 c 0
 342 43 406 101 406 228 c 258
 406 990 l 257
 465 990 l 257
 465 223 l 258
 465 59 363 -10 217 -10 c 0
 175 -10 133 -4 95 6 c 257
EndSplineSet
Colour: ff0000
EndChar

StartChar: uni1D0B
Encoding: 7435 7435 1651
Width: 895
VWidth: 4096
Flags: HMW
LayerCount: 2
Fore
SplineSet
175 990 m 257
 234 990 l 257
 234 375 l 257
 773 990 l 257
 853 990 l 257
 416 499 l 257
 853 0 l 257
 773 0 l 257
 373 451 l 257
 234 290 l 257
 234 0 l 257
 175 0 l 257
 175 990 l 257
EndSplineSet
Colour: ff0000
EndChar

StartChar: uni1D0D
Encoding: 7437 7437 1652
Width: 1412
Flags: HMW
LayerCount: 2
Fore
SplineSet
234 0 m 257
 175 0 l 257
 175 990 l 257
 288 990 l 257
 683 30 l 257
 1124 990 l 257
 1237 990 l 257
 1237 0 l 257
 1177 0 l 257
 1177 962 l 257
 737 0 l 257
 627 0 l 257
 234 954 l 257
 234 0 l 257
EndSplineSet
Colour: ff0000
EndChar

StartChar: uni1D18
Encoding: 7448 7448 1653
Width: 895
Flags: HMW
LayerCount: 2
Fore
SplineSet
235 0 m 257
 175 0 l 257
 175 990 l 257
 531 990 l 258
 695 990 802 881 802 721 c 256
 802 561 695 442 531 442 c 258
 235 442 l 257
 235 0 l 257
235 937 m 257
 235 494 l 257
 531 494 l 258
 678 494 743 588 743 721 c 256
 743 854 678 937 531 937 c 258
 235 937 l 257
EndSplineSet
Colour: ff0000
EndChar

StartChar: uni1D1B
Encoding: 7451 7451 1654
Width: 978
Flags: HMW
LayerCount: 2
Fore
SplineSet
519 0 m 257
 459 0 l 257
 459 937 l 257
 90 937 l 257
 90 990 l 257
 888 990 l 257
 888 937 l 257
 519 937 l 257
 519 0 l 257
EndSplineSet
Colour: ff0000
EndChar

StartChar: uni1D1C
Encoding: 7452 7452 1655
Width: 967
Flags: HMW
LayerCount: 2
Fore
SplineSet
782 990 m 257
 842 990 l 257
 842 342 l 258
 842 121 699 -11 483 -11 c 256
 267 -11 125 121 125 342 c 258
 125 990 l 257
 185 990 l 257
 185 342 l 258
 185 153 305 39 483 39 c 256
 661 39 782 153 782 342 c 258
 782 990 l 257
EndSplineSet
Colour: ff0000
EndChar

StartChar: uni1D20
Encoding: 7456 7456 1656
Width: 882
Flags: HMW
LayerCount: 2
Fore
SplineSet
82 990 m 257
 441 39 l 257
 800 990 l 257
 862 990 l 257
 485 0 l 257
 397 0 l 257
 20 990 l 257
 82 990 l 257
EndSplineSet
Colour: ff0000
EndChar

StartChar: uni1D21
Encoding: 7457 7457 1657
Width: 1428
Flags: HMW
LayerCount: 2
Fore
SplineSet
52 990 m 257
 114 990 l 257
 401 27 l 257
 660 990 l 257
 768 990 l 257
 1028 27 l 257
 1312 990 l 257
 1376 990 l 257
 1087 0 l 257
 972 0 l 257
 714 956 l 257
 450 0 l 257
 341 0 l 257
 52 990 l 257
EndSplineSet
Colour: ff0000
EndChar

StartChar: uni1D22
Encoding: 7458 7458 1658
Width: 951
Flags: HMW
LayerCount: 2
Fore
SplineSet
105 990 m 257
 846 990 l 257
 846 912 l 257
 156 52 l 257
 846 52 l 257
 846 0 l 257
 105 0 l 257
 105 80 l 257
 795 940 l 257
 105 940 l 257
 105 990 l 257
EndSplineSet
Colour: ff0000
EndChar

StartChar: uni1E9E
Encoding: 7838 7838 1818
Width: 1160
Flags: HMW
LayerCount: 2
Fore
SplineSet
169 0 m 1
 169 873 l 2
 169 1170 305 1342 565 1344 c 0
 757 1344 933 1235 933 1017 c 0
 933 875 861 757 722 703 c 1
 908 666 1056 562 1056 328 c 0
 1056 130 950 -10 743 -10 c 0
 559 -10 428 82 428 274 c 1
 488 274 l 1
 488 115 593 42 741 42 c 0
 917 42 999 163 999 329 c 0
 999 587 794 671 533 671 c 1
 533 720 l 1
 794 720 876 879 876 1017 c 0
 876 1202 724 1292 565 1292 c 0
 344 1292 230 1141 230 873 c 2
 230 0 l 1
 169 0 l 1
EndSplineSet
Colour: ffff00
EndChar

StartChar: emdash
Encoding: 8212 8212 1911
Width: 2048
Flags: HMW
LayerCount: 2
Fore
SplineSet
1948 588 m 257
 1948 528 l 257
 100 528 l 257
 100 588 l 257
 1948 588 l 257
EndSplineSet
Colour: ffff00
EndChar

StartChar: dagger
Encoding: 8224 8224 1917
Width: 1308
Flags: HMW
LayerCount: 2
Fore
SplineSet
200 896 m 257
 200 955 l 257
 1108 955 l 257
 1108 896 l 257
 200 896 l 257
624 1331 m 257
 683 1331 l 257
 683 -477 l 257
 624 -477 l 257
 624 1331 l 257
EndSplineSet
Colour: ffff00
EndChar

StartChar: daggerdbl
Encoding: 8225 8225 1918
Width: 1308
Flags: HMW
LayerCount: 2
Fore
SplineSet
200 -101 m 257
 200 -42 l 257
 1108 -42 l 257
 1108 -101 l 257
 200 -101 l 257
200 896 m 257
 200 955 l 257
 1108 955 l 257
 1108 896 l 257
 200 896 l 257
624 1331 m 257
 683 1331 l 257
 683 -477 l 257
 624 -477 l 257
 624 1331 l 257
EndSplineSet
Colour: ffff00
EndChar

StartChar: bullet
Encoding: 8226 8226 1919
Width: 453
Flags: HMW
LayerCount: 2
Fore
SplineSet
100 688 m 0
 100 759 151 814 227 814 c 0
 303 814 353 759 353 688 c 0
 353 617 303 560 227 560 c 0
 151 560 100 617 100 688 c 0
EndSplineSet
Colour: ffff00
EndChar

StartChar: uni2070
Encoding: 8304 8304 1922
Width: 729
Flags: HMW
LayerCount: 2
Fore
SplineSet
364 1731 m 0
 234 1731 205 1602 205 1451 c 0
 205 1300 234 1171 364 1171 c 0
 494 1171 525 1300 525 1451 c 0
 525 1602 494 1731 364 1731 c 0
364 1782 m 0
 516 1782 579 1647 579 1451 c 0
 579 1255 516 1121 364 1121 c 0
 212 1121 150 1255 150 1451 c 0
 150 1647 212 1782 364 1782 c 0
EndSplineSet
Colour: ffff00
EndChar

StartChar: uni2074
Encoding: 8308 8308 1923
Width: 820
VWidth: 2044
Flags: HMW
LayerCount: 2
Fore
SplineSet
502 1311 m 1
 502 1683 l 1
 215 1311 l 1
 502 1311 l 1
502 1259 m 1
 150 1259 l 1
 150 1303 l 1
 504 1772 l 1
 555 1772 l 1
 555 1311 l 1
 670 1311 l 1
 670 1259 l 1
 555 1259 l 1
 555 1131 l 1
 502 1131 l 1
 502 1259 l 1
EndSplineSet
Colour: ffff00
EndChar

StartChar: uni2075
Encoding: 8309 8309 1924
Width: 711
VWidth: 2044
Flags: HMW
LayerCount: 2
Fore
SplineSet
150 1304 m 1
 205 1304 l 1
 205 1223 254 1172 351 1172 c 0
 446 1172 507 1231 507 1338 c 0
 507 1442 453 1511 350 1511 c 0
 294 1511 247 1487 198 1444 c 1
 159 1464 l 1
 194 1772 l 1
 556 1772 l 1
 556 1721 l 1
 244 1721 l 1
 218 1520 l 1
 253 1545 300 1562 350 1562 c 0
 480 1562 561 1471 561 1338 c 0
 561 1204 471 1121 349 1121 c 0
 231 1121 150 1195 150 1304 c 1
EndSplineSet
Colour: ffff00
EndChar

StartChar: uni2076
Encoding: 8310 8310 1925
Width: 710
VWidth: 2044
Flags: HMW
LayerCount: 2
Fore
SplineSet
364 1782 m 0
 481 1782 547 1701 547 1613 c 1
 495 1613 l 1
 495 1671 461 1731 364 1731 c 0
 237 1731 203 1587 199 1461 c 1
 235 1511 295 1545 362 1545 c 0
 481 1545 560 1456 560 1335 c 0
 560 1205 485 1121 364 1121 c 0
 205 1121 150 1245 150 1419 c 0
 150 1628 204 1782 364 1782 c 0
361 1494 m 0
 297 1494 243 1472 199 1392 c 1
 199 1263 243 1171 365 1171 c 0
 456 1171 506 1232 506 1332 c 0
 506 1426 453 1494 361 1494 c 0
EndSplineSet
Colour: ffff00
EndChar

StartChar: uni2077
Encoding: 8311 8311 1926
Width: 764
VWidth: 2044
Flags: HMW
LayerCount: 2
Fore
SplineSet
614 1733 m 1
 500 1585 371 1369 371 1131 c 1
 316 1131 l 1
 316 1358 438 1581 544 1721 c 1
 150 1721 l 1
 150 1772 l 1
 603 1772 l 1
 614 1733 l 1
EndSplineSet
Colour: ffff00
EndChar

StartChar: uni2078
Encoding: 8312 8312 1927
Width: 721
Flags: HMW
LayerCount: 2
Fore
SplineSet
361 1782 m 0
 464 1782 541 1708 541 1610 c 0
 541 1549 508 1494 461 1462 c 1
 526 1425 571 1366 571 1296 c 0
 571 1192 490 1121 361 1121 c 0
 231 1121 150 1193 150 1298 c 0
 150 1368 193 1427 258 1463 c 1
 212 1495 179 1549 179 1610 c 0
 179 1709 258 1782 361 1782 c 0
361 1733 m 0
 286 1733 233 1679 233 1606 c 0
 233 1531 286 1483 361 1483 c 0
 435 1483 487 1531 487 1606 c 0
 487 1680 435 1733 361 1733 c 0
359 1435 m 0
 271 1435 204 1378 204 1296 c 0
 204 1213 263 1169 361 1169 c 0
 459 1169 517 1212 517 1295 c 0
 517 1376 448 1435 359 1435 c 0
EndSplineSet
Colour: ffff00
EndChar

StartChar: uni2079
Encoding: 8313 8313 1928
Width: 710
VWidth: 2044
Flags: HMW
LayerCount: 2
Fore
SplineSet
511 1511 m 1
 511 1640 467 1732 345 1732 c 0
 254 1732 204 1671 204 1571 c 0
 204 1477 257 1409 349 1409 c 0
 413 1409 467 1431 511 1511 c 1
511 1442 m 1
 475 1392 415 1358 348 1358 c 0
 229 1358 150 1447 150 1568 c 0
 150 1698 225 1782 346 1782 c 0
 505 1782 560 1658 560 1484 c 0
 560 1275 506 1121 346 1121 c 0
 229 1121 163 1202 163 1290 c 1
 215 1290 l 1
 215 1232 249 1172 346 1172 c 0
 473 1172 507 1316 511 1442 c 1
EndSplineSet
Colour: ffff00
EndChar

StartChar: uni25CC
Encoding: 9676 9676 1958
Width: 1702
Flags: HMW
LayerCount: 2
Fore
SplineSet
793 91 m 0
 793 134 808 149 851 149 c 0
 894 149 909 134 909 91 c 0
 909 48 894 33 851 33 c 0
 808 33 793 48 793 91 c 0
793 1447 m 0
 793 1490 808 1505 851 1505 c 0
 894 1505 909 1490 909 1447 c 0
 909 1404 894 1389 851 1389 c 0
 808 1389 793 1404 793 1447 c 0
1529 711 m 0
 1486 711 1471 726 1471 769 c 0
 1471 812 1486 827 1529 827 c 0
 1572 827 1587 812 1587 769 c 0
 1587 726 1572 711 1529 711 c 0
173 711 m 0
 130 711 115 726 115 769 c 0
 115 812 130 827 173 827 c 0
 216 827 231 812 231 769 c 0
 231 726 216 711 173 711 c 0
1272 290 m 0
 1272 333 1287 348 1330 348 c 0
 1373 348 1388 333 1388 290 c 0
 1388 247 1373 232 1330 232 c 0
 1287 232 1272 247 1272 290 c 0
314 1248 m 0
 314 1291 329 1306 372 1306 c 0
 415 1306 430 1291 430 1248 c 0
 430 1205 415 1190 372 1190 c 0
 329 1190 314 1205 314 1248 c 0
1330 1190 m 0
 1287 1190 1272 1205 1272 1248 c 0
 1272 1291 1287 1306 1330 1306 c 0
 1373 1306 1388 1291 1388 1248 c 0
 1388 1205 1373 1190 1330 1190 c 0
372 232 m 0
 329 232 314 247 314 290 c 0
 314 333 329 348 372 348 c 0
 415 348 430 333 430 290 c 0
 430 247 415 232 372 232 c 0
534 143 m 0
 534 186 549 200 592 200 c 0
 635 200 650 186 650 143 c 0
 650 100 635 84 592 84 c 0
 549 84 534 100 534 143 c 0
1110 1454 m 0
 1153 1454 1168 1438 1168 1395 c 0
 1168 1352 1153 1338 1110 1338 c 0
 1067 1338 1052 1352 1052 1395 c 0
 1052 1438 1067 1454 1110 1454 c 0
1477 452 m 0
 1434 452 1420 467 1420 510 c 0
 1420 553 1434 568 1477 568 c 0
 1520 568 1536 553 1536 510 c 0
 1536 467 1520 452 1477 452 c 0
166 1028 m 0
 166 1071 182 1086 225 1086 c 0
 268 1086 282 1071 282 1028 c 0
 282 985 268 970 225 970 c 0
 182 970 166 985 166 1028 c 0
1052 143 m 0
 1052 186 1067 200 1110 200 c 0
 1153 200 1168 186 1168 143 c 0
 1168 100 1153 84 1110 84 c 0
 1067 84 1052 100 1052 143 c 0
534 1395 m 0
 534 1438 549 1454 592 1454 c 0
 635 1454 650 1438 650 1395 c 0
 650 1352 635 1338 592 1338 c 0
 549 1338 534 1352 534 1395 c 0
1477 970 m 0
 1434 970 1420 985 1420 1028 c 0
 1420 1071 1434 1086 1477 1086 c 0
 1520 1086 1536 1071 1536 1028 c 0
 1536 985 1520 970 1477 970 c 0
225 452 m 0
 182 452 166 467 166 510 c 0
 166 553 182 568 225 568 c 0
 268 568 282 553 282 510 c 0
 282 467 268 452 225 452 c 0
EndSplineSet
Colour: ffff00
EndChar

StartChar: uniA729
Encoding: 42793 42793 1960
Width: 1612
Flags: HMW
LayerCount: 2
Fore
SplineSet
637 55 m 257
 648 6 l 257
 610 -4 568 -10 526 -10 c 0
 380 -10 269 59 269 223 c 258
 269 1278 l 257
 329 1278 l 257
 329 227 l 258
 329 100 401 43 525 43 c 0
 568 43 613 50 637 55 c 257
EndSplineSet
Refer: 313 57354 N 1 0 0 1 -24 441 2
Refer: 1617 658 N 1 0 0 1 555 0 2
Colour: ffff00
EndChar

StartChar: uniA730
Encoding: 42800 42800 1961
Width: 831
Flags: HMW
LayerCount: 2
Fore
SplineSet
175 0 m 257
 175 990 l 257
 741 990 l 257
 741 937 l 257
 234 937 l 257
 234 521 l 257
 700 521 l 257
 700 467 l 257
 234 467 l 257
 234 0 l 257
 175 0 l 257
EndSplineSet
Colour: ff0000
EndChar

StartChar: uniA731
Encoding: 42801 42801 1962
Width: 855
Flags: HMW
LayerCount: 2
Fore
SplineSet
90 261 m 257
 150 261 l 257
 150 106 284 41 437 41 c 256
 587 41 704 96 704 242 c 256
 704 383 619 413 424 473 c 256
 249 527 112 583 112 751 c 256
 112 904 243 1001 417 1001 c 256
 587 1001 743 894 743 730 c 257
 683 730 l 257
 683 877 564 950 417 950 c 256
 270 950 172 888 172 754 c 256
 172 627 259 584 443 531 c 256
 639 475 765 419 765 245 c 256
 765 78 616 -11 437 -11 c 256
 261 -11 90 83 90 261 c 257
EndSplineSet
Colour: ff0000
EndChar

StartChar: uniA733
Encoding: 42803 42803 1964
Width: 1703
Flags: HMW
LayerCount: 2
Fore
SplineSet
499 999 m 0
 694 999 853 908 853 715 c 2
 853 262 l 25
 793 258 l 25
 793 715 l 2
 793 875 661 947 499 947 c 0
 337 947 204 875 204 715 c 1
 145 715 l 1
 145 908 304 999 499 999 c 0
1161 999 m 0
 1356 999 1529 908 1529 715 c 2
 1529 217 l 2
 1529 110 1561 53 1675 53 c 1
 1676 0 l 1
 1540 0 1469 69 1469 213 c 2
 1469 715 l 2
 1469 875 1323 947 1161 947 c 0
 999 947 853 875 853 715 c 1
 794 715 l 1
 794 908 966 999 1161 999 c 0
EndSplineSet
Refer: 314 57355 N 1 0 0 1 676 0 2
Refer: 314 57355 N 1 0 0 1 0 0 2
Colour: ffff00
EndChar

StartChar: uniA735
Encoding: 42805 42805 1966
Width: 1776
Flags: HMW
LayerCount: 2
Fore
SplineSet
793 249 m 25
 793 715 l 2
 793 875 661 947 499 947 c 0
 337 947 204 875 204 715 c 1
 145 715 l 1
 145 908 304 999 499 999 c 0
 694 999 853 908 853 715 c 2
 853 249 l 25
 793 249 l 25
117 258 m 256
 117 468 272 543 482 543 c 2
 852 543 l 1
 852 490 l 257
 482 491 l 2
 302 491 178 425 178 262 c 256
 178 126 244 42 422 42 c 0
 630 42 775 217 807 272 c 257
 840 251 l 257
 805 177 638 -11 405 -11 c 0
 232 -11 117 82 117 258 c 256
EndSplineSet
Refer: 142 111 N 1 0 0 1 702 0 2
Colour: ffff00
EndChar

StartChar: uniA736
Encoding: 42806 42806 1967
Width: 1782
Flags: HMW
LayerCount: 2
Fore
SplineSet
1546 1331 m 257
 1607 1331 l 257
 1607 469 l 258
 1607 172 1414 0 1124 0 c 256
 1080 50 l 1
 1124 50 l 256
 1375 50 1546 201 1546 469 c 258
 1546 1331 l 257
EndSplineSet
Refer: 0 65 N 1 0 0 1 0 0 2
Colour: ffff00
EndChar

StartChar: uniA737
Encoding: 42807 42807 1968
Width: 1729
Flags: HMW
LayerCount: 2
Fore
SplineSet
145 715 m 1
 145 908 304 999 499 999 c 0
 694 999 853 908 853 715 c 2
 853 355 l 2
 853 171 945 42 1120 42 c 0
 1349 42 1460 245 1495 484 c 1
 1522 435 l 1
 1484 195 1354 -9 1102 -9 c 0
 901 -9 793 140 793 357 c 2
 793 715 l 2
 793 875 661 947 499 947 c 0
 337 947 204 875 204 715 c 1
 145 715 l 1
1495 990 m 257
 1554 990 l 257
 1554 0 l 257
 1495 0 l 257
 1495 310 l 1
 1495 990 l 257
832 543 m 1
 832 490 l 257
 482 491 l 2
 302 491 178 425 178 262 c 256
 178 126 244 42 422 42 c 0
 630 42 775 217 807 272 c 257
 840 251 l 257
 805 177 638 -11 405 -11 c 0
 232 -11 117 82 117 258 c 256
 117 468 272 543 482 543 c 2
 832 543 l 1
EndSplineSet
Colour: ffff00
EndChar

StartChar: uniA738
Encoding: 42808 42808 1969
Width: 1683
Flags: HMW
LayerCount: 2
Fore
SplineSet
261 466 m 1
 885 466 l 1
 574 1292 l 1
 261 466 l 1
241 411 m 1
 85 0 l 1
 22 0 l 1
 530 1331 l 1
 618 1331 l 1
 1109 39 l 1
 1598 1331 l 1
 1661 1331 l 1
 1153 0 l 1
 1061 0 l 1
 906 411 l 1
 241 411 l 1
EndSplineSet
Colour: ffff00
EndChar

StartChar: uniA739
Encoding: 42809 42809 1970
Width: 1578
Flags: HMW
LayerCount: 2
Fore
SplineSet
145 715 m 1
 145 908 304 999 499 999 c 0
 655 999 787 941 835 819 c 2
 1140 42 l 257
 1502 990 l 257
 1562 990 l 257
 1187 0 l 257
 1091 0 l 257
 779 799 l 2
 740 899 629 947 499 947 c 0
 337 947 204 875 204 715 c 1
 145 715 l 1
912 543 m 1
 912 490 l 257
 482 491 l 2
 302 491 178 425 178 262 c 256
 178 126 244 42 422 42 c 0
 630 42 775 217 807 272 c 257
 840 251 l 257
 805 177 638 -11 405 -11 c 0
 232 -11 117 82 117 258 c 256
 117 468 272 543 482 543 c 2
 912 543 l 1
EndSplineSet
Colour: ffff00
EndChar

StartChar: uniA73A
Encoding: 42810 42810 1971
Width: 1683
Flags: HMW
LayerCount: 2
Fore
SplineSet
753 920 m 1
 1461 920 l 1
 1461 865 l 1
 753 865 l 1
 753 920 l 1
261 466 m 1
 885 466 l 1
 574 1292 l 1
 261 466 l 1
241 411 m 1
 85 0 l 1
 22 0 l 1
 530 1331 l 1
 618 1331 l 1
 1109 39 l 1
 1598 1331 l 1
 1661 1331 l 1
 1153 0 l 1
 1061 0 l 1
 906 411 l 1
 241 411 l 1
EndSplineSet
Colour: ffff00
EndChar

StartChar: uniA73B
Encoding: 42811 42811 1972
Width: 1578
Flags: HMW
LayerCount: 2
Fore
SplineSet
862 703 m 1
 1412 703 l 1
 1412 650 l 257
 862 650 l 1
 862 703 l 1
145 715 m 1
 145 908 304 999 499 999 c 0
 655 999 787 941 835 819 c 2
 1140 42 l 257
 1502 990 l 257
 1562 990 l 257
 1187 0 l 257
 1091 0 l 257
 779 799 l 2
 740 899 629 947 499 947 c 0
 337 947 204 875 204 715 c 1
 145 715 l 1
912 543 m 1
 912 490 l 257
 482 491 l 2
 302 491 178 425 178 262 c 256
 178 126 244 42 422 42 c 0
 630 42 775 217 807 272 c 257
 840 251 l 257
 805 177 638 -11 405 -11 c 0
 232 -11 117 82 117 258 c 256
 117 468 272 543 482 543 c 2
 912 543 l 1
EndSplineSet
Colour: ffff00
EndChar

StartChar: uniA73C
Encoding: 42812 42812 1973
Width: 1633
Flags: HMW
LayerCount: 2
Fore
SplineSet
574 1292 m 1
 261 466 l 1
 1057 466 l 1
 1057 572 l 1
 574 1292 l 1
530 1331 m 1
 616 1331 l 1
 1088 639 l 1
 1561 1331 l 1
 1628 1331 l 1
 1117 572 l 1
 1117 0 l 1
 1057 0 l 1
 1057 411 l 1
 241 411 l 1
 85 0 l 1
 22 0 l 1
 530 1331 l 1
EndSplineSet
Colour: ffff00
EndChar

StartChar: uniA73D
Encoding: 42813 42813 1974
Width: 1578
Flags: HMW
LayerCount: 2
Fore
SplineSet
145 715 m 1
 145 908 304 999 499 999 c 0
 655 999 787 941 835 819 c 2
 1140 42 l 1
 1502 990 l 1
 1562 990 l 1
 1006 -477 l 1
 926 -477 l 1
 1108 -44 l 1
 779 799 l 2
 740 899 629 947 499 947 c 0
 337 947 204 875 204 715 c 1
 145 715 l 1
912 543 m 1
 912 490 l 257
 482 491 l 2
 302 491 178 425 178 262 c 256
 178 126 244 42 422 42 c 0
 630 42 775 217 807 272 c 257
 840 251 l 257
 805 177 638 -11 405 -11 c 0
 232 -11 117 82 117 258 c 256
 117 468 272 543 482 543 c 2
 912 543 l 1
EndSplineSet
Colour: ffff00
EndChar

StartChar: uniA760
Encoding: 42848 42848 1977
Width: 2146
Flags: HMW
LayerCount: 2
Fore
SplineSet
2074 1331 m 1
 2141 1331 l 1
 1630 572 l 1
 1630 0 l 1
 1570 0 l 1
 1570 572 l 1
 1101 1271 l 1
 616 0 l 1
 528 0 l 1
 22 1331 l 1
 85 1331 l 1
 572 39 l 1
 1061 1331 l 1
 1129 1331 l 1
 1601 639 l 1
 2074 1331 l 1
EndSplineSet
Colour: ffff00
EndChar

StartChar: uniA761
Encoding: 42849 42849 1978
Width: 1686
Flags: HMW
LayerCount: 2
Fore
SplineSet
875 990 m 1
 1248 42 l 1
 1610 990 l 1
 1670 990 l 1
 1114 -477 l 1
 1034 -477 l 1
 1216 -44 l 1
 843 912 l 1
 498 0 l 1
 402 0 l 1
 16 990 l 1
 78 990 l 1
 451 42 l 1
 813 990 l 1
 875 990 l 1
EndSplineSet
Colour: ffff00
EndChar

